<svg width="518" height="531" viewBox="0 0 518 531" fill="none" xmlns="http://www.w3.org/2000/svg">
<path d="M5.54376 2.77199C5.54376 4.30284 4.30259 5.54401 2.77206 5.54401C1.24116 5.54401 0 4.30284 0 2.77199C0 1.24113 1.24116 0 2.77206 0C4.30259 0 5.54376 1.24113 5.54376 2.77199Z" fill="#3C4D7B"/>
<path d="M41.6971 2.77199C41.6971 4.30284 40.4563 5.54401 38.9254 5.54401C37.3945 5.54401 36.1537 4.30284 36.1537 2.77199C36.1537 1.24113 37.3945 0 38.9254 0C40.4563 0 41.6971 1.24113 41.6971 2.77199Z" fill="#3C4D7B"/>
<path d="M77.8525 2.77199C77.8525 4.30284 76.6117 5.54401 75.0804 5.54401C73.5495 5.54401 72.3086 4.30284 72.3086 2.77199C72.3086 1.24113 73.5495 0 75.0804 0C76.6117 0 77.8525 1.24113 77.8525 2.77199Z" fill="#3C4D7B"/>
<path d="M114.006 2.77199C114.006 4.30284 112.765 5.54401 111.234 5.54401C109.703 5.54401 108.462 4.30284 108.462 2.77199C108.462 1.24113 109.703 0 111.234 0C112.765 0 114.006 1.24113 114.006 2.77199Z" fill="#3C4D7B"/>
<path d="M5.54376 38.6109C5.54376 40.1418 4.30259 41.3826 2.77206 41.3826C1.24116 41.3826 0 40.1418 0 38.6109C0 37.08 1.24116 35.8389 2.77206 35.8389C4.30259 35.8389 5.54376 37.08 5.54376 38.6109Z" fill="#3C4D7B"/>
<path d="M41.6971 38.6109C41.6971 40.1418 40.4563 41.3826 38.9254 41.3826C37.3945 41.3826 36.1537 40.1418 36.1537 38.6109C36.1537 37.08 37.3945 35.8389 38.9254 35.8389C40.4563 35.8389 41.6971 37.08 41.6971 38.6109Z" fill="#3C4D7B"/>
<path d="M77.8525 38.6109C77.8525 40.1418 76.6117 41.3826 75.0804 41.3826C73.5495 41.3826 72.3086 40.1418 72.3086 38.6109C72.3086 37.08 73.5495 35.8389 75.0804 35.8389C76.6117 35.8389 77.8525 37.08 77.8525 38.6109Z" fill="#3C4D7B"/>
<path d="M114.006 38.6109C114.006 40.1418 112.765 41.3826 111.234 41.3826C109.703 41.3826 108.462 40.1418 108.462 38.6109C108.462 37.08 109.703 35.8389 111.234 35.8389C112.765 35.8389 114.006 37.08 114.006 38.6109Z" fill="#3C4D7B"/>
<path d="M5.54376 74.4489C5.54376 75.9798 4.30259 77.2209 2.77206 77.2209C1.24116 77.2209 0 75.9798 0 74.4489C0 72.918 1.24116 71.6772 2.77206 71.6772C4.30259 71.6772 5.54376 72.918 5.54376 74.4489Z" fill="#3C4D7B"/>
<path d="M41.6971 74.4489C41.6971 75.9798 40.4563 77.2209 38.9254 77.2209C37.3945 77.2209 36.1537 75.9798 36.1537 74.4489C36.1537 72.918 37.3945 71.6772 38.9254 71.6772C40.4563 71.6772 41.6971 72.918 41.6971 74.4489Z" fill="#3C4D7B"/>
<path d="M77.8525 74.4489C77.8525 75.9798 76.6117 77.2209 75.0804 77.2209C73.5495 77.2209 72.3086 75.9798 72.3086 74.4489C72.3086 72.918 73.5495 71.6772 75.0804 71.6772C76.6117 71.6772 77.8525 72.918 77.8525 74.4489Z" fill="#3C4D7B"/>
<path d="M114.006 74.4489C114.006 75.9798 112.765 77.2209 111.234 77.2209C109.703 77.2209 108.462 75.9798 108.462 74.4489C108.462 72.918 109.703 71.6772 111.234 71.6772C112.765 71.6772 114.006 72.918 114.006 74.4489Z" fill="#3C4D7B"/>
<path d="M5.54376 110.288C5.54376 111.818 4.30259 113.059 2.77206 113.059C1.24116 113.059 0 111.818 0 110.288C0 108.757 1.24116 107.516 2.77206 107.516C4.30259 107.516 5.54376 108.757 5.54376 110.288Z" fill="#3C4D7B"/>
<path d="M41.6971 110.288C41.6971 111.818 40.4563 113.059 38.9254 113.059C37.3945 113.059 36.1537 111.818 36.1537 110.288C36.1537 108.757 37.3945 107.516 38.9254 107.516C40.4563 107.516 41.6971 108.757 41.6971 110.288Z" fill="#3C4D7B"/>
<path d="M77.8525 110.288C77.8525 111.818 76.6117 113.059 75.0804 113.059C73.5495 113.059 72.3086 111.818 72.3086 110.288C72.3086 108.757 73.5495 107.516 75.0804 107.516C76.6117 107.516 77.8525 108.757 77.8525 110.288Z" fill="#3C4D7B"/>
<path d="M114.006 110.288C114.006 111.818 112.765 113.059 111.234 113.059C109.703 113.059 108.462 111.818 108.462 110.288C108.462 108.757 109.703 107.516 111.234 107.516C112.765 107.516 114.006 108.757 114.006 110.288Z" fill="#3C4D7B"/>
<path d="M477.248 285.124C477.248 286.85 475.85 288.248 474.124 288.248C472.399 288.248 471 286.85 471 285.124C471 283.399 472.399 282 474.124 282C475.85 282 477.248 283.399 477.248 285.124Z" fill="#3C4D7B"/>
<path d="M518 285.124C518 286.85 516.601 288.248 514.875 288.248C513.15 288.248 511.751 286.85 511.751 285.124C511.751 283.399 513.15 282 514.875 282C516.601 282 518 283.399 518 285.124Z" fill="#3C4D7B"/>
<path d="M477.248 325.52C477.248 327.245 475.85 328.644 474.124 328.644C472.399 328.644 471 327.245 471 325.52C471 323.794 472.399 322.396 474.124 322.396C475.85 322.396 477.248 323.794 477.248 325.52Z" fill="#3C4D7B"/>
<path d="M518 325.52C518 327.245 516.601 328.644 514.875 328.644C513.15 328.644 511.751 327.245 511.751 325.52C511.751 323.794 513.15 322.396 514.875 322.396C516.601 322.396 518 323.794 518 325.52Z" fill="#3C4D7B"/>
<path d="M477.248 365.914C477.248 367.64 475.85 369.039 474.124 369.039C472.399 369.039 471 367.64 471 365.914C471 364.189 472.399 362.79 474.124 362.79C475.85 362.79 477.248 364.189 477.248 365.914Z" fill="#3C4D7B"/>
<path d="M518 365.914C518 367.64 516.601 369.039 514.875 369.039C513.15 369.039 511.751 367.64 511.751 365.914C511.751 364.189 513.15 362.79 514.875 362.79C516.601 362.79 518 364.189 518 365.914Z" fill="#3C4D7B"/>
<path d="M477.248 406.31C477.248 408.036 475.85 409.434 474.124 409.434C472.399 409.434 471 408.036 471 406.31C471 404.585 472.399 403.186 474.124 403.186C475.85 403.186 477.248 404.585 477.248 406.31Z" fill="#3C4D7B"/>
<path d="M518 406.31C518 408.036 516.601 409.434 514.875 409.434C513.15 409.434 511.751 408.036 511.751 406.31C511.751 404.585 513.15 403.186 514.875 403.186C516.601 403.186 518 404.585 518 406.31Z" fill="#3C4D7B"/>
<path d="M477.248 446.705C477.248 448.43 475.85 449.829 474.124 449.829C472.399 449.829 471 448.43 471 446.705C471 444.979 472.399 443.581 474.124 443.581C475.85 443.581 477.248 444.979 477.248 446.705Z" fill="#3C4D7B"/>
<path d="M518 446.705C518 448.43 516.601 449.829 514.875 449.829C513.15 449.829 511.751 448.43 511.751 446.705C511.751 444.979 513.15 443.581 514.875 443.581C516.601 443.581 518 444.979 518 446.705Z" fill="#3C4D7B"/>
<path d="M477.248 487.1C477.248 488.826 475.85 490.225 474.124 490.225C472.399 490.225 471 488.826 471 487.1C471 485.375 472.399 483.976 474.124 483.976C475.85 483.976 477.248 485.375 477.248 487.1Z" fill="#3C4D7B"/>
<path d="M518 487.1C518 488.826 516.601 490.225 514.875 490.225C513.15 490.225 511.751 488.826 511.751 487.1C511.751 485.375 513.15 483.976 514.875 483.976C516.601 483.976 518 485.375 518 487.1Z" fill="#3C4D7B"/>
<path d="M477.248 527.495C477.248 529.221 475.85 530.62 474.124 530.62C472.399 530.62 471 529.221 471 527.495C471 525.77 472.399 524.371 474.124 524.371C475.85 524.371 477.248 525.77 477.248 527.495Z" fill="#3C4D7B"/>
<path d="M518 527.495C518 529.221 516.601 530.62 514.875 530.62C513.15 530.62 511.751 529.221 511.751 527.495C511.751 525.77 513.15 524.371 514.875 524.371C516.601 524.371 518 525.77 518 527.495Z" fill="#3C4D7B"/>
</svg>
