<svg width="115" height="114" viewBox="0 0 115 114" fill="none" xmlns="http://www.w3.org/2000/svg">
<path d="M5.54376 2.77199C5.54376 4.30284 4.30259 5.54401 2.77206 5.54401C1.24116 5.54401 0 4.30284 0 2.77199C0 1.24113 1.24116 0 2.77206 0C4.30259 0 5.54376 1.24113 5.54376 2.77199Z" fill="#3C4D7B"/>
<path d="M41.6971 2.77199C41.6971 4.30284 40.4563 5.54401 38.9254 5.54401C37.3945 5.54401 36.1537 4.30284 36.1537 2.77199C36.1537 1.24113 37.3945 0 38.9254 0C40.4563 0 41.6971 1.24113 41.6971 2.77199Z" fill="#3C4D7B"/>
<path d="M77.8525 2.77199C77.8525 4.30284 76.6117 5.54401 75.0804 5.54401C73.5495 5.54401 72.3086 4.30284 72.3086 2.77199C72.3086 1.24113 73.5495 0 75.0804 0C76.6117 0 77.8525 1.24113 77.8525 2.77199Z" fill="#3C4D7B"/>
<path d="M114.006 2.77199C114.006 4.30284 112.765 5.54401 111.234 5.54401C109.703 5.54401 108.462 4.30284 108.462 2.77199C108.462 1.24113 109.703 0 111.234 0C112.765 0 114.006 1.24113 114.006 2.77199Z" fill="#3C4D7B"/>
<path d="M5.54376 38.6109C5.54376 40.1418 4.30259 41.3826 2.77206 41.3826C1.24116 41.3826 0 40.1418 0 38.6109C0 37.08 1.24116 35.8389 2.77206 35.8389C4.30259 35.8389 5.54376 37.08 5.54376 38.6109Z" fill="#3C4D7B"/>
<path d="M41.6971 38.6109C41.6971 40.1418 40.4563 41.3826 38.9254 41.3826C37.3945 41.3826 36.1537 40.1418 36.1537 38.6109C36.1537 37.08 37.3945 35.8389 38.9254 35.8389C40.4563 35.8389 41.6971 37.08 41.6971 38.6109Z" fill="#3C4D7B"/>
<path d="M77.8525 38.6109C77.8525 40.1418 76.6117 41.3826 75.0804 41.3826C73.5495 41.3826 72.3086 40.1418 72.3086 38.6109C72.3086 37.08 73.5495 35.8389 75.0804 35.8389C76.6117 35.8389 77.8525 37.08 77.8525 38.6109Z" fill="#3C4D7B"/>
<path d="M114.006 38.6109C114.006 40.1418 112.765 41.3826 111.234 41.3826C109.703 41.3826 108.462 40.1418 108.462 38.6109C108.462 37.08 109.703 35.8389 111.234 35.8389C112.765 35.8389 114.006 37.08 114.006 38.6109Z" fill="#3C4D7B"/>
<path d="M5.54376 74.4489C5.54376 75.9798 4.30259 77.2209 2.77206 77.2209C1.24116 77.2209 0 75.9798 0 74.4489C0 72.918 1.24116 71.6772 2.77206 71.6772C4.30259 71.6772 5.54376 72.918 5.54376 74.4489Z" fill="#3C4D7B"/>
<path d="M41.6971 74.4489C41.6971 75.9798 40.4563 77.2209 38.9254 77.2209C37.3945 77.2209 36.1537 75.9798 36.1537 74.4489C36.1537 72.918 37.3945 71.6772 38.9254 71.6772C40.4563 71.6772 41.6971 72.918 41.6971 74.4489Z" fill="#3C4D7B"/>
<path d="M77.8525 74.4489C77.8525 75.9798 76.6117 77.2209 75.0804 77.2209C73.5495 77.2209 72.3086 75.9798 72.3086 74.4489C72.3086 72.918 73.5495 71.6772 75.0804 71.6772C76.6117 71.6772 77.8525 72.918 77.8525 74.4489Z" fill="#3C4D7B"/>
<path d="M114.006 74.4489C114.006 75.9798 112.765 77.2209 111.234 77.2209C109.703 77.2209 108.462 75.9798 108.462 74.4489C108.462 72.918 109.703 71.6772 111.234 71.6772C112.765 71.6772 114.006 72.918 114.006 74.4489Z" fill="#3C4D7B"/>
<path d="M5.54376 110.288C5.54376 111.818 4.30259 113.059 2.77206 113.059C1.24116 113.059 0 111.818 0 110.288C0 108.757 1.24116 107.516 2.77206 107.516C4.30259 107.516 5.54376 108.757 5.54376 110.288Z" fill="#3C4D7B"/>
<path d="M41.6971 110.288C41.6971 111.818 40.4563 113.059 38.9254 113.059C37.3945 113.059 36.1537 111.818 36.1537 110.288C36.1537 108.757 37.3945 107.516 38.9254 107.516C40.4563 107.516 41.6971 108.757 41.6971 110.288Z" fill="#3C4D7B"/>
<path d="M77.8525 110.288C77.8525 111.818 76.6117 113.059 75.0804 113.059C73.5495 113.059 72.3086 111.818 72.3086 110.288C72.3086 108.757 73.5495 107.516 75.0804 107.516C76.6117 107.516 77.8525 108.757 77.8525 110.288Z" fill="#3C4D7B"/>
<path d="M114.006 110.288C114.006 111.818 112.765 113.059 111.234 113.059C109.703 113.059 108.462 111.818 108.462 110.288C108.462 108.757 109.703 107.516 111.234 107.516C112.765 107.516 114.006 108.757 114.006 110.288Z" fill="#3C4D7B"/>
</svg>


<svg width="1125" height="738" viewBox="0 0 1125 738" fill="none" xmlns="http://www.w3.org/2000/svg">
<path d="M284.103 319.857C286.822 319.857 289.029 317.65 289.029 314.929C289.029 312.206 286.822 310 284.103 310C281.38 310 279.172 312.206 279.172 314.929C279.172 317.65 281.38 319.857 284.103 319.857ZM343.838 738C346.557 738 348.765 735.794 348.765 733.073C348.765 730.351 346.557 728.145 343.838 728.145C341.117 728.145 338.908 730.351 338.908 733.073C338.908 735.794 341.117 738 343.838 738ZM323.925 738C326.646 738 328.854 735.794 328.854 733.073C328.854 730.351 326.646 728.145 323.925 728.145C321.203 728.145 318.995 730.351 318.995 733.073C318.995 735.794 321.203 738 323.925 738ZM304.017 738C306.736 738 308.942 735.794 308.942 733.073C308.942 730.351 306.736 728.145 304.017 728.145C301.29 728.145 299.085 730.351 299.085 733.073C299.085 735.794 301.29 738 304.017 738ZM383.659 718.088C386.382 718.088 388.589 715.882 388.589 713.162C388.589 710.44 386.382 708.235 383.659 708.235C380.938 708.235 378.73 710.44 378.73 713.162C378.73 715.882 380.938 718.088 383.659 718.088ZM363.746 718.088C366.471 718.088 368.676 715.882 368.676 713.162C368.676 710.44 366.471 708.235 363.746 708.235C361.027 708.235 358.819 710.44 358.819 713.162C358.819 715.882 361.027 718.088 363.746 718.088ZM343.838 718.088C346.557 718.088 348.765 715.882 348.765 713.162C348.765 710.44 346.557 708.235 343.838 708.235C341.117 708.235 338.908 710.44 338.908 713.162C338.908 715.882 341.117 718.088 343.838 718.088ZM304.017 718.088C306.736 718.088 308.942 715.882 308.942 713.162C308.942 710.44 306.736 708.235 304.017 708.235C301.29 708.235 299.085 710.44 299.085 713.162C299.085 715.882 301.29 718.088 304.017 718.088ZM284.103 718.088C286.822 718.088 289.029 715.882 289.029 713.162C289.029 710.44 286.822 708.235 284.103 708.235C281.38 708.235 279.172 710.44 279.172 713.162C279.172 715.882 281.38 718.088 284.103 718.088ZM264.191 718.088C266.909 718.088 269.117 715.882 269.117 713.162C269.117 710.44 266.909 708.235 264.191 708.235C261.468 708.235 259.26 710.44 259.26 713.162C259.26 715.882 261.468 718.088 264.191 718.088ZM244.278 718.088C247.001 718.088 249.207 715.882 249.207 713.162C249.207 710.44 247.001 708.235 244.278 708.235C241.556 708.235 239.352 710.44 239.352 713.162C239.352 715.882 241.556 718.088 244.278 718.088ZM781.894 698.178C784.614 698.178 786.824 695.972 786.824 693.249C786.824 690.528 784.614 688.322 781.894 688.322C779.17 688.322 776.967 690.528 776.967 693.249C776.967 695.972 779.17 698.178 781.894 698.178ZM383.659 698.178C386.382 698.178 388.589 695.972 388.589 693.249C388.589 690.528 386.382 688.322 383.659 688.322C380.938 688.322 378.73 690.528 378.73 693.249C378.73 695.972 380.938 698.178 383.659 698.178ZM363.746 698.178C366.471 698.178 368.676 695.972 368.676 693.249C368.676 690.528 366.471 688.322 363.746 688.322C361.027 688.322 358.819 690.528 358.819 693.249C358.819 695.972 361.027 698.178 363.746 698.178ZM343.838 698.178C346.557 698.178 348.765 695.972 348.765 693.249C348.765 690.528 346.557 688.322 343.838 688.322C341.117 688.322 338.908 690.528 338.908 693.249C338.908 695.972 341.117 698.178 343.838 698.178ZM284.103 698.178C286.822 698.178 289.029 695.972 289.029 693.249C289.029 690.528 286.822 688.322 284.103 688.322C281.38 688.322 279.172 690.528 279.172 693.249C279.172 695.972 281.38 698.178 284.103 698.178ZM264.191 698.178C266.909 698.178 269.117 695.972 269.117 693.249C269.117 690.528 266.909 688.322 264.191 688.322C261.468 688.322 259.26 690.528 259.26 693.249C259.26 695.972 261.468 698.178 264.191 698.178ZM244.278 698.178C247.001 698.178 249.207 695.972 249.207 693.249C249.207 690.528 247.001 688.322 244.278 688.322C241.556 688.322 239.352 690.528 239.352 693.249C239.352 695.972 241.556 698.178 244.278 698.178ZM224.368 698.178C227.087 698.178 229.294 695.972 229.294 693.249C229.294 690.528 227.087 688.322 224.368 688.322C221.645 688.322 219.439 690.528 219.439 693.249C219.439 695.972 221.645 698.178 224.368 698.178ZM204.455 698.178C207.175 698.178 209.382 695.972 209.382 693.249C209.382 690.528 207.175 688.322 204.455 688.322C201.731 688.322 199.531 690.528 199.531 693.249C199.531 695.972 201.731 698.178 204.455 698.178ZM184.543 698.178C187.266 698.178 189.472 695.972 189.472 693.249C189.472 690.528 187.266 688.322 184.543 688.322C181.823 688.322 179.617 690.528 179.617 693.249C179.617 695.972 181.823 698.178 184.543 698.178ZM781.894 678.267C784.614 678.267 786.824 676.059 786.824 673.339C786.824 670.615 784.614 668.41 781.894 668.41C779.17 668.41 776.967 670.615 776.967 673.339C776.967 676.059 779.17 678.267 781.894 678.267ZM761.981 678.267C764.702 678.267 766.909 676.059 766.909 673.339C766.909 670.615 764.702 668.41 761.981 668.41C759.258 668.41 757.054 670.615 757.054 673.339C757.054 676.059 759.258 678.267 761.981 678.267ZM742.071 678.267C744.789 678.267 746.997 676.059 746.997 673.339C746.997 670.615 744.789 668.41 742.071 668.41C739.347 668.41 737.142 670.615 737.142 673.339C737.142 676.059 739.347 678.267 742.071 678.267ZM722.158 678.267C724.878 678.267 727.085 676.059 727.085 673.339C727.085 670.615 724.878 668.41 722.158 668.41C719.436 668.41 717.231 670.615 717.231 673.339C717.231 676.059 719.436 678.267 722.158 678.267ZM702.246 678.267C704.967 678.267 707.174 676.059 707.174 673.339C707.174 670.615 704.967 668.41 702.246 668.41C699.523 668.41 697.32 670.615 697.32 673.339C697.32 676.059 699.523 678.267 702.246 678.267ZM542.952 678.267C545.678 678.267 547.88 676.059 547.88 673.339C547.88 670.615 545.678 668.41 542.952 668.41C540.232 668.41 538.025 670.615 538.025 673.339C538.025 676.059 540.232 678.267 542.952 678.267ZM503.129 678.267C505.851 678.267 508.057 676.059 508.057 673.339C508.057 670.615 505.851 668.41 503.129 668.41C500.409 668.41 498.202 670.615 498.202 673.339C498.202 676.059 500.409 678.267 503.129 678.267ZM483.216 678.267C485.943 678.267 488.145 676.059 488.145 673.339C488.145 670.615 485.943 668.41 483.216 668.41C480.498 668.41 478.289 670.615 478.289 673.339C478.289 676.059 480.498 678.267 483.216 678.267ZM463.304 678.267C466.029 678.267 468.233 676.059 468.233 673.339C468.233 670.615 466.029 668.41 463.304 668.41C460.587 668.41 458.377 670.615 458.377 673.339C458.377 676.059 460.587 678.267 463.304 678.267ZM443.393 678.267C446.117 678.267 448.324 676.059 448.324 673.339C448.324 670.615 446.117 668.41 443.393 668.41C440.673 668.41 438.465 670.615 438.465 673.339C438.465 676.059 440.673 678.267 443.393 678.267ZM403.571 678.267C406.294 678.267 408.503 676.059 408.503 673.339C408.503 670.615 406.294 668.41 403.571 668.41C400.852 668.41 398.642 670.615 398.642 673.339C398.642 676.059 400.852 678.267 403.571 678.267ZM383.659 678.267C386.382 678.267 388.589 676.059 388.589 673.339C388.589 670.615 386.382 668.41 383.659 668.41C380.938 668.41 378.73 670.615 378.73 673.339C378.73 676.059 380.938 678.267 383.659 678.267ZM363.746 678.267C366.471 678.267 368.676 676.059 368.676 673.339C368.676 670.615 366.471 668.41 363.746 668.41C361.027 668.41 358.819 670.615 358.819 673.339C358.819 676.059 361.027 678.267 363.746 678.267ZM343.838 678.267C346.557 678.267 348.765 676.059 348.765 673.339C348.765 670.615 346.557 668.41 343.838 668.41C341.117 668.41 338.908 670.615 338.908 673.339C338.908 676.059 341.117 678.267 343.838 678.267ZM323.925 678.267C326.646 678.267 328.854 676.059 328.854 673.339C328.854 670.615 326.646 668.41 323.925 668.41C321.203 668.41 318.995 670.615 318.995 673.339C318.995 676.059 321.203 678.267 323.925 678.267ZM304.017 678.267C306.736 678.267 308.942 676.059 308.942 673.339C308.942 670.615 306.736 668.41 304.017 668.41C301.29 668.41 299.085 670.615 299.085 673.339C299.085 676.059 301.29 678.267 304.017 678.267ZM284.103 678.267C286.822 678.267 289.029 676.059 289.029 673.339C289.029 670.615 286.822 668.41 284.103 668.41C281.38 668.41 279.172 670.615 279.172 673.339C279.172 676.059 281.38 678.267 284.103 678.267ZM264.191 678.267C266.909 678.267 269.117 676.059 269.117 673.339C269.117 670.615 266.909 668.41 264.191 668.41C261.468 668.41 259.26 670.615 259.26 673.339C259.26 676.059 261.468 678.267 264.191 678.267ZM244.278 678.267C247.001 678.267 249.207 676.059 249.207 673.339C249.207 670.615 247.001 668.41 244.278 668.41C241.556 668.41 239.352 670.615 239.352 673.339C239.352 676.059 241.556 678.267 244.278 678.267ZM224.368 678.267C227.087 678.267 229.294 676.059 229.294 673.339C229.294 670.615 227.087 668.41 224.368 668.41C221.645 668.41 219.439 670.615 219.439 673.339C219.439 676.059 221.645 678.267 224.368 678.267ZM204.455 678.267C207.175 678.267 209.382 676.059 209.382 673.339C209.382 670.615 207.175 668.41 204.455 668.41C201.731 668.41 199.531 670.615 199.531 673.339C199.531 676.059 201.731 678.267 204.455 678.267ZM184.543 678.267C187.266 678.267 189.472 676.059 189.472 673.339C189.472 670.615 187.266 668.41 184.543 668.41C181.823 668.41 179.617 670.615 179.617 673.339C179.617 676.059 181.823 678.267 184.543 678.267ZM164.631 678.267C167.354 678.267 169.56 676.059 169.56 673.339C169.56 670.615 167.354 668.41 164.631 668.41C161.91 668.41 159.704 670.615 159.704 673.339C159.704 676.059 161.91 678.267 164.631 678.267ZM144.72 678.267C147.441 678.267 149.647 676.059 149.647 673.339C149.647 670.615 147.441 668.41 144.72 668.41C141.998 668.41 139.792 670.615 139.792 673.339C139.792 676.059 141.998 678.267 144.72 678.267ZM124.808 678.267C127.529 678.267 129.737 676.059 129.737 673.339C129.737 670.615 127.529 668.41 124.808 668.41C122.087 668.41 119.882 670.615 119.882 673.339C119.882 676.059 122.087 678.267 124.808 678.267ZM104.898 678.267C107.619 678.267 109.824 676.059 109.824 673.339C109.824 670.615 107.619 668.41 104.898 668.41C102.175 668.41 99.9694 670.615 99.9694 673.339C99.9694 676.059 102.175 678.267 104.898 678.267ZM84.9858 678.267C87.7065 678.267 89.9126 676.059 89.9126 673.339C89.9126 670.615 87.7065 668.41 84.9858 668.41C82.2651 668.41 80.0569 670.615 80.0569 673.339C80.0569 676.059 82.2651 678.267 84.9858 678.267ZM65.0732 678.267C67.7965 678.267 70.0017 676.059 70.0017 673.339C70.0017 670.615 67.7965 668.41 65.0732 668.41C62.3526 668.41 60.1443 670.615 60.1443 673.339C60.1443 676.059 62.3526 678.267 65.0732 678.267ZM45.1607 678.267C47.8839 678.267 50.0896 676.059 50.0896 673.339C50.0896 670.615 47.8839 668.41 45.1607 668.41C42.44 668.41 40.2343 670.615 40.2343 673.339C40.2343 676.059 42.44 678.267 45.1607 678.267ZM25.2503 678.267C27.9714 678.267 30.1792 676.059 30.1792 673.339C30.1792 670.615 27.9714 668.41 25.2503 668.41C22.5279 668.41 20.3223 670.615 20.3223 673.339C20.3223 676.059 22.5279 678.267 25.2503 678.267ZM781.894 658.355C784.614 658.355 786.824 656.147 786.824 653.426C786.824 650.704 784.614 648.498 781.894 648.498C779.17 648.498 776.967 650.704 776.967 653.426C776.967 656.147 779.17 658.355 781.894 658.355ZM761.981 658.355C764.702 658.355 766.909 656.147 766.909 653.426C766.909 650.704 764.702 648.498 761.981 648.498C759.258 648.498 757.054 650.704 757.054 653.426C757.054 656.147 759.258 658.355 761.981 658.355ZM742.071 658.355C744.789 658.355 746.997 656.147 746.997 653.426C746.997 650.704 744.789 648.498 742.071 648.498C739.347 648.498 737.142 650.704 737.142 653.426C737.142 656.147 739.347 658.355 742.071 658.355ZM722.158 658.355C724.878 658.355 727.085 656.147 727.085 653.426C727.085 650.704 724.878 648.498 722.158 648.498C719.436 648.498 717.231 650.704 717.231 653.426C717.231 656.147 719.436 658.355 722.158 658.355ZM702.246 658.355C704.967 658.355 707.174 656.147 707.174 653.426C707.174 650.704 704.967 648.498 702.246 648.498C699.523 648.498 697.32 650.704 697.32 653.426C697.32 656.147 699.523 658.355 702.246 658.355ZM562.863 658.355C565.587 658.355 567.79 656.147 567.79 653.426C567.79 650.704 565.587 648.498 562.863 648.498C560.145 648.498 557.937 650.704 557.937 653.426C557.937 656.147 560.145 658.355 562.863 658.355ZM542.952 658.355C545.678 658.355 547.88 656.147 547.88 653.426C547.88 650.704 545.678 648.498 542.952 648.498C540.232 648.498 538.025 650.704 538.025 653.426C538.025 656.147 540.232 658.355 542.952 658.355ZM523.04 658.355C525.764 658.355 527.967 656.147 527.967 653.426C527.967 650.704 525.764 648.498 523.04 648.498C520.322 648.498 518.112 650.704 518.112 653.426C518.112 656.147 520.322 658.355 523.04 658.355ZM503.129 658.355C505.851 658.355 508.057 656.147 508.057 653.426C508.057 650.704 505.851 648.498 503.129 648.498C500.409 648.498 498.202 650.704 498.202 653.426C498.202 656.147 500.409 658.355 503.129 658.355ZM443.393 658.355C446.117 658.355 448.324 656.147 448.324 653.426C448.324 650.704 446.117 648.498 443.393 648.498C440.673 648.498 438.465 650.704 438.465 653.426C438.465 656.147 440.673 658.355 443.393 658.355ZM423.482 658.355C426.206 658.355 428.412 656.147 428.412 653.426C428.412 650.704 426.206 648.498 423.482 648.498C420.762 648.498 418.555 650.704 418.555 653.426C418.555 656.147 420.762 658.355 423.482 658.355ZM403.571 658.355C406.294 658.355 408.503 656.147 408.503 653.426C408.503 650.704 406.294 648.498 403.571 648.498C400.852 648.498 398.642 650.704 398.642 653.426C398.642 656.147 400.852 658.355 403.571 658.355ZM343.838 658.355C346.557 658.355 348.765 656.147 348.765 653.426C348.765 650.704 346.557 648.498 343.838 648.498C341.117 648.498 338.908 650.704 338.908 653.426C338.908 656.147 341.117 658.355 343.838 658.355ZM323.925 658.355C326.646 658.355 328.854 656.147 328.854 653.426C328.854 650.704 326.646 648.498 323.925 648.498C321.203 648.498 318.995 650.704 318.995 653.426C318.995 656.147 321.203 658.355 323.925 658.355ZM204.455 658.355C207.175 658.355 209.382 656.147 209.382 653.426C209.382 650.704 207.175 648.498 204.455 648.498C201.731 648.498 199.531 650.704 199.531 653.426C199.531 656.147 201.731 658.355 204.455 658.355ZM164.631 658.355C167.354 658.355 169.56 656.147 169.56 653.426C169.56 650.704 167.354 648.498 164.631 648.498C161.91 648.498 159.704 650.704 159.704 653.426C159.704 656.147 161.91 658.355 164.631 658.355ZM144.72 658.355C147.441 658.355 149.647 656.147 149.647 653.426C149.647 650.704 147.441 648.498 144.72 648.498C141.998 648.498 139.792 650.704 139.792 653.426C139.792 656.147 141.998 658.355 144.72 658.355ZM124.808 658.355C127.529 658.355 129.737 656.147 129.737 653.426C129.737 650.704 127.529 648.498 124.808 648.498C122.087 648.498 119.882 650.704 119.882 653.426C119.882 656.147 122.087 658.355 124.808 658.355ZM104.898 658.355C107.619 658.355 109.824 656.147 109.824 653.426C109.824 650.704 107.619 648.498 104.898 648.498C102.175 648.498 99.9694 650.704 99.9694 653.426C99.9694 656.147 102.175 658.355 104.898 658.355ZM84.9858 658.355C87.7065 658.355 89.9126 656.147 89.9126 653.426C89.9126 650.704 87.7065 648.498 84.9858 648.498C82.2651 648.498 80.0569 650.704 80.0569 653.426C80.0569 656.147 82.2651 658.355 84.9858 658.355ZM65.0732 658.355C67.7965 658.355 70.0017 656.147 70.0017 653.426C70.0017 650.704 67.7965 648.498 65.0732 648.498C62.3526 648.498 60.1443 650.704 60.1443 653.426C60.1443 656.147 62.3526 658.355 65.0732 658.355ZM45.1607 658.355C47.8839 658.355 50.0896 656.147 50.0896 653.426C50.0896 650.704 47.8839 648.498 45.1607 648.498C42.44 648.498 40.2343 650.704 40.2343 653.426C40.2343 656.147 42.44 658.355 45.1607 658.355ZM25.2503 658.355C27.9714 658.355 30.1792 656.147 30.1792 653.426C30.1792 650.704 27.9714 648.498 25.2503 648.498C22.5279 648.498 20.3223 650.704 20.3223 653.426C20.3223 656.147 22.5279 658.355 25.2503 658.355ZM5.33865 658.355C8.05934 658.355 10.2667 656.147 10.2667 653.426C10.2667 650.704 8.05934 648.498 5.33865 648.498C2.61712 648.498 0.411865 650.704 0.411865 653.426C0.411865 656.147 2.61712 658.355 5.33865 658.355ZM781.894 638.442C784.614 638.442 786.824 636.235 786.824 633.514C786.824 630.793 784.614 628.588 781.894 628.588C779.17 628.588 776.967 630.793 776.967 633.514C776.967 636.235 779.17 638.442 781.894 638.442ZM761.981 638.442C764.702 638.442 766.909 636.235 766.909 633.514C766.909 630.793 764.702 628.588 761.981 628.588C759.258 628.588 757.054 630.793 757.054 633.514C757.054 636.235 759.258 638.442 761.981 638.442ZM742.071 638.442C744.789 638.442 746.997 636.235 746.997 633.514C746.997 630.793 744.789 628.588 742.071 628.588C739.347 628.588 737.142 630.793 737.142 633.514C737.142 636.235 739.347 638.442 742.071 638.442ZM722.158 638.442C724.878 638.442 727.085 636.235 727.085 633.514C727.085 630.793 724.878 628.588 722.158 628.588C719.436 628.588 717.231 630.793 717.231 633.514C717.231 636.235 719.436 638.442 722.158 638.442ZM622.599 638.442C625.323 638.442 627.527 636.235 627.527 633.514C627.527 630.793 625.323 628.588 622.599 628.588C619.879 628.588 617.672 630.793 617.672 633.514C617.672 636.235 619.879 638.442 622.599 638.442ZM562.863 638.442C565.587 638.442 567.79 636.235 567.79 633.514C567.79 630.793 565.587 628.588 562.863 628.588C560.145 628.588 557.937 630.793 557.937 633.514C557.937 636.235 560.145 638.442 562.863 638.442ZM542.952 638.442C545.678 638.442 547.88 636.235 547.88 633.514C547.88 630.793 545.678 628.588 542.952 628.588C540.232 628.588 538.025 630.793 538.025 633.514C538.025 636.235 540.232 638.442 542.952 638.442ZM503.129 638.442C505.851 638.442 508.057 636.235 508.057 633.514C508.057 630.793 505.851 628.588 503.129 628.588C500.409 628.588 498.202 630.793 498.202 633.514C498.202 636.235 500.409 638.442 503.129 638.442ZM483.216 638.442C485.943 638.442 488.145 636.235 488.145 633.514C488.145 630.793 485.943 628.588 483.216 628.588C480.498 628.588 478.289 630.793 478.289 633.514C478.289 636.235 480.498 638.442 483.216 638.442ZM284.103 638.442C286.822 638.442 289.029 636.235 289.029 633.514C289.029 630.793 286.822 628.588 284.103 628.588C281.38 628.588 279.172 630.793 279.172 633.514C279.172 636.235 281.38 638.442 284.103 638.442ZM144.72 638.442C147.441 638.442 149.647 636.235 149.647 633.514C149.647 630.793 147.441 628.588 144.72 628.588C141.998 628.588 139.792 630.793 139.792 633.514C139.792 636.235 141.998 638.442 144.72 638.442ZM124.808 638.442C127.529 638.442 129.737 636.235 129.737 633.514C129.737 630.793 127.529 628.588 124.808 628.588C122.087 628.588 119.882 630.793 119.882 633.514C119.882 636.235 122.087 638.442 124.808 638.442ZM104.898 638.442C107.619 638.442 109.824 636.235 109.824 633.514C109.824 630.793 107.619 628.588 104.898 628.588C102.175 628.588 99.9694 630.793 99.9694 633.514C99.9694 636.235 102.175 638.442 104.898 638.442ZM84.9858 638.442C87.7065 638.442 89.9126 636.235 89.9126 633.514C89.9126 630.793 87.7065 628.588 84.9858 628.588C82.2651 628.588 80.0569 630.793 80.0569 633.514C80.0569 636.235 82.2651 638.442 84.9858 638.442ZM65.0732 638.442C67.7965 638.442 70.0017 636.235 70.0017 633.514C70.0017 630.793 67.7965 628.588 65.0732 628.588C62.3526 628.588 60.1443 630.793 60.1443 633.514C60.1443 636.235 62.3526 638.442 65.0732 638.442ZM45.1607 638.442C47.8839 638.442 50.0896 636.235 50.0896 633.514C50.0896 630.793 47.8839 628.588 45.1607 628.588C42.44 628.588 40.2343 630.793 40.2343 633.514C40.2343 636.235 42.44 638.442 45.1607 638.442ZM25.2503 638.442C27.9714 638.442 30.1792 636.235 30.1792 633.514C30.1792 630.793 27.9714 628.588 25.2503 628.588C22.5279 628.588 20.3223 630.793 20.3223 633.514C20.3223 636.235 22.5279 638.442 25.2503 638.442ZM5.33865 638.442C8.05934 638.442 10.2667 636.235 10.2667 633.514C10.2667 630.793 8.05934 628.588 5.33865 628.588C2.61712 628.588 0.411865 630.793 0.411865 633.514C0.411865 636.235 2.61712 638.442 5.33865 638.442ZM781.894 618.532C784.614 618.532 786.824 616.325 786.824 613.601C786.824 610.881 784.614 608.675 781.894 608.675C779.17 608.675 776.967 610.881 776.967 613.601C776.967 616.325 779.17 618.532 781.894 618.532ZM761.981 618.532C764.702 618.532 766.909 616.325 766.909 613.601C766.909 610.881 764.702 608.675 761.981 608.675C759.258 608.675 757.054 610.881 757.054 613.601C757.054 616.325 759.258 618.532 761.981 618.532ZM742.071 618.532C744.789 618.532 746.997 616.325 746.997 613.601C746.997 610.881 744.789 608.675 742.071 608.675C739.347 608.675 737.142 610.881 737.142 613.601C737.142 616.325 739.347 618.532 742.071 618.532ZM722.158 618.532C724.878 618.532 727.085 616.325 727.085 613.601C727.085 610.881 724.878 608.675 722.158 608.675C719.436 608.675 717.231 610.881 717.231 613.601C717.231 616.325 719.436 618.532 722.158 618.532ZM622.599 618.532C625.323 618.532 627.527 616.325 627.527 613.601C627.527 610.881 625.323 608.675 622.599 608.675C619.879 608.675 617.672 610.881 617.672 613.601C617.672 616.325 619.879 618.532 622.599 618.532ZM582.776 618.532C585.498 618.532 587.703 616.325 587.703 613.601C587.703 610.881 585.498 608.675 582.776 608.675C580.055 608.675 577.851 610.881 577.851 613.601C577.851 616.325 580.055 618.532 582.776 618.532ZM523.04 618.532C525.764 618.532 527.967 616.325 527.967 613.601C527.967 610.881 525.764 608.675 523.04 608.675C520.322 608.675 518.112 610.881 518.112 613.601C518.112 616.325 520.322 618.532 523.04 618.532ZM503.129 618.532C505.851 618.532 508.057 616.325 508.057 613.601C508.057 610.881 505.851 608.675 503.129 608.675C500.409 608.675 498.202 610.881 498.202 613.601C498.202 616.325 500.409 618.532 503.129 618.532ZM343.838 618.532C346.557 618.532 348.765 616.325 348.765 613.601C348.765 610.881 346.557 608.675 343.838 608.675C341.117 608.675 338.908 610.881 338.908 613.601C338.908 616.325 341.117 618.532 343.838 618.532ZM323.925 618.532C326.646 618.532 328.854 616.325 328.854 613.601C328.854 610.881 326.646 608.675 323.925 608.675C321.203 608.675 318.995 610.881 318.995 613.601C318.995 616.325 321.203 618.532 323.925 618.532ZM284.103 618.532C286.822 618.532 289.029 616.325 289.029 613.601C289.029 610.881 286.822 608.675 284.103 608.675C281.38 608.675 279.172 610.881 279.172 613.601C279.172 616.325 281.38 618.532 284.103 618.532ZM264.191 618.532C266.909 618.532 269.117 616.325 269.117 613.601C269.117 610.881 266.909 608.675 264.191 608.675C261.468 608.675 259.26 610.881 259.26 613.601C259.26 616.325 261.468 618.532 264.191 618.532ZM244.278 618.532C247.001 618.532 249.207 616.325 249.207 613.601C249.207 610.881 247.001 608.675 244.278 608.675C241.556 608.675 239.352 610.881 239.352 613.601C239.352 616.325 241.556 618.532 244.278 618.532ZM45.1607 618.532C47.8839 618.532 50.0896 616.325 50.0896 613.601C50.0896 610.881 47.8839 608.675 45.1607 608.675C42.44 608.675 40.2343 610.881 40.2343 613.601C40.2343 616.325 42.44 618.532 45.1607 618.532ZM781.894 598.62C784.614 598.62 786.824 596.414 786.824 593.691C786.824 590.97 784.614 588.763 781.894 588.763C779.17 588.763 776.967 590.97 776.967 593.691C776.967 596.414 779.17 598.62 781.894 598.62ZM761.981 598.62C764.702 598.62 766.909 596.414 766.909 593.691C766.909 590.97 764.702 588.763 761.981 588.763C759.258 588.763 757.054 590.97 757.054 593.691C757.054 596.414 759.258 598.62 761.981 598.62ZM742.071 598.62C744.789 598.62 746.997 596.414 746.997 593.691C746.997 590.97 744.789 588.763 742.071 588.763C739.347 588.763 737.142 590.97 737.142 593.691C737.142 596.414 739.347 598.62 742.071 598.62ZM722.158 598.62C724.878 598.62 727.085 596.414 727.085 593.691C727.085 590.97 724.878 588.763 722.158 588.763C719.436 588.763 717.231 590.97 717.231 593.691C717.231 596.414 719.436 598.62 722.158 598.62ZM702.246 598.62C704.967 598.62 707.174 596.414 707.174 593.691C707.174 590.97 704.967 588.763 702.246 588.763C699.523 588.763 697.32 590.97 697.32 593.691C697.32 596.414 699.523 598.62 702.246 598.62ZM682.337 598.62C685.055 598.62 687.262 596.414 687.262 593.691C687.262 590.97 685.055 588.763 682.337 588.763C679.611 588.763 677.407 590.97 677.407 593.691C677.407 596.414 679.611 598.62 682.337 598.62ZM662.423 598.62C665.142 598.62 667.35 596.414 667.35 593.691C667.35 590.97 665.142 588.763 662.423 588.763C659.698 588.763 657.495 590.97 657.495 593.691C657.495 596.414 659.698 598.62 662.423 598.62ZM622.599 598.62C625.323 598.62 627.527 596.414 627.527 593.691C627.527 590.97 625.323 588.763 622.599 588.763C619.879 588.763 617.672 590.97 617.672 593.691C617.672 596.414 619.879 598.62 622.599 598.62ZM582.776 598.62C585.498 598.62 587.703 596.414 587.703 593.691C587.703 590.97 585.498 588.763 582.776 588.763C580.055 588.763 577.851 590.97 577.851 593.691C577.851 596.414 580.055 598.62 582.776 598.62ZM343.838 598.62C346.557 598.62 348.765 596.414 348.765 593.691C348.765 590.97 346.557 588.763 343.838 588.763C341.117 588.763 338.908 590.97 338.908 593.691C338.908 596.414 341.117 598.62 343.838 598.62ZM323.925 598.62C326.646 598.62 328.854 596.414 328.854 593.691C328.854 590.97 326.646 588.763 323.925 588.763C321.203 588.763 318.995 590.97 318.995 593.691C318.995 596.414 321.203 598.62 323.925 598.62ZM304.017 598.62C306.736 598.62 308.942 596.414 308.942 593.691C308.942 590.97 306.736 588.763 304.017 588.763C301.29 588.763 299.085 590.97 299.085 593.691C299.085 596.414 301.29 598.62 304.017 598.62ZM284.103 598.62C286.822 598.62 289.029 596.414 289.029 593.691C289.029 590.97 286.822 588.763 284.103 588.763C281.38 588.763 279.172 590.97 279.172 593.691C279.172 596.414 281.38 598.62 284.103 598.62ZM264.191 598.62C266.909 598.62 269.117 596.414 269.117 593.691C269.117 590.97 266.909 588.763 264.191 588.763C261.468 588.763 259.26 590.97 259.26 593.691C259.26 596.414 261.468 598.62 264.191 598.62ZM244.278 598.62C247.001 598.62 249.207 596.414 249.207 593.691C249.207 590.97 247.001 588.763 244.278 588.763C241.556 588.763 239.352 590.97 239.352 593.691C239.352 596.414 241.556 598.62 244.278 598.62ZM781.894 578.707C784.614 578.707 786.824 576.502 786.824 573.781C786.824 571.058 784.614 568.852 781.894 568.852C779.17 568.852 776.967 571.058 776.967 573.781C776.967 576.502 779.17 578.707 781.894 578.707ZM761.981 578.707C764.702 578.707 766.909 576.502 766.909 573.781C766.909 571.058 764.702 568.852 761.981 568.852C759.258 568.852 757.054 571.058 757.054 573.781C757.054 576.502 759.258 578.707 761.981 578.707ZM742.071 578.707C744.789 578.707 746.997 576.502 746.997 573.781C746.997 571.058 744.789 568.852 742.071 568.852C739.347 568.852 737.142 571.058 737.142 573.781C737.142 576.502 739.347 578.707 742.071 578.707ZM722.158 578.707C724.878 578.707 727.085 576.502 727.085 573.781C727.085 571.058 724.878 568.852 722.158 568.852C719.436 568.852 717.231 571.058 717.231 573.781C717.231 576.502 719.436 578.707 722.158 578.707ZM702.246 578.707C704.967 578.707 707.174 576.502 707.174 573.781C707.174 571.058 704.967 568.852 702.246 568.852C699.523 568.852 697.32 571.058 697.32 573.781C697.32 576.502 699.523 578.707 702.246 578.707ZM682.337 578.707C685.055 578.707 687.262 576.502 687.262 573.781C687.262 571.058 685.055 568.852 682.337 568.852C679.611 568.852 677.407 571.058 677.407 573.781C677.407 576.502 679.611 578.707 682.337 578.707ZM662.423 578.707C665.142 578.707 667.35 576.502 667.35 573.781C667.35 571.058 665.142 568.852 662.423 568.852C659.698 568.852 657.495 571.058 657.495 573.781C657.495 576.502 659.698 578.707 662.423 578.707ZM642.511 578.707C645.23 578.707 647.437 576.502 647.437 573.781C647.437 571.058 645.23 568.852 642.511 568.852C639.792 568.852 637.586 571.058 637.586 573.781C637.586 576.502 639.792 578.707 642.511 578.707ZM622.599 578.707C625.323 578.707 627.527 576.502 627.527 573.781C627.527 571.058 625.323 568.852 622.599 568.852C619.879 568.852 617.672 571.058 617.672 573.781C617.672 576.502 619.879 578.707 622.599 578.707ZM602.688 578.707C605.411 578.707 607.614 576.502 607.614 573.781C607.614 571.058 605.411 568.852 602.688 568.852C599.967 568.852 597.76 571.058 597.76 573.781C597.76 576.502 599.967 578.707 602.688 578.707ZM582.776 578.707C585.498 578.707 587.703 576.502 587.703 573.781C587.703 571.058 585.498 568.852 582.776 568.852C580.055 568.852 577.851 571.058 577.851 573.781C577.851 576.502 580.055 578.707 582.776 578.707ZM542.952 578.707C545.678 578.707 547.88 576.502 547.88 573.781C547.88 571.058 545.678 568.852 542.952 568.852C540.232 568.852 538.025 571.058 538.025 573.781C538.025 576.502 540.232 578.707 542.952 578.707ZM523.04 578.707C525.764 578.707 527.967 576.502 527.967 573.781C527.967 571.058 525.764 568.852 523.04 568.852C520.322 568.852 518.112 571.058 518.112 573.781C518.112 576.502 520.322 578.707 523.04 578.707ZM463.304 578.707C466.029 578.707 468.233 576.502 468.233 573.781C468.233 571.058 466.029 568.852 463.304 568.852C460.587 568.852 458.377 571.058 458.377 573.781C458.377 576.502 460.587 578.707 463.304 578.707ZM443.393 578.707C446.117 578.707 448.324 576.502 448.324 573.781C448.324 571.058 446.117 568.852 443.393 568.852C440.673 568.852 438.465 571.058 438.465 573.781C438.465 576.502 440.673 578.707 443.393 578.707ZM423.482 578.707C426.206 578.707 428.412 576.502 428.412 573.781C428.412 571.058 426.206 568.852 423.482 568.852C420.762 568.852 418.555 571.058 418.555 573.781C418.555 576.502 420.762 578.707 423.482 578.707ZM343.838 578.707C346.557 578.707 348.765 576.502 348.765 573.781C348.765 571.058 346.557 568.852 343.838 568.852C341.117 568.852 338.908 571.058 338.908 573.781C338.908 576.502 341.117 578.707 343.838 578.707ZM323.925 578.707C326.646 578.707 328.854 576.502 328.854 573.781C328.854 571.058 326.646 568.852 323.925 568.852C321.203 568.852 318.995 571.058 318.995 573.781C318.995 576.502 321.203 578.707 323.925 578.707ZM304.017 578.707C306.736 578.707 308.942 576.502 308.942 573.781C308.942 571.058 306.736 568.852 304.017 568.852C301.29 568.852 299.085 571.058 299.085 573.781C299.085 576.502 301.29 578.707 304.017 578.707ZM284.103 578.707C286.822 578.707 289.029 576.502 289.029 573.781C289.029 571.058 286.822 568.852 284.103 568.852C281.38 568.852 279.172 571.058 279.172 573.781C279.172 576.502 281.38 578.707 284.103 578.707ZM264.191 578.707C266.909 578.707 269.117 576.502 269.117 573.781C269.117 571.058 266.909 568.852 264.191 568.852C261.468 568.852 259.26 571.058 259.26 573.781C259.26 576.502 261.468 578.707 264.191 578.707ZM244.278 578.707C247.001 578.707 249.207 576.502 249.207 573.781C249.207 571.058 247.001 568.852 244.278 568.852C241.556 568.852 239.352 571.058 239.352 573.781C239.352 576.502 241.556 578.707 244.278 578.707ZM184.543 578.707C187.266 578.707 189.472 576.502 189.472 573.781C189.472 571.058 187.266 568.852 184.543 568.852C181.823 568.852 179.617 571.058 179.617 573.781C179.617 576.502 181.823 578.707 184.543 578.707ZM164.631 578.707C167.354 578.707 169.56 576.502 169.56 573.781C169.56 571.058 167.354 568.852 164.631 568.852C161.91 568.852 159.704 571.058 159.704 573.781C159.704 576.502 161.91 578.707 164.631 578.707ZM144.72 578.707C147.441 578.707 149.647 576.502 149.647 573.781C149.647 571.058 147.441 568.852 144.72 568.852C141.998 568.852 139.792 571.058 139.792 573.781C139.792 576.502 141.998 578.707 144.72 578.707ZM124.808 578.707C127.529 578.707 129.737 576.502 129.737 573.781C129.737 571.058 127.529 568.852 124.808 568.852C122.087 568.852 119.882 571.058 119.882 573.781C119.882 576.502 122.087 578.707 124.808 578.707ZM781.894 558.795C784.614 558.795 786.824 556.589 786.824 553.869C786.824 551.147 784.614 548.94 781.894 548.94C779.17 548.94 776.967 551.147 776.967 553.869C776.967 556.589 779.17 558.795 781.894 558.795ZM761.981 558.795C764.702 558.795 766.909 556.589 766.909 553.869C766.909 551.147 764.702 548.94 761.981 548.94C759.258 548.94 757.054 551.147 757.054 553.869C757.054 556.589 759.258 558.795 761.981 558.795ZM742.071 558.795C744.789 558.795 746.997 556.589 746.997 553.869C746.997 551.147 744.789 548.94 742.071 548.94C739.347 548.94 737.142 551.147 737.142 553.869C737.142 556.589 739.347 558.795 742.071 558.795ZM722.158 558.795C724.878 558.795 727.085 556.589 727.085 553.869C727.085 551.147 724.878 548.94 722.158 548.94C719.436 548.94 717.231 551.147 717.231 553.869C717.231 556.589 719.436 558.795 722.158 558.795ZM702.246 558.795C704.967 558.795 707.174 556.589 707.174 553.869C707.174 551.147 704.967 548.94 702.246 548.94C699.523 548.94 697.32 551.147 697.32 553.869C697.32 556.589 699.523 558.795 702.246 558.795ZM682.337 558.795C685.055 558.795 687.262 556.589 687.262 553.869C687.262 551.147 685.055 548.94 682.337 548.94C679.611 548.94 677.407 551.147 677.407 553.869C677.407 556.589 679.611 558.795 682.337 558.795ZM662.423 558.795C665.142 558.795 667.35 556.589 667.35 553.869C667.35 551.147 665.142 548.94 662.423 548.94C659.698 548.94 657.495 551.147 657.495 553.869C657.495 556.589 659.698 558.795 662.423 558.795ZM642.511 558.795C645.23 558.795 647.437 556.589 647.437 553.869C647.437 551.147 645.23 548.94 642.511 548.94C639.792 548.94 637.586 551.147 637.586 553.869C637.586 556.589 639.792 558.795 642.511 558.795ZM622.599 558.795C625.323 558.795 627.527 556.589 627.527 553.869C627.527 551.147 625.323 548.94 622.599 548.94C619.879 548.94 617.672 551.147 617.672 553.869C617.672 556.589 619.879 558.795 622.599 558.795ZM602.688 558.795C605.411 558.795 607.614 556.589 607.614 553.869C607.614 551.147 605.411 548.94 602.688 548.94C599.967 548.94 597.76 551.147 597.76 553.869C597.76 556.589 599.967 558.795 602.688 558.795ZM582.776 558.795C585.498 558.795 587.703 556.589 587.703 553.869C587.703 551.147 585.498 548.94 582.776 548.94C580.055 548.94 577.851 551.147 577.851 553.869C577.851 556.589 580.055 558.795 582.776 558.795ZM562.863 558.795C565.587 558.795 567.79 556.589 567.79 553.869C567.79 551.147 565.587 548.94 562.863 548.94C560.145 548.94 557.937 551.147 557.937 553.869C557.937 556.589 560.145 558.795 562.863 558.795ZM542.952 558.795C545.678 558.795 547.88 556.589 547.88 553.869C547.88 551.147 545.678 548.94 542.952 548.94C540.232 548.94 538.025 551.147 538.025 553.869C538.025 556.589 540.232 558.795 542.952 558.795ZM523.04 558.795C525.764 558.795 527.967 556.589 527.967 553.869C527.967 551.147 525.764 548.94 523.04 548.94C520.322 548.94 518.112 551.147 518.112 553.869C518.112 556.589 520.322 558.795 523.04 558.795ZM503.129 558.795C505.851 558.795 508.057 556.589 508.057 553.869C508.057 551.147 505.851 548.94 503.129 548.94C500.409 548.94 498.202 551.147 498.202 553.869C498.202 556.589 500.409 558.795 503.129 558.795ZM483.216 558.795C485.943 558.795 488.145 556.589 488.145 553.869C488.145 551.147 485.943 548.94 483.216 548.94C480.498 548.94 478.289 551.147 478.289 553.869C478.289 556.589 480.498 558.795 483.216 558.795ZM463.304 558.795C466.029 558.795 468.233 556.589 468.233 553.869C468.233 551.147 466.029 548.94 463.304 548.94C460.587 548.94 458.377 551.147 458.377 553.869C458.377 556.589 460.587 558.795 463.304 558.795ZM443.393 558.795C446.117 558.795 448.324 556.589 448.324 553.869C448.324 551.147 446.117 548.94 443.393 548.94C440.673 548.94 438.465 551.147 438.465 553.869C438.465 556.589 440.673 558.795 443.393 558.795ZM423.482 558.795C426.206 558.795 428.412 556.589 428.412 553.869C428.412 551.147 426.206 548.94 423.482 548.94C420.762 548.94 418.555 551.147 418.555 553.869C418.555 556.589 420.762 558.795 423.482 558.795ZM403.571 558.795C406.294 558.795 408.503 556.589 408.503 553.869C408.503 551.147 406.294 548.94 403.571 548.94C400.852 548.94 398.642 551.147 398.642 553.869C398.642 556.589 400.852 558.795 403.571 558.795ZM323.925 558.795C326.646 558.795 328.854 556.589 328.854 553.869C328.854 551.147 326.646 548.94 323.925 548.94C321.203 548.94 318.995 551.147 318.995 553.869C318.995 556.589 321.203 558.795 323.925 558.795ZM304.017 558.795C306.736 558.795 308.942 556.589 308.942 553.869C308.942 551.147 306.736 548.94 304.017 548.94C301.29 548.94 299.085 551.147 299.085 553.869C299.085 556.589 301.29 558.795 304.017 558.795ZM284.103 558.795C286.822 558.795 289.029 556.589 289.029 553.869C289.029 551.147 286.822 548.94 284.103 548.94C281.38 548.94 279.172 551.147 279.172 553.869C279.172 556.589 281.38 558.795 284.103 558.795ZM264.191 558.795C266.909 558.795 269.117 556.589 269.117 553.869C269.117 551.147 266.909 548.94 264.191 548.94C261.468 548.94 259.26 551.147 259.26 553.869C259.26 556.589 261.468 558.795 264.191 558.795ZM244.278 558.795C247.001 558.795 249.207 556.589 249.207 553.869C249.207 551.147 247.001 548.94 244.278 548.94C241.556 548.94 239.352 551.147 239.352 553.869C239.352 556.589 241.556 558.795 244.278 558.795ZM184.543 558.795C187.266 558.795 189.472 556.589 189.472 553.869C189.472 551.147 187.266 548.94 184.543 548.94C181.823 548.94 179.617 551.147 179.617 553.869C179.617 556.589 181.823 558.795 184.543 558.795ZM164.631 558.795C167.354 558.795 169.56 556.589 169.56 553.869C169.56 551.147 167.354 548.94 164.631 548.94C161.91 548.94 159.704 551.147 159.704 553.869C159.704 556.589 161.91 558.795 164.631 558.795ZM144.72 558.795C147.441 558.795 149.647 556.589 149.647 553.869C149.647 551.147 147.441 548.94 144.72 548.94C141.998 548.94 139.792 551.147 139.792 553.869C139.792 556.589 141.998 558.795 144.72 558.795ZM124.808 558.795C127.529 558.795 129.737 556.589 129.737 553.869C129.737 551.147 127.529 548.94 124.808 548.94C122.087 548.94 119.882 551.147 119.882 553.869C119.882 556.589 122.087 558.795 124.808 558.795ZM104.898 558.795C107.619 558.795 109.824 556.589 109.824 553.869C109.824 551.147 107.619 548.94 104.898 548.94C102.175 548.94 99.9694 551.147 99.9694 553.869C99.9694 556.589 102.175 558.795 104.898 558.795ZM84.9858 558.795C87.7065 558.795 89.9126 556.589 89.9126 553.869C89.9126 551.147 87.7065 548.94 84.9858 548.94C82.2651 548.94 80.0569 551.147 80.0569 553.869C80.0569 556.589 82.2651 558.795 84.9858 558.795ZM65.0732 558.795C67.7965 558.795 70.0017 556.589 70.0017 553.869C70.0017 551.147 67.7965 548.94 65.0732 548.94C62.3526 548.94 60.1443 551.147 60.1443 553.869C60.1443 556.589 62.3526 558.795 65.0732 558.795ZM45.1607 558.795C47.8839 558.795 50.0896 556.589 50.0896 553.869C50.0896 551.147 47.8839 548.94 45.1607 548.94C42.44 548.94 40.2343 551.147 40.2343 553.869C40.2343 556.589 42.44 558.795 45.1607 558.795ZM25.2503 558.795C27.9714 558.795 30.1792 556.589 30.1792 553.869C30.1792 551.147 27.9714 548.94 25.2503 548.94C22.5279 548.94 20.3223 551.147 20.3223 553.869C20.3223 556.589 22.5279 558.795 25.2503 558.795ZM781.894 538.885C784.614 538.885 786.824 536.679 786.824 533.956C786.824 531.235 784.614 529.028 781.894 529.028C779.17 529.028 776.967 531.235 776.967 533.956C776.967 536.679 779.17 538.885 781.894 538.885ZM761.981 538.885C764.702 538.885 766.909 536.679 766.909 533.956C766.909 531.235 764.702 529.028 761.981 529.028C759.258 529.028 757.054 531.235 757.054 533.956C757.054 536.679 759.258 538.885 761.981 538.885ZM742.071 538.885C744.789 538.885 746.997 536.679 746.997 533.956C746.997 531.235 744.789 529.028 742.071 529.028C739.347 529.028 737.142 531.235 737.142 533.956C737.142 536.679 739.347 538.885 742.071 538.885ZM722.158 538.885C724.878 538.885 727.085 536.679 727.085 533.956C727.085 531.235 724.878 529.028 722.158 529.028C719.436 529.028 717.231 531.235 717.231 533.956C717.231 536.679 719.436 538.885 722.158 538.885ZM702.246 538.885C704.967 538.885 707.174 536.679 707.174 533.956C707.174 531.235 704.967 529.028 702.246 529.028C699.523 529.028 697.32 531.235 697.32 533.956C697.32 536.679 699.523 538.885 702.246 538.885ZM682.337 538.885C685.055 538.885 687.262 536.679 687.262 533.956C687.262 531.235 685.055 529.028 682.337 529.028C679.611 529.028 677.407 531.235 677.407 533.956C677.407 536.679 679.611 538.885 682.337 538.885ZM662.423 538.885C665.142 538.885 667.35 536.679 667.35 533.956C667.35 531.235 665.142 529.028 662.423 529.028C659.698 529.028 657.495 531.235 657.495 533.956C657.495 536.679 659.698 538.885 662.423 538.885ZM642.511 538.885C645.23 538.885 647.437 536.679 647.437 533.956C647.437 531.235 645.23 529.028 642.511 529.028C639.792 529.028 637.586 531.235 637.586 533.956C637.586 536.679 639.792 538.885 642.511 538.885ZM622.599 538.885C625.323 538.885 627.527 536.679 627.527 533.956C627.527 531.235 625.323 529.028 622.599 529.028C619.879 529.028 617.672 531.235 617.672 533.956C617.672 536.679 619.879 538.885 622.599 538.885ZM602.688 538.885C605.411 538.885 607.614 536.679 607.614 533.956C607.614 531.235 605.411 529.028 602.688 529.028C599.967 529.028 597.76 531.235 597.76 533.956C597.76 536.679 599.967 538.885 602.688 538.885ZM582.776 538.885C585.498 538.885 587.703 536.679 587.703 533.956C587.703 531.235 585.498 529.028 582.776 529.028C580.055 529.028 577.851 531.235 577.851 533.956C577.851 536.679 580.055 538.885 582.776 538.885ZM562.863 538.885C565.587 538.885 567.79 536.679 567.79 533.956C567.79 531.235 565.587 529.028 562.863 529.028C560.145 529.028 557.937 531.235 557.937 533.956C557.937 536.679 560.145 538.885 562.863 538.885ZM523.04 538.885C525.764 538.885 527.967 536.679 527.967 533.956C527.967 531.235 525.764 529.028 523.04 529.028C520.322 529.028 518.112 531.235 518.112 533.956C518.112 536.679 520.322 538.885 523.04 538.885ZM503.129 538.885C505.851 538.885 508.057 536.679 508.057 533.956C508.057 531.235 505.851 529.028 503.129 529.028C500.409 529.028 498.202 531.235 498.202 533.956C498.202 536.679 500.409 538.885 503.129 538.885ZM483.216 538.885C485.943 538.885 488.145 536.679 488.145 533.956C488.145 531.235 485.943 529.028 483.216 529.028C480.498 529.028 478.289 531.235 478.289 533.956C478.289 536.679 480.498 538.885 483.216 538.885ZM463.304 538.885C466.029 538.885 468.233 536.679 468.233 533.956C468.233 531.235 466.029 529.028 463.304 529.028C460.587 529.028 458.377 531.235 458.377 533.956C458.377 536.679 460.587 538.885 463.304 538.885ZM423.482 538.885C426.206 538.885 428.412 536.679 428.412 533.956C428.412 531.235 426.206 529.028 423.482 529.028C420.762 529.028 418.555 531.235 418.555 533.956C418.555 536.679 420.762 538.885 423.482 538.885ZM403.571 538.885C406.294 538.885 408.503 536.679 408.503 533.956C408.503 531.235 406.294 529.028 403.571 529.028C400.852 529.028 398.642 531.235 398.642 533.956C398.642 536.679 400.852 538.885 403.571 538.885ZM383.659 538.885C386.382 538.885 388.589 536.679 388.589 533.956C388.589 531.235 386.382 529.028 383.659 529.028C380.938 529.028 378.73 531.235 378.73 533.956C378.73 536.679 380.938 538.885 383.659 538.885ZM323.925 538.885C326.646 538.885 328.854 536.679 328.854 533.956C328.854 531.235 326.646 529.028 323.925 529.028C321.203 529.028 318.995 531.235 318.995 533.956C318.995 536.679 321.203 538.885 323.925 538.885ZM304.017 538.885C306.736 538.885 308.942 536.679 308.942 533.956C308.942 531.235 306.736 529.028 304.017 529.028C301.29 529.028 299.085 531.235 299.085 533.956C299.085 536.679 301.29 538.885 304.017 538.885ZM284.103 538.885C286.822 538.885 289.029 536.679 289.029 533.956C289.029 531.235 286.822 529.028 284.103 529.028C281.38 529.028 279.172 531.235 279.172 533.956C279.172 536.679 281.38 538.885 284.103 538.885ZM264.191 538.885C266.909 538.885 269.117 536.679 269.117 533.956C269.117 531.235 266.909 529.028 264.191 529.028C261.468 529.028 259.26 531.235 259.26 533.956C259.26 536.679 261.468 538.885 264.191 538.885ZM244.278 538.885C247.001 538.885 249.207 536.679 249.207 533.956C249.207 531.235 247.001 529.028 244.278 529.028C241.556 529.028 239.352 531.235 239.352 533.956C239.352 536.679 241.556 538.885 244.278 538.885ZM184.543 538.885C187.266 538.885 189.472 536.679 189.472 533.956C189.472 531.235 187.266 529.028 184.543 529.028C181.823 529.028 179.617 531.235 179.617 533.956C179.617 536.679 181.823 538.885 184.543 538.885ZM164.631 538.885C167.354 538.885 169.56 536.679 169.56 533.956C169.56 531.235 167.354 529.028 164.631 529.028C161.91 529.028 159.704 531.235 159.704 533.956C159.704 536.679 161.91 538.885 164.631 538.885ZM144.72 538.885C147.441 538.885 149.647 536.679 149.647 533.956C149.647 531.235 147.441 529.028 144.72 529.028C141.998 529.028 139.792 531.235 139.792 533.956C139.792 536.679 141.998 538.885 144.72 538.885ZM124.808 538.885C127.529 538.885 129.737 536.679 129.737 533.956C129.737 531.235 127.529 529.028 124.808 529.028C122.087 529.028 119.882 531.235 119.882 533.956C119.882 536.679 122.087 538.885 124.808 538.885ZM104.898 538.885C107.619 538.885 109.824 536.679 109.824 533.956C109.824 531.235 107.619 529.028 104.898 529.028C102.175 529.028 99.9694 531.235 99.9694 533.956C99.9694 536.679 102.175 538.885 104.898 538.885ZM84.9858 538.885C87.7065 538.885 89.9126 536.679 89.9126 533.956C89.9126 531.235 87.7065 529.028 84.9858 529.028C82.2651 529.028 80.0569 531.235 80.0569 533.956C80.0569 536.679 82.2651 538.885 84.9858 538.885ZM65.0732 538.885C67.7965 538.885 70.0017 536.679 70.0017 533.956C70.0017 531.235 67.7965 529.028 65.0732 529.028C62.3526 529.028 60.1443 531.235 60.1443 533.956C60.1443 536.679 62.3526 538.885 65.0732 538.885ZM45.1607 538.885C47.8839 538.885 50.0896 536.679 50.0896 533.956C50.0896 531.235 47.8839 529.028 45.1607 529.028C42.44 529.028 40.2343 531.235 40.2343 533.956C40.2343 536.679 42.44 538.885 45.1607 538.885ZM25.2503 538.885C27.9714 538.885 30.1792 536.679 30.1792 533.956C30.1792 531.235 27.9714 529.028 25.2503 529.028C22.5279 529.028 20.3223 531.235 20.3223 533.956C20.3223 536.679 22.5279 538.885 25.2503 538.885ZM742.071 518.972C744.789 518.972 746.997 516.766 746.997 514.046C746.997 511.323 744.789 509.118 742.071 509.118C739.347 509.118 737.142 511.323 737.142 514.046C737.142 516.766 739.347 518.972 742.071 518.972ZM722.158 518.972C724.878 518.972 727.085 516.766 727.085 514.046C727.085 511.323 724.878 509.118 722.158 509.118C719.436 509.118 717.231 511.323 717.231 514.046C717.231 516.766 719.436 518.972 722.158 518.972ZM702.246 518.972C704.967 518.972 707.174 516.766 707.174 514.046C707.174 511.323 704.967 509.118 702.246 509.118C699.523 509.118 697.32 511.323 697.32 514.046C697.32 516.766 699.523 518.972 702.246 518.972ZM682.337 518.972C685.055 518.972 687.262 516.766 687.262 514.046C687.262 511.323 685.055 509.118 682.337 509.118C679.611 509.118 677.407 511.323 677.407 514.046C677.407 516.766 679.611 518.972 682.337 518.972ZM662.423 518.972C665.142 518.972 667.35 516.766 667.35 514.046C667.35 511.323 665.142 509.118 662.423 509.118C659.698 509.118 657.495 511.323 657.495 514.046C657.495 516.766 659.698 518.972 662.423 518.972ZM642.511 518.972C645.23 518.972 647.437 516.766 647.437 514.046C647.437 511.323 645.23 509.118 642.511 509.118C639.792 509.118 637.586 511.323 637.586 514.046C637.586 516.766 639.792 518.972 642.511 518.972ZM622.599 518.972C625.323 518.972 627.527 516.766 627.527 514.046C627.527 511.323 625.323 509.118 622.599 509.118C619.879 509.118 617.672 511.323 617.672 514.046C617.672 516.766 619.879 518.972 622.599 518.972ZM602.688 518.972C605.411 518.972 607.614 516.766 607.614 514.046C607.614 511.323 605.411 509.118 602.688 509.118C599.967 509.118 597.76 511.323 597.76 514.046C597.76 516.766 599.967 518.972 602.688 518.972ZM582.776 518.972C585.498 518.972 587.703 516.766 587.703 514.046C587.703 511.323 585.498 509.118 582.776 509.118C580.055 509.118 577.851 511.323 577.851 514.046C577.851 516.766 580.055 518.972 582.776 518.972ZM562.863 518.972C565.587 518.972 567.79 516.766 567.79 514.046C567.79 511.323 565.587 509.118 562.863 509.118C560.145 509.118 557.937 511.323 557.937 514.046C557.937 516.766 560.145 518.972 562.863 518.972ZM542.952 518.972C545.678 518.972 547.88 516.766 547.88 514.046C547.88 511.323 545.678 509.118 542.952 509.118C540.232 509.118 538.025 511.323 538.025 514.046C538.025 516.766 540.232 518.972 542.952 518.972ZM523.04 518.972C525.764 518.972 527.967 516.766 527.967 514.046C527.967 511.323 525.764 509.118 523.04 509.118C520.322 509.118 518.112 511.323 518.112 514.046C518.112 516.766 520.322 518.972 523.04 518.972ZM503.129 518.972C505.851 518.972 508.057 516.766 508.057 514.046C508.057 511.323 505.851 509.118 503.129 509.118C500.409 509.118 498.202 511.323 498.202 514.046C498.202 516.766 500.409 518.972 503.129 518.972ZM463.304 518.972C466.029 518.972 468.233 516.766 468.233 514.046C468.233 511.323 466.029 509.118 463.304 509.118C460.587 509.118 458.377 511.323 458.377 514.046C458.377 516.766 460.587 518.972 463.304 518.972ZM443.393 518.972C446.117 518.972 448.324 516.766 448.324 514.046C448.324 511.323 446.117 509.118 443.393 509.118C440.673 509.118 438.465 511.323 438.465 514.046C438.465 516.766 440.673 518.972 443.393 518.972ZM423.482 518.972C426.206 518.972 428.412 516.766 428.412 514.046C428.412 511.323 426.206 509.118 423.482 509.118C420.762 509.118 418.555 511.323 418.555 514.046C418.555 516.766 420.762 518.972 423.482 518.972ZM403.571 518.972C406.294 518.972 408.503 516.766 408.503 514.046C408.503 511.323 406.294 509.118 403.571 509.118C400.852 509.118 398.642 511.323 398.642 514.046C398.642 516.766 400.852 518.972 403.571 518.972ZM383.659 518.972C386.382 518.972 388.589 516.766 388.589 514.046C388.589 511.323 386.382 509.118 383.659 509.118C380.938 509.118 378.73 511.323 378.73 514.046C378.73 516.766 380.938 518.972 383.659 518.972ZM363.746 518.972C366.471 518.972 368.676 516.766 368.676 514.046C368.676 511.323 366.471 509.118 363.746 509.118C361.027 509.118 358.819 511.323 358.819 514.046C358.819 516.766 361.027 518.972 363.746 518.972ZM343.838 518.972C346.557 518.972 348.765 516.766 348.765 514.046C348.765 511.323 346.557 509.118 343.838 509.118C341.117 509.118 338.908 511.323 338.908 514.046C338.908 516.766 341.117 518.972 343.838 518.972ZM323.925 518.972C326.646 518.972 328.854 516.766 328.854 514.046C328.854 511.323 326.646 509.118 323.925 509.118C321.203 509.118 318.995 511.323 318.995 514.046C318.995 516.766 321.203 518.972 323.925 518.972ZM304.017 518.972C306.736 518.972 308.942 516.766 308.942 514.046C308.942 511.323 306.736 509.118 304.017 509.118C301.29 509.118 299.085 511.323 299.085 514.046C299.085 516.766 301.29 518.972 304.017 518.972ZM284.103 518.972C286.822 518.972 289.029 516.766 289.029 514.046C289.029 511.323 286.822 509.118 284.103 509.118C281.38 509.118 279.172 511.323 279.172 514.046C279.172 516.766 281.38 518.972 284.103 518.972ZM264.191 518.972C266.909 518.972 269.117 516.766 269.117 514.046C269.117 511.323 266.909 509.118 264.191 509.118C261.468 509.118 259.26 511.323 259.26 514.046C259.26 516.766 261.468 518.972 264.191 518.972ZM244.278 518.972C247.001 518.972 249.207 516.766 249.207 514.046C249.207 511.323 247.001 509.118 244.278 509.118C241.556 509.118 239.352 511.323 239.352 514.046C239.352 516.766 241.556 518.972 244.278 518.972ZM184.543 518.972C187.266 518.972 189.472 516.766 189.472 514.046C189.472 511.323 187.266 509.118 184.543 509.118C181.823 509.118 179.617 511.323 179.617 514.046C179.617 516.766 181.823 518.972 184.543 518.972ZM164.631 518.972C167.354 518.972 169.56 516.766 169.56 514.046C169.56 511.323 167.354 509.118 164.631 509.118C161.91 509.118 159.704 511.323 159.704 514.046C159.704 516.766 161.91 518.972 164.631 518.972ZM144.72 518.972C147.441 518.972 149.647 516.766 149.647 514.046C149.647 511.323 147.441 509.118 144.72 509.118C141.998 509.118 139.792 511.323 139.792 514.046C139.792 516.766 141.998 518.972 144.72 518.972ZM124.808 518.972C127.529 518.972 129.737 516.766 129.737 514.046C129.737 511.323 127.529 509.118 124.808 509.118C122.087 509.118 119.882 511.323 119.882 514.046C119.882 516.766 122.087 518.972 124.808 518.972ZM104.898 518.972C107.619 518.972 109.824 516.766 109.824 514.046C109.824 511.323 107.619 509.118 104.898 509.118C102.175 509.118 99.9694 511.323 99.9694 514.046C99.9694 516.766 102.175 518.972 104.898 518.972ZM84.9858 518.972C87.7065 518.972 89.9126 516.766 89.9126 514.046C89.9126 511.323 87.7065 509.118 84.9858 509.118C82.2651 509.118 80.0569 511.323 80.0569 514.046C80.0569 516.766 82.2651 518.972 84.9858 518.972ZM65.0732 518.972C67.7965 518.972 70.0017 516.766 70.0017 514.046C70.0017 511.323 67.7965 509.118 65.0732 509.118C62.3526 509.118 60.1443 511.323 60.1443 514.046C60.1443 516.766 62.3526 518.972 65.0732 518.972ZM45.1607 518.972C47.8839 518.972 50.0896 516.766 50.0896 514.046C50.0896 511.323 47.8839 509.118 45.1607 509.118C42.44 509.118 40.2343 511.323 40.2343 514.046C40.2343 516.766 42.44 518.972 45.1607 518.972ZM25.2503 518.972C27.9714 518.972 30.1792 516.766 30.1792 514.046C30.1792 511.323 27.9714 509.118 25.2503 509.118C22.5279 509.118 20.3223 511.323 20.3223 514.046C20.3223 516.766 22.5279 518.972 25.2503 518.972ZM5.33865 518.972C8.05934 518.972 10.2667 516.766 10.2667 514.046C10.2667 511.323 8.05934 509.118 5.33865 509.118C2.61712 509.118 0.411865 511.323 0.411865 514.046C0.411865 516.766 2.61712 518.972 5.33865 518.972ZM682.337 499.06C685.055 499.06 687.262 496.855 687.262 494.134C687.262 491.413 685.055 489.205 682.337 489.205C679.611 489.205 677.407 491.413 677.407 494.134C677.407 496.855 679.611 499.06 682.337 499.06ZM662.423 499.06C665.142 499.06 667.35 496.855 667.35 494.134C667.35 491.413 665.142 489.205 662.423 489.205C659.698 489.205 657.495 491.413 657.495 494.134C657.495 496.855 659.698 499.06 662.423 499.06ZM642.511 499.06C645.23 499.06 647.437 496.855 647.437 494.134C647.437 491.413 645.23 489.205 642.511 489.205C639.792 489.205 637.586 491.413 637.586 494.134C637.586 496.855 639.792 499.06 642.511 499.06ZM622.599 499.06C625.323 499.06 627.527 496.855 627.527 494.134C627.527 491.413 625.323 489.205 622.599 489.205C619.879 489.205 617.672 491.413 617.672 494.134C617.672 496.855 619.879 499.06 622.599 499.06ZM602.688 499.06C605.411 499.06 607.614 496.855 607.614 494.134C607.614 491.413 605.411 489.205 602.688 489.205C599.967 489.205 597.76 491.413 597.76 494.134C597.76 496.855 599.967 499.06 602.688 499.06ZM582.776 499.06C585.498 499.06 587.703 496.855 587.703 494.134C587.703 491.413 585.498 489.205 582.776 489.205C580.055 489.205 577.851 491.413 577.851 494.134C577.851 496.855 580.055 499.06 582.776 499.06ZM562.863 499.06C565.587 499.06 567.79 496.855 567.79 494.134C567.79 491.413 565.587 489.205 562.863 489.205C560.145 489.205 557.937 491.413 557.937 494.134C557.937 496.855 560.145 499.06 562.863 499.06ZM542.952 499.06C545.678 499.06 547.88 496.855 547.88 494.134C547.88 491.413 545.678 489.205 542.952 489.205C540.232 489.205 538.025 491.413 538.025 494.134C538.025 496.855 540.232 499.06 542.952 499.06ZM523.04 499.06C525.764 499.06 527.967 496.855 527.967 494.134C527.967 491.413 525.764 489.205 523.04 489.205C520.322 489.205 518.112 491.413 518.112 494.134C518.112 496.855 520.322 499.06 523.04 499.06ZM483.216 499.06C485.943 499.06 488.145 496.855 488.145 494.134C488.145 491.413 485.943 489.205 483.216 489.205C480.498 489.205 478.289 491.413 478.289 494.134C478.289 496.855 480.498 499.06 483.216 499.06ZM463.304 499.06C466.029 499.06 468.233 496.855 468.233 494.134C468.233 491.413 466.029 489.205 463.304 489.205C460.587 489.205 458.377 491.413 458.377 494.134C458.377 496.855 460.587 499.06 463.304 499.06ZM443.393 499.06C446.117 499.06 448.324 496.855 448.324 494.134C448.324 491.413 446.117 489.205 443.393 489.205C440.673 489.205 438.465 491.413 438.465 494.134C438.465 496.855 440.673 499.06 443.393 499.06ZM363.746 499.06C366.471 499.06 368.676 496.855 368.676 494.134C368.676 491.413 366.471 489.205 363.746 489.205C361.027 489.205 358.819 491.413 358.819 494.134C358.819 496.855 361.027 499.06 363.746 499.06ZM343.838 499.06C346.557 499.06 348.765 496.855 348.765 494.134C348.765 491.413 346.557 489.205 343.838 489.205C341.117 489.205 338.908 491.413 338.908 494.134C338.908 496.855 341.117 499.06 343.838 499.06ZM323.925 499.06C326.646 499.06 328.854 496.855 328.854 494.134C328.854 491.413 326.646 489.205 323.925 489.205C321.203 489.205 318.995 491.413 318.995 494.134C318.995 496.855 321.203 499.06 323.925 499.06ZM304.017 499.06C306.736 499.06 308.942 496.855 308.942 494.134C308.942 491.413 306.736 489.205 304.017 489.205C301.29 489.205 299.085 491.413 299.085 494.134C299.085 496.855 301.29 499.06 304.017 499.06ZM284.103 499.06C286.822 499.06 289.029 496.855 289.029 494.134C289.029 491.413 286.822 489.205 284.103 489.205C281.38 489.205 279.172 491.413 279.172 494.134C279.172 496.855 281.38 499.06 284.103 499.06ZM264.191 499.06C266.909 499.06 269.117 496.855 269.117 494.134C269.117 491.413 266.909 489.205 264.191 489.205C261.468 489.205 259.26 491.413 259.26 494.134C259.26 496.855 261.468 499.06 264.191 499.06ZM244.278 499.06C247.001 499.06 249.207 496.855 249.207 494.134C249.207 491.413 247.001 489.205 244.278 489.205C241.556 489.205 239.352 491.413 239.352 494.134C239.352 496.855 241.556 499.06 244.278 499.06ZM204.455 499.06C207.175 499.06 209.382 496.855 209.382 494.134C209.382 491.413 207.175 489.205 204.455 489.205C201.731 489.205 199.531 491.413 199.531 494.134C199.531 496.855 201.731 499.06 204.455 499.06ZM184.543 499.06C187.266 499.06 189.472 496.855 189.472 494.134C189.472 491.413 187.266 489.205 184.543 489.205C181.823 489.205 179.617 491.413 179.617 494.134C179.617 496.855 181.823 499.06 184.543 499.06ZM164.631 499.06C167.354 499.06 169.56 496.855 169.56 494.134C169.56 491.413 167.354 489.205 164.631 489.205C161.91 489.205 159.704 491.413 159.704 494.134C159.704 496.855 161.91 499.06 164.631 499.06ZM144.72 499.06C147.441 499.06 149.647 496.855 149.647 494.134C149.647 491.413 147.441 489.205 144.72 489.205C141.998 489.205 139.792 491.413 139.792 494.134C139.792 496.855 141.998 499.06 144.72 499.06ZM124.808 499.06C127.529 499.06 129.737 496.855 129.737 494.134C129.737 491.413 127.529 489.205 124.808 489.205C122.087 489.205 119.882 491.413 119.882 494.134C119.882 496.855 122.087 499.06 124.808 499.06ZM104.898 499.06C107.619 499.06 109.824 496.855 109.824 494.134C109.824 491.413 107.619 489.205 104.898 489.205C102.175 489.205 99.9694 491.413 99.9694 494.134C99.9694 496.855 102.175 499.06 104.898 499.06ZM84.9858 499.06C87.7065 499.06 89.9126 496.855 89.9126 494.134C89.9126 491.413 87.7065 489.205 84.9858 489.205C82.2651 489.205 80.0569 491.413 80.0569 494.134C80.0569 496.855 82.2651 499.06 84.9858 499.06ZM65.0732 499.06C67.7965 499.06 70.0017 496.855 70.0017 494.134C70.0017 491.413 67.7965 489.205 65.0732 489.205C62.3526 489.205 60.1443 491.413 60.1443 494.134C60.1443 496.855 62.3526 499.06 65.0732 499.06ZM45.1607 499.06C47.8839 499.06 50.0896 496.855 50.0896 494.134C50.0896 491.413 47.8839 489.205 45.1607 489.205C42.44 489.205 40.2343 491.413 40.2343 494.134C40.2343 496.855 42.44 499.06 45.1607 499.06ZM25.2503 499.06C27.9714 499.06 30.1792 496.855 30.1792 494.134C30.1792 491.413 27.9714 489.205 25.2503 489.205C22.5279 489.205 20.3223 491.413 20.3223 494.134C20.3223 496.855 22.5279 499.06 25.2503 499.06ZM5.33865 499.06C8.05934 499.06 10.2667 496.855 10.2667 494.134C10.2667 491.413 8.05934 489.205 5.33865 489.205C2.61712 489.205 0.411865 491.413 0.411865 494.134C0.411865 496.855 2.61712 499.06 5.33865 499.06ZM582.776 479.148C585.498 479.148 587.703 476.944 587.703 474.221C587.703 471.5 585.498 469.293 582.776 469.293C580.055 469.293 577.851 471.5 577.851 474.221C577.851 476.944 580.055 479.148 582.776 479.148ZM542.952 479.148C545.678 479.148 547.88 476.944 547.88 474.221C547.88 471.5 545.678 469.293 542.952 469.293C540.232 469.293 538.025 471.5 538.025 474.221C538.025 476.944 540.232 479.148 542.952 479.148ZM523.04 479.148C525.764 479.148 527.967 476.944 527.967 474.221C527.967 471.5 525.764 469.293 523.04 469.293C520.322 469.293 518.112 471.5 518.112 474.221C518.112 476.944 520.322 479.148 523.04 479.148ZM503.129 479.148C505.851 479.148 508.057 476.944 508.057 474.221C508.057 471.5 505.851 469.293 503.129 469.293C500.409 469.293 498.202 471.5 498.202 474.221C498.202 476.944 500.409 479.148 503.129 479.148ZM483.216 479.148C485.943 479.148 488.145 476.944 488.145 474.221C488.145 471.5 485.943 469.293 483.216 469.293C480.498 469.293 478.289 471.5 478.289 474.221C478.289 476.944 480.498 479.148 483.216 479.148ZM463.304 479.148C466.029 479.148 468.233 476.944 468.233 474.221C468.233 471.5 466.029 469.293 463.304 469.293C460.587 469.293 458.377 471.5 458.377 474.221C458.377 476.944 460.587 479.148 463.304 479.148ZM383.659 479.148C386.382 479.148 388.589 476.944 388.589 474.221C388.589 471.5 386.382 469.293 383.659 469.293C380.938 469.293 378.73 471.5 378.73 474.221C378.73 476.944 380.938 479.148 383.659 479.148ZM363.746 479.148C366.471 479.148 368.676 476.944 368.676 474.221C368.676 471.5 366.471 469.293 363.746 469.293C361.027 469.293 358.819 471.5 358.819 474.221C358.819 476.944 361.027 479.148 363.746 479.148ZM343.838 479.148C346.557 479.148 348.765 476.944 348.765 474.221C348.765 471.5 346.557 469.293 343.838 469.293C341.117 469.293 338.908 471.5 338.908 474.221C338.908 476.944 341.117 479.148 343.838 479.148ZM323.925 479.148C326.646 479.148 328.854 476.944 328.854 474.221C328.854 471.5 326.646 469.293 323.925 469.293C321.203 469.293 318.995 471.5 318.995 474.221C318.995 476.944 321.203 479.148 323.925 479.148ZM304.017 479.148C306.736 479.148 308.942 476.944 308.942 474.221C308.942 471.5 306.736 469.293 304.017 469.293C301.29 469.293 299.085 471.5 299.085 474.221C299.085 476.944 301.29 479.148 304.017 479.148ZM284.103 479.148C286.822 479.148 289.029 476.944 289.029 474.221C289.029 471.5 286.822 469.293 284.103 469.293C281.38 469.293 279.172 471.5 279.172 474.221C279.172 476.944 281.38 479.148 284.103 479.148ZM264.191 479.148C266.909 479.148 269.117 476.944 269.117 474.221C269.117 471.5 266.909 469.293 264.191 469.293C261.468 469.293 259.26 471.5 259.26 474.221C259.26 476.944 261.468 479.148 264.191 479.148ZM204.455 479.148C207.175 479.148 209.382 476.944 209.382 474.221C209.382 471.5 207.175 469.293 204.455 469.293C201.731 469.293 199.531 471.5 199.531 474.221C199.531 476.944 201.731 479.148 204.455 479.148ZM184.543 479.148C187.266 479.148 189.472 476.944 189.472 474.221C189.472 471.5 187.266 469.293 184.543 469.293C181.823 469.293 179.617 471.5 179.617 474.221C179.617 476.944 181.823 479.148 184.543 479.148ZM164.631 479.148C167.354 479.148 169.56 476.944 169.56 474.221C169.56 471.5 167.354 469.293 164.631 469.293C161.91 469.293 159.704 471.5 159.704 474.221C159.704 476.944 161.91 479.148 164.631 479.148ZM144.72 479.148C147.441 479.148 149.647 476.944 149.647 474.221C149.647 471.5 147.441 469.293 144.72 469.293C141.998 469.293 139.792 471.5 139.792 474.221C139.792 476.944 141.998 479.148 144.72 479.148ZM124.808 479.148C127.529 479.148 129.737 476.944 129.737 474.221C129.737 471.5 127.529 469.293 124.808 469.293C122.087 469.293 119.882 471.5 119.882 474.221C119.882 476.944 122.087 479.148 124.808 479.148ZM104.898 479.148C107.619 479.148 109.824 476.944 109.824 474.221C109.824 471.5 107.619 469.293 104.898 469.293C102.175 469.293 99.9694 471.5 99.9694 474.221C99.9694 476.944 102.175 479.148 104.898 479.148ZM84.9858 479.148C87.7065 479.148 89.9126 476.944 89.9126 474.221C89.9126 471.5 87.7065 469.293 84.9858 469.293C82.2651 469.293 80.0569 471.5 80.0569 474.221C80.0569 476.944 82.2651 479.148 84.9858 479.148ZM65.0732 479.148C67.7965 479.148 70.0017 476.944 70.0017 474.221C70.0017 471.5 67.7965 469.293 65.0732 469.293C62.3526 469.293 60.1443 471.5 60.1443 474.221C60.1443 476.944 62.3526 479.148 65.0732 479.148ZM45.1607 479.148C47.8839 479.148 50.0896 476.944 50.0896 474.221C50.0896 471.5 47.8839 469.293 45.1607 469.293C42.44 469.293 40.2343 471.5 40.2343 474.221C40.2343 476.944 42.44 479.148 45.1607 479.148ZM25.2503 479.148C27.9714 479.148 30.1792 476.944 30.1792 474.221C30.1792 471.5 27.9714 469.293 25.2503 469.293C22.5279 469.293 20.3223 471.5 20.3223 474.221C20.3223 476.944 22.5279 479.148 25.2503 479.148ZM5.33865 479.148C8.05934 479.148 10.2667 476.944 10.2667 474.221C10.2667 471.5 8.05934 469.293 5.33865 469.293C2.61712 469.293 0.411865 471.5 0.411865 474.221C0.411865 476.944 2.61712 479.148 5.33865 479.148ZM483.216 459.237C485.943 459.237 488.145 457.032 488.145 454.308C488.145 451.588 485.943 449.382 483.216 449.382C480.498 449.382 478.289 451.588 478.289 454.308C478.289 457.032 480.498 459.237 483.216 459.237ZM463.304 459.237C466.029 459.237 468.233 457.032 468.233 454.308C468.233 451.588 466.029 449.382 463.304 449.382C460.587 449.382 458.377 451.588 458.377 454.308C458.377 457.032 460.587 459.237 463.304 459.237ZM443.393 459.237C446.117 459.237 448.324 457.032 448.324 454.308C448.324 451.588 446.117 449.382 443.393 449.382C440.673 449.382 438.465 451.588 438.465 454.308C438.465 457.032 440.673 459.237 443.393 459.237ZM403.571 459.237C406.294 459.237 408.503 457.032 408.503 454.308C408.503 451.588 406.294 449.382 403.571 449.382C400.852 449.382 398.642 451.588 398.642 454.308C398.642 457.032 400.852 459.237 403.571 459.237ZM383.659 459.237C386.382 459.237 388.589 457.032 388.589 454.308C388.589 451.588 386.382 449.382 383.659 449.382C380.938 449.382 378.73 451.588 378.73 454.308C378.73 457.032 380.938 459.237 383.659 459.237ZM363.746 459.237C366.471 459.237 368.676 457.032 368.676 454.308C368.676 451.588 366.471 449.382 363.746 449.382C361.027 449.382 358.819 451.588 358.819 454.308C358.819 457.032 361.027 459.237 363.746 459.237ZM343.838 459.237C346.557 459.237 348.765 457.032 348.765 454.308C348.765 451.588 346.557 449.382 343.838 449.382C341.117 449.382 338.908 451.588 338.908 454.308C338.908 457.032 341.117 459.237 343.838 459.237ZM323.925 459.237C326.646 459.237 328.854 457.032 328.854 454.308C328.854 451.588 326.646 449.382 323.925 449.382C321.203 449.382 318.995 451.588 318.995 454.308C318.995 457.032 321.203 459.237 323.925 459.237ZM304.017 459.237C306.736 459.237 308.942 457.032 308.942 454.308C308.942 451.588 306.736 449.382 304.017 449.382C301.29 449.382 299.085 451.588 299.085 454.308C299.085 457.032 301.29 459.237 304.017 459.237ZM284.103 459.237C286.822 459.237 289.029 457.032 289.029 454.308C289.029 451.588 286.822 449.382 284.103 449.382C281.38 449.382 279.172 451.588 279.172 454.308C279.172 457.032 281.38 459.237 284.103 459.237ZM264.191 459.237C266.909 459.237 269.117 457.032 269.117 454.308C269.117 451.588 266.909 449.382 264.191 449.382C261.468 449.382 259.26 451.588 259.26 454.308C259.26 457.032 261.468 459.237 264.191 459.237ZM244.278 459.237C247.001 459.237 249.207 457.032 249.207 454.308C249.207 451.588 247.001 449.382 244.278 449.382C241.556 449.382 239.352 451.588 239.352 454.308C239.352 457.032 241.556 459.237 244.278 459.237ZM224.368 459.237C227.087 459.237 229.294 457.032 229.294 454.308C229.294 451.588 227.087 449.382 224.368 449.382C221.645 449.382 219.439 451.588 219.439 454.308C219.439 457.032 221.645 459.237 224.368 459.237ZM204.455 459.237C207.175 459.237 209.382 457.032 209.382 454.308C209.382 451.588 207.175 449.382 204.455 449.382C201.731 449.382 199.531 451.588 199.531 454.308C199.531 457.032 201.731 459.237 204.455 459.237ZM184.543 459.237C187.266 459.237 189.472 457.032 189.472 454.308C189.472 451.588 187.266 449.382 184.543 449.382C181.823 449.382 179.617 451.588 179.617 454.308C179.617 457.032 181.823 459.237 184.543 459.237ZM164.631 459.237C167.354 459.237 169.56 457.032 169.56 454.308C169.56 451.588 167.354 449.382 164.631 449.382C161.91 449.382 159.704 451.588 159.704 454.308C159.704 457.032 161.91 459.237 164.631 459.237ZM144.72 459.237C147.441 459.237 149.647 457.032 149.647 454.308C149.647 451.588 147.441 449.382 144.72 449.382C141.998 449.382 139.792 451.588 139.792 454.308C139.792 457.032 141.998 459.237 144.72 459.237ZM124.808 459.237C127.529 459.237 129.737 457.032 129.737 454.308C129.737 451.588 127.529 449.382 124.808 449.382C122.087 449.382 119.882 451.588 119.882 454.308C119.882 457.032 122.087 459.237 124.808 459.237ZM104.898 459.237C107.619 459.237 109.824 457.032 109.824 454.308C109.824 451.588 107.619 449.382 104.898 449.382C102.175 449.382 99.9694 451.588 99.9694 454.308C99.9694 457.032 102.175 459.237 104.898 459.237ZM84.9858 459.237C87.7065 459.237 89.9126 457.032 89.9126 454.308C89.9126 451.588 87.7065 449.382 84.9858 449.382C82.2651 449.382 80.0569 451.588 80.0569 454.308C80.0569 457.032 82.2651 459.237 84.9858 459.237ZM65.0732 459.237C67.7965 459.237 70.0017 457.032 70.0017 454.308C70.0017 451.588 67.7965 449.382 65.0732 449.382C62.3526 449.382 60.1443 451.588 60.1443 454.308C60.1443 457.032 62.3526 459.237 65.0732 459.237ZM45.1607 459.237C47.8839 459.237 50.0896 457.032 50.0896 454.308C50.0896 451.588 47.8839 449.382 45.1607 449.382C42.44 449.382 40.2343 451.588 40.2343 454.308C40.2343 457.032 42.44 459.237 45.1607 459.237ZM25.2503 459.237C27.9714 459.237 30.1792 457.032 30.1792 454.308C30.1792 451.588 27.9714 449.382 25.2503 449.382C22.5279 449.382 20.3223 451.588 20.3223 454.308C20.3223 457.032 22.5279 459.237 25.2503 459.237ZM5.33865 459.237C8.05934 459.237 10.2667 457.032 10.2667 454.308C10.2667 451.588 8.05934 449.382 5.33865 449.382C2.61712 449.382 0.411865 451.588 0.411865 454.308C0.411865 457.032 2.61712 459.237 5.33865 459.237ZM483.216 439.327C485.943 439.327 488.145 437.119 488.145 434.399C488.145 431.676 485.943 429.47 483.216 429.47C480.498 429.47 478.289 431.676 478.289 434.399C478.289 437.119 480.498 439.327 483.216 439.327ZM463.304 439.327C466.029 439.327 468.233 437.119 468.233 434.399C468.233 431.676 466.029 429.47 463.304 429.47C460.587 429.47 458.377 431.676 458.377 434.399C458.377 437.119 460.587 439.327 463.304 439.327ZM403.571 439.327C406.294 439.327 408.503 437.119 408.503 434.399C408.503 431.676 406.294 429.47 403.571 429.47C400.852 429.47 398.642 431.676 398.642 434.399C398.642 437.119 400.852 439.327 403.571 439.327ZM383.659 439.327C386.382 439.327 388.589 437.119 388.589 434.399C388.589 431.676 386.382 429.47 383.659 429.47C380.938 429.47 378.73 431.676 378.73 434.399C378.73 437.119 380.938 439.327 383.659 439.327ZM224.368 439.327C227.087 439.327 229.294 437.119 229.294 434.399C229.294 431.676 227.087 429.47 224.368 429.47C221.645 429.47 219.439 431.676 219.439 434.399C219.439 437.119 221.645 439.327 224.368 439.327ZM204.455 439.327C207.175 439.327 209.382 437.119 209.382 434.399C209.382 431.676 207.175 429.47 204.455 429.47C201.731 429.47 199.531 431.676 199.531 434.399C199.531 437.119 201.731 439.327 204.455 439.327ZM184.543 439.327C187.266 439.327 189.472 437.119 189.472 434.399C189.472 431.676 187.266 429.47 184.543 429.47C181.823 429.47 179.617 431.676 179.617 434.399C179.617 437.119 181.823 439.327 184.543 439.327ZM164.631 439.327C167.354 439.327 169.56 437.119 169.56 434.399C169.56 431.676 167.354 429.47 164.631 429.47C161.91 429.47 159.704 431.676 159.704 434.399C159.704 437.119 161.91 439.327 164.631 439.327ZM144.72 439.327C147.441 439.327 149.647 437.119 149.647 434.399C149.647 431.676 147.441 429.47 144.72 429.47C141.998 429.47 139.792 431.676 139.792 434.399C139.792 437.119 141.998 439.327 144.72 439.327ZM124.808 439.327C127.529 439.327 129.737 437.119 129.737 434.399C129.737 431.676 127.529 429.47 124.808 429.47C122.087 429.47 119.882 431.676 119.882 434.399C119.882 437.119 122.087 439.327 124.808 439.327ZM104.898 439.327C107.619 439.327 109.824 437.119 109.824 434.399C109.824 431.676 107.619 429.47 104.898 429.47C102.175 429.47 99.9694 431.676 99.9694 434.399C99.9694 437.119 102.175 439.327 104.898 439.327ZM84.9858 439.327C87.7065 439.327 89.9126 437.119 89.9126 434.399C89.9126 431.676 87.7065 429.47 84.9858 429.47C82.2651 429.47 80.0569 431.676 80.0569 434.399C80.0569 437.119 82.2651 439.327 84.9858 439.327ZM25.2503 439.327C27.9714 439.327 30.1792 437.119 30.1792 434.399C30.1792 431.676 27.9714 429.47 25.2503 429.47C22.5279 429.47 20.3223 431.676 20.3223 434.399C20.3223 437.119 22.5279 439.327 25.2503 439.327ZM5.33865 439.327C8.05934 439.327 10.2667 437.119 10.2667 434.399C10.2667 431.676 8.05934 429.47 5.33865 429.47C2.61712 429.47 0.411865 431.676 0.411865 434.399C0.411865 437.119 2.61712 439.327 5.33865 439.327ZM483.216 419.414C485.943 419.414 488.145 417.207 488.145 414.486C488.145 411.766 485.943 409.56 483.216 409.56C480.498 409.56 478.289 411.766 478.289 414.486C478.289 417.207 480.498 419.414 483.216 419.414ZM224.368 419.414C227.087 419.414 229.294 417.207 229.294 414.486C229.294 411.766 227.087 409.56 224.368 409.56C221.645 409.56 219.439 411.766 219.439 414.486C219.439 417.207 221.645 419.414 224.368 419.414ZM204.455 419.414C207.175 419.414 209.382 417.207 209.382 414.486C209.382 411.766 207.175 409.56 204.455 409.56C201.731 409.56 199.531 411.766 199.531 414.486C199.531 417.207 201.731 419.414 204.455 419.414ZM184.543 419.414C187.266 419.414 189.472 417.207 189.472 414.486C189.472 411.766 187.266 409.56 184.543 409.56C181.823 409.56 179.617 411.766 179.617 414.486C179.617 417.207 181.823 419.414 184.543 419.414ZM164.631 419.414C167.354 419.414 169.56 417.207 169.56 414.486C169.56 411.766 167.354 409.56 164.631 409.56C161.91 409.56 159.704 411.766 159.704 414.486C159.704 417.207 161.91 419.414 164.631 419.414ZM144.72 419.414C147.441 419.414 149.647 417.207 149.647 414.486C149.647 411.766 147.441 409.56 144.72 409.56C141.998 409.56 139.792 411.766 139.792 414.486C139.792 417.207 141.998 419.414 144.72 419.414ZM443.393 399.503C446.117 399.503 448.324 397.297 448.324 394.574C448.324 391.853 446.117 389.647 443.393 389.647C440.673 389.647 438.465 391.853 438.465 394.574C438.465 397.297 440.673 399.503 443.393 399.503ZM423.482 399.503C426.206 399.503 428.412 397.297 428.412 394.574C428.412 391.853 426.206 389.647 423.482 389.647C420.762 389.647 418.555 391.853 418.555 394.574C418.555 397.297 420.762 399.503 423.482 399.503ZM403.571 399.503C406.294 399.503 408.503 397.297 408.503 394.574C408.503 391.853 406.294 389.647 403.571 389.647C400.852 389.647 398.642 391.853 398.642 394.574C398.642 397.297 400.852 399.503 403.571 399.503ZM204.455 399.503C207.175 399.503 209.382 397.297 209.382 394.574C209.382 391.853 207.175 389.647 204.455 389.647C201.731 389.647 199.531 391.853 199.531 394.574C199.531 397.297 201.731 399.503 204.455 399.503ZM184.543 399.503C187.266 399.503 189.472 397.297 189.472 394.574C189.472 391.853 187.266 389.647 184.543 389.647C181.823 389.647 179.617 391.853 179.617 394.574C179.617 397.297 181.823 399.503 184.543 399.503ZM164.631 399.503C167.354 399.503 169.56 397.297 169.56 394.574C169.56 391.853 167.354 389.647 164.631 389.647C161.91 389.647 159.704 391.853 159.704 394.574C159.704 397.297 161.91 399.503 164.631 399.503ZM443.393 379.59C446.117 379.59 448.324 377.385 448.324 374.661C448.324 371.943 446.117 369.735 443.393 369.735C440.673 369.735 438.465 371.943 438.465 374.661C438.465 377.385 440.673 379.59 443.393 379.59ZM423.482 379.59C426.206 379.59 428.412 377.385 428.412 374.661C428.412 371.943 426.206 369.735 423.482 369.735C420.762 369.735 418.555 371.943 418.555 374.661C418.555 377.385 420.762 379.59 423.482 379.59ZM244.278 379.59C247.001 379.59 249.207 377.385 249.207 374.661C249.207 371.943 247.001 369.735 244.278 369.735C241.556 369.735 239.352 371.943 239.352 374.661C239.352 377.385 241.556 379.59 244.278 379.59ZM224.368 379.59C227.087 379.59 229.294 377.385 229.294 374.661C229.294 371.943 227.087 369.735 224.368 369.735C221.645 369.735 219.439 371.943 219.439 374.661C219.439 377.385 221.645 379.59 224.368 379.59ZM204.455 379.59C207.175 379.59 209.382 377.385 209.382 374.661C209.382 371.943 207.175 369.735 204.455 369.735C201.731 369.735 199.531 371.943 199.531 374.661C199.531 377.385 201.731 379.59 204.455 379.59ZM184.543 379.59C187.266 379.59 189.472 377.385 189.472 374.661C189.472 371.943 187.266 369.735 184.543 369.735C181.823 369.735 179.617 371.943 179.617 374.661C179.617 377.385 181.823 379.59 184.543 379.59ZM164.631 379.59C167.354 379.59 169.56 377.385 169.56 374.661C169.56 371.943 167.354 369.735 164.631 369.735C161.91 369.735 159.704 371.943 159.704 374.661C159.704 377.385 161.91 379.59 164.631 379.59ZM264.191 359.68C266.909 359.68 269.117 357.472 269.117 354.751C269.117 352.03 266.909 349.823 264.191 349.823C261.468 349.823 259.26 352.03 259.26 354.751C259.26 357.472 261.468 359.68 264.191 359.68ZM244.278 359.68C247.001 359.68 249.207 357.472 249.207 354.751C249.207 352.03 247.001 349.823 244.278 349.823C241.556 349.823 239.352 352.03 239.352 354.751C239.352 357.472 241.556 359.68 244.278 359.68ZM304.017 339.767C306.736 339.767 308.942 337.562 308.942 334.841C308.942 332.118 306.736 329.913 304.017 329.913C301.29 329.913 299.085 332.118 299.085 334.841C299.085 337.562 301.29 339.767 304.017 339.767ZM284.103 339.767C286.822 339.767 289.029 337.562 289.029 334.841C289.029 332.118 286.822 329.913 284.103 329.913C281.38 329.913 279.172 332.118 279.172 334.841C279.172 337.562 281.38 339.767 284.103 339.767ZM304.017 319.857C306.736 319.857 308.942 317.65 308.942 314.929C308.942 312.206 306.736 310 304.017 310C301.29 310 299.085 312.206 299.085 314.929C299.085 317.65 301.29 319.857 304.017 319.857Z" fill="#F2F2F2"/>
<path d="M612.544 2.77199C612.544 4.30284 611.303 5.54401 609.772 5.54401C608.241 5.54401 607 4.30284 607 2.77199C607 1.24113 608.241 0 609.772 0C611.303 0 612.544 1.24113 612.544 2.77199Z" fill="#3C4D7B"/>
<path d="M648.697 2.77199C648.697 4.30284 647.456 5.54401 645.925 5.54401C644.395 5.54401 643.154 4.30284 643.154 2.77199C643.154 1.24113 644.395 0 645.925 0C647.456 0 648.697 1.24113 648.697 2.77199Z" fill="#3C4D7B"/>
<path d="M684.852 2.77199C684.852 4.30284 683.612 5.54401 682.08 5.54401C680.549 5.54401 679.309 4.30284 679.309 2.77199C679.309 1.24113 680.549 0 682.08 0C683.612 0 684.852 1.24113 684.852 2.77199Z" fill="#3C4D7B"/>
<path d="M721.006 2.77199C721.006 4.30284 719.765 5.54401 718.234 5.54401C716.703 5.54401 715.462 4.30284 715.462 2.77199C715.462 1.24113 716.703 0 718.234 0C719.765 0 721.006 1.24113 721.006 2.77199Z" fill="#3C4D7B"/>
<path d="M612.544 38.6109C612.544 40.1418 611.303 41.3826 609.772 41.3826C608.241 41.3826 607 40.1418 607 38.6109C607 37.08 608.241 35.8389 609.772 35.8389C611.303 35.8389 612.544 37.08 612.544 38.6109Z" fill="#3C4D7B"/>
<path d="M648.697 38.6109C648.697 40.1418 647.456 41.3826 645.925 41.3826C644.395 41.3826 643.154 40.1418 643.154 38.6109C643.154 37.08 644.395 35.8389 645.925 35.8389C647.456 35.8389 648.697 37.08 648.697 38.6109Z" fill="#3C4D7B"/>
<path d="M684.852 38.6109C684.852 40.1418 683.612 41.3826 682.08 41.3826C680.549 41.3826 679.309 40.1418 679.309 38.6109C679.309 37.08 680.549 35.8389 682.08 35.8389C683.612 35.8389 684.852 37.08 684.852 38.6109Z" fill="#3C4D7B"/>
<path d="M721.006 38.6109C721.006 40.1418 719.765 41.3826 718.234 41.3826C716.703 41.3826 715.462 40.1418 715.462 38.6109C715.462 37.08 716.703 35.8389 718.234 35.8389C719.765 35.8389 721.006 37.08 721.006 38.6109Z" fill="#3C4D7B"/>
<path d="M612.544 74.4489C612.544 75.9798 611.303 77.2209 609.772 77.2209C608.241 77.2209 607 75.9798 607 74.4489C607 72.918 608.241 71.6772 609.772 71.6772C611.303 71.6772 612.544 72.918 612.544 74.4489Z" fill="#3C4D7B"/>
<path d="M648.697 74.4489C648.697 75.9798 647.456 77.2209 645.925 77.2209C644.395 77.2209 643.154 75.9798 643.154 74.4489C643.154 72.918 644.395 71.6772 645.925 71.6772C647.456 71.6772 648.697 72.918 648.697 74.4489Z" fill="#3C4D7B"/>
<path d="M684.852 74.4489C684.852 75.9798 683.612 77.2209 682.08 77.2209C680.549 77.2209 679.309 75.9798 679.309 74.4489C679.309 72.918 680.549 71.6772 682.08 71.6772C683.612 71.6772 684.852 72.918 684.852 74.4489Z" fill="#3C4D7B"/>
<path d="M721.006 74.4489C721.006 75.9798 719.765 77.2209 718.234 77.2209C716.703 77.2209 715.462 75.9798 715.462 74.4489C715.462 72.918 716.703 71.6772 718.234 71.6772C719.765 71.6772 721.006 72.918 721.006 74.4489Z" fill="#3C4D7B"/>
<path d="M612.544 110.288C612.544 111.818 611.303 113.059 609.772 113.059C608.241 113.059 607 111.818 607 110.288C607 108.757 608.241 107.516 609.772 107.516C611.303 107.516 612.544 108.757 612.544 110.288Z" fill="#3C4D7B"/>
<path d="M648.697 110.288C648.697 111.818 647.456 113.059 645.925 113.059C644.395 113.059 643.154 111.818 643.154 110.288C643.154 108.757 644.395 107.516 645.925 107.516C647.456 107.516 648.697 108.757 648.697 110.288Z" fill="#3C4D7B"/>
<path d="M684.852 110.288C684.852 111.818 683.612 113.059 682.08 113.059C680.549 113.059 679.309 111.818 679.309 110.288C679.309 108.757 680.549 107.516 682.08 107.516C683.612 107.516 684.852 108.757 684.852 110.288Z" fill="#3C4D7B"/>
<path d="M721.006 110.288C721.006 111.818 719.765 113.059 718.234 113.059C716.703 113.059 715.462 111.818 715.462 110.288C715.462 108.757 716.703 107.516 718.234 107.516C719.765 107.516 721.006 108.757 721.006 110.288Z" fill="#3C4D7B"/>
<path d="M1084.25 285.124C1084.25 286.85 1082.85 288.248 1081.12 288.248C1079.4 288.248 1078 286.85 1078 285.124C1078 283.399 1079.4 282 1081.12 282C1082.85 282 1084.25 283.399 1084.25 285.124Z" fill="#3C4D7B"/>
<path d="M1125 285.124C1125 286.85 1123.6 288.248 1121.88 288.248C1120.15 288.248 1118.75 286.85 1118.75 285.124C1118.75 283.399 1120.15 282 1121.88 282C1123.6 282 1125 283.399 1125 285.124Z" fill="#3C4D7B"/>
<path d="M1084.25 325.52C1084.25 327.245 1082.85 328.644 1081.12 328.644C1079.4 328.644 1078 327.245 1078 325.52C1078 323.794 1079.4 322.396 1081.12 322.396C1082.85 322.396 1084.25 323.794 1084.25 325.52Z" fill="#3C4D7B"/>
<path d="M1125 325.52C1125 327.245 1123.6 328.644 1121.88 328.644C1120.15 328.644 1118.75 327.245 1118.75 325.52C1118.75 323.794 1120.15 322.396 1121.88 322.396C1123.6 322.396 1125 323.794 1125 325.52Z" fill="#3C4D7B"/>
<path d="M1084.25 365.914C1084.25 367.64 1082.85 369.039 1081.12 369.039C1079.4 369.039 1078 367.64 1078 365.914C1078 364.189 1079.4 362.79 1081.12 362.79C1082.85 362.79 1084.25 364.189 1084.25 365.914Z" fill="#3C4D7B"/>
<path d="M1125 365.914C1125 367.64 1123.6 369.039 1121.88 369.039C1120.15 369.039 1118.75 367.64 1118.75 365.914C1118.75 364.189 1120.15 362.79 1121.88 362.79C1123.6 362.79 1125 364.189 1125 365.914Z" fill="#3C4D7B"/>
<path d="M1084.25 406.31C1084.25 408.036 1082.85 409.434 1081.12 409.434C1079.4 409.434 1078 408.036 1078 406.31C1078 404.585 1079.4 403.186 1081.12 403.186C1082.85 403.186 1084.25 404.585 1084.25 406.31Z" fill="#3C4D7B"/>
<path d="M1125 406.31C1125 408.036 1123.6 409.434 1121.88 409.434C1120.15 409.434 1118.75 408.036 1118.75 406.31C1118.75 404.585 1120.15 403.186 1121.88 403.186C1123.6 403.186 1125 404.585 1125 406.31Z" fill="#3C4D7B"/>
<path d="M1084.25 446.705C1084.25 448.43 1082.85 449.829 1081.12 449.829C1079.4 449.829 1078 448.43 1078 446.705C1078 444.979 1079.4 443.581 1081.12 443.581C1082.85 443.581 1084.25 444.979 1084.25 446.705Z" fill="#3C4D7B"/>
<path d="M1125 446.705C1125 448.43 1123.6 449.829 1121.88 449.829C1120.15 449.829 1118.75 448.43 1118.75 446.705C1118.75 444.979 1120.15 443.581 1121.88 443.581C1123.6 443.581 1125 444.979 1125 446.705Z" fill="#3C4D7B"/>
<path d="M1084.25 487.1C1084.25 488.826 1082.85 490.225 1081.12 490.225C1079.4 490.225 1078 488.826 1078 487.1C1078 485.375 1079.4 483.976 1081.12 483.976C1082.85 483.976 1084.25 485.375 1084.25 487.1Z" fill="#3C4D7B"/>
<path d="M1125 487.1C1125 488.826 1123.6 490.225 1121.88 490.225C1120.15 490.225 1118.75 488.826 1118.75 487.1C1118.75 485.375 1120.15 483.976 1121.88 483.976C1123.6 483.976 1125 485.375 1125 487.1Z" fill="#3C4D7B"/>
<path d="M1084.25 527.495C1084.25 529.221 1082.85 530.62 1081.12 530.62C1079.4 530.62 1078 529.221 1078 527.495C1078 525.77 1079.4 524.371 1081.12 524.371C1082.85 524.371 1084.25 525.77 1084.25 527.495Z" fill="#3C4D7B"/>
<path d="M1125 527.495C1125 529.221 1123.6 530.62 1121.88 530.62C1120.15 530.62 1118.75 529.221 1118.75 527.495C1118.75 525.77 1120.15 524.371 1121.88 524.371C1123.6 524.371 1125 525.77 1125 527.495Z" fill="#3C4D7B"/>
</svg>
