<svg width="254" height="786" viewBox="0 0 254 786" fill="none" xmlns="http://www.w3.org/2000/svg">
<path d="M252.999 1.50195C104.745 69.529 1.77026 219.26 1.77026 393.06C1.77026 566.858 104.745 716.588 252.999 784.615" stroke="#F2F2F2" stroke-width="2" stroke-miterlimit="10"/>
<path d="M252.999 31.5552C120.171 97.591 28.8766 234.651 28.8766 393.058C28.8766 551.465 120.171 688.524 252.999 754.559" stroke="#F2F2F2" stroke-width="2" stroke-miterlimit="10"/>
<path d="M252.999 62.0784C135.65 125.809 55.9843 250.13 55.9843 393.06C55.9843 535.989 135.65 660.31 252.999 724.041" stroke="#F2F2F2" stroke-width="2" stroke-miterlimit="10"/>
<path d="M252.999 93.3108C151.22 154.348 83.0913 265.74 83.0913 393.058C83.0913 520.375 151.22 631.767 252.999 692.804" stroke="#F2F2F2" stroke-width="2" stroke-miterlimit="10"/>
<path d="M253 125.405C166.88 183.236 110.199 281.524 110.199 393.058C110.199 504.591 166.88 602.879 253 660.71" stroke="#F2F2F2" stroke-width="2" stroke-miterlimit="10"/>
<path d="M253 158.78C182.667 212.71 137.305 297.582 137.305 393.061C137.305 488.54 182.667 573.41 253 627.34" stroke="#F2F2F2" stroke-width="2" stroke-miterlimit="10"/>
</svg>
