<svg width="787" height="428" viewBox="0 0 787 428" fill="none" xmlns="http://www.w3.org/2000/svg">
<path d="M284.103 9.85697C286.822 9.85697 289.029 7.6496 289.029 4.92891C289.029 2.20567 286.822 0 284.103 0C281.38 0 279.172 2.20567 279.172 4.92891C279.172 7.6496 281.38 9.85697 284.103 9.85697ZM343.838 428C346.557 428 348.765 425.794 348.765 423.073C348.765 420.351 346.557 418.145 343.838 418.145C341.117 418.145 338.908 420.351 338.908 423.073C338.908 425.794 341.117 428 343.838 428ZM323.925 428C326.646 428 328.854 425.794 328.854 423.073C328.854 420.351 326.646 418.145 323.925 418.145C321.203 418.145 318.995 420.351 318.995 423.073C318.995 425.794 321.203 428 323.925 428ZM304.017 428C306.736 428 308.942 425.794 308.942 423.073C308.942 420.351 306.736 418.145 304.017 418.145C301.29 418.145 299.085 420.351 299.085 423.073C299.085 425.794 301.29 428 304.017 428ZM383.659 408.088C386.382 408.088 388.589 405.882 388.589 403.162C388.589 400.44 386.382 398.235 383.659 398.235C380.938 398.235 378.73 400.44 378.73 403.162C378.73 405.882 380.938 408.088 383.659 408.088ZM363.746 408.088C366.471 408.088 368.676 405.882 368.676 403.162C368.676 400.44 366.471 398.235 363.746 398.235C361.027 398.235 358.819 400.44 358.819 403.162C358.819 405.882 361.027 408.088 363.746 408.088ZM343.838 408.088C346.557 408.088 348.765 405.882 348.765 403.162C348.765 400.44 346.557 398.235 343.838 398.235C341.117 398.235 338.908 400.44 338.908 403.162C338.908 405.882 341.117 408.088 343.838 408.088ZM304.017 408.088C306.736 408.088 308.942 405.882 308.942 403.162C308.942 400.44 306.736 398.235 304.017 398.235C301.29 398.235 299.085 400.44 299.085 403.162C299.085 405.882 301.29 408.088 304.017 408.088ZM284.103 408.088C286.822 408.088 289.029 405.882 289.029 403.162C289.029 400.44 286.822 398.235 284.103 398.235C281.38 398.235 279.172 400.44 279.172 403.162C279.172 405.882 281.38 408.088 284.103 408.088ZM264.191 408.088C266.909 408.088 269.117 405.882 269.117 403.162C269.117 400.44 266.909 398.235 264.191 398.235C261.468 398.235 259.26 400.44 259.26 403.162C259.26 405.882 261.468 408.088 264.191 408.088ZM244.278 408.088C247.001 408.088 249.207 405.882 249.207 403.162C249.207 400.44 247.001 398.235 244.278 398.235C241.556 398.235 239.352 400.44 239.352 403.162C239.352 405.882 241.556 408.088 244.278 408.088ZM781.894 388.178C784.614 388.178 786.824 385.972 786.824 383.249C786.824 380.528 784.614 378.322 781.894 378.322C779.17 378.322 776.967 380.528 776.967 383.249C776.967 385.972 779.17 388.178 781.894 388.178ZM383.659 388.178C386.382 388.178 388.589 385.972 388.589 383.249C388.589 380.528 386.382 378.322 383.659 378.322C380.938 378.322 378.73 380.528 378.73 383.249C378.73 385.972 380.938 388.178 383.659 388.178ZM363.746 388.178C366.471 388.178 368.676 385.972 368.676 383.249C368.676 380.528 366.471 378.322 363.746 378.322C361.027 378.322 358.819 380.528 358.819 383.249C358.819 385.972 361.027 388.178 363.746 388.178ZM343.838 388.178C346.557 388.178 348.765 385.972 348.765 383.249C348.765 380.528 346.557 378.322 343.838 378.322C341.117 378.322 338.908 380.528 338.908 383.249C338.908 385.972 341.117 388.178 343.838 388.178ZM284.103 388.178C286.822 388.178 289.029 385.972 289.029 383.249C289.029 380.528 286.822 378.322 284.103 378.322C281.38 378.322 279.172 380.528 279.172 383.249C279.172 385.972 281.38 388.178 284.103 388.178ZM264.191 388.178C266.909 388.178 269.117 385.972 269.117 383.249C269.117 380.528 266.909 378.322 264.191 378.322C261.468 378.322 259.26 380.528 259.26 383.249C259.26 385.972 261.468 388.178 264.191 388.178ZM244.278 388.178C247.001 388.178 249.207 385.972 249.207 383.249C249.207 380.528 247.001 378.322 244.278 378.322C241.556 378.322 239.352 380.528 239.352 383.249C239.352 385.972 241.556 388.178 244.278 388.178ZM224.368 388.178C227.087 388.178 229.294 385.972 229.294 383.249C229.294 380.528 227.087 378.322 224.368 378.322C221.645 378.322 219.439 380.528 219.439 383.249C219.439 385.972 221.645 388.178 224.368 388.178ZM204.455 388.178C207.175 388.178 209.382 385.972 209.382 383.249C209.382 380.528 207.175 378.322 204.455 378.322C201.731 378.322 199.531 380.528 199.531 383.249C199.531 385.972 201.731 388.178 204.455 388.178ZM184.543 388.178C187.266 388.178 189.472 385.972 189.472 383.249C189.472 380.528 187.266 378.322 184.543 378.322C181.823 378.322 179.617 380.528 179.617 383.249C179.617 385.972 181.823 388.178 184.543 388.178ZM781.894 368.267C784.614 368.267 786.824 366.059 786.824 363.339C786.824 360.615 784.614 358.41 781.894 358.41C779.17 358.41 776.967 360.615 776.967 363.339C776.967 366.059 779.17 368.267 781.894 368.267ZM761.981 368.267C764.702 368.267 766.909 366.059 766.909 363.339C766.909 360.615 764.702 358.41 761.981 358.41C759.258 358.41 757.054 360.615 757.054 363.339C757.054 366.059 759.258 368.267 761.981 368.267ZM742.071 368.267C744.789 368.267 746.997 366.059 746.997 363.339C746.997 360.615 744.789 358.41 742.071 358.41C739.347 358.41 737.142 360.615 737.142 363.339C737.142 366.059 739.347 368.267 742.071 368.267ZM722.158 368.267C724.878 368.267 727.085 366.059 727.085 363.339C727.085 360.615 724.878 358.41 722.158 358.41C719.436 358.41 717.231 360.615 717.231 363.339C717.231 366.059 719.436 368.267 722.158 368.267ZM702.246 368.267C704.967 368.267 707.174 366.059 707.174 363.339C707.174 360.615 704.967 358.41 702.246 358.41C699.523 358.41 697.32 360.615 697.32 363.339C697.32 366.059 699.523 368.267 702.246 368.267ZM542.952 368.267C545.678 368.267 547.88 366.059 547.88 363.339C547.88 360.615 545.678 358.41 542.952 358.41C540.232 358.41 538.025 360.615 538.025 363.339C538.025 366.059 540.232 368.267 542.952 368.267ZM503.129 368.267C505.851 368.267 508.057 366.059 508.057 363.339C508.057 360.615 505.851 358.41 503.129 358.41C500.409 358.41 498.202 360.615 498.202 363.339C498.202 366.059 500.409 368.267 503.129 368.267ZM483.216 368.267C485.943 368.267 488.145 366.059 488.145 363.339C488.145 360.615 485.943 358.41 483.216 358.41C480.498 358.41 478.289 360.615 478.289 363.339C478.289 366.059 480.498 368.267 483.216 368.267ZM463.304 368.267C466.029 368.267 468.233 366.059 468.233 363.339C468.233 360.615 466.029 358.41 463.304 358.41C460.587 358.41 458.377 360.615 458.377 363.339C458.377 366.059 460.587 368.267 463.304 368.267ZM443.393 368.267C446.117 368.267 448.324 366.059 448.324 363.339C448.324 360.615 446.117 358.41 443.393 358.41C440.673 358.41 438.465 360.615 438.465 363.339C438.465 366.059 440.673 368.267 443.393 368.267ZM403.571 368.267C406.294 368.267 408.503 366.059 408.503 363.339C408.503 360.615 406.294 358.41 403.571 358.41C400.852 358.41 398.642 360.615 398.642 363.339C398.642 366.059 400.852 368.267 403.571 368.267ZM383.659 368.267C386.382 368.267 388.589 366.059 388.589 363.339C388.589 360.615 386.382 358.41 383.659 358.41C380.938 358.41 378.73 360.615 378.73 363.339C378.73 366.059 380.938 368.267 383.659 368.267ZM363.746 368.267C366.471 368.267 368.676 366.059 368.676 363.339C368.676 360.615 366.471 358.41 363.746 358.41C361.027 358.41 358.819 360.615 358.819 363.339C358.819 366.059 361.027 368.267 363.746 368.267ZM343.838 368.267C346.557 368.267 348.765 366.059 348.765 363.339C348.765 360.615 346.557 358.41 343.838 358.41C341.117 358.41 338.908 360.615 338.908 363.339C338.908 366.059 341.117 368.267 343.838 368.267ZM323.925 368.267C326.646 368.267 328.854 366.059 328.854 363.339C328.854 360.615 326.646 358.41 323.925 358.41C321.203 358.41 318.995 360.615 318.995 363.339C318.995 366.059 321.203 368.267 323.925 368.267ZM304.017 368.267C306.736 368.267 308.942 366.059 308.942 363.339C308.942 360.615 306.736 358.41 304.017 358.41C301.29 358.41 299.085 360.615 299.085 363.339C299.085 366.059 301.29 368.267 304.017 368.267ZM284.103 368.267C286.822 368.267 289.029 366.059 289.029 363.339C289.029 360.615 286.822 358.41 284.103 358.41C281.38 358.41 279.172 360.615 279.172 363.339C279.172 366.059 281.38 368.267 284.103 368.267ZM264.191 368.267C266.909 368.267 269.117 366.059 269.117 363.339C269.117 360.615 266.909 358.41 264.191 358.41C261.468 358.41 259.26 360.615 259.26 363.339C259.26 366.059 261.468 368.267 264.191 368.267ZM244.278 368.267C247.001 368.267 249.207 366.059 249.207 363.339C249.207 360.615 247.001 358.41 244.278 358.41C241.556 358.41 239.352 360.615 239.352 363.339C239.352 366.059 241.556 368.267 244.278 368.267ZM224.368 368.267C227.087 368.267 229.294 366.059 229.294 363.339C229.294 360.615 227.087 358.41 224.368 358.41C221.645 358.41 219.439 360.615 219.439 363.339C219.439 366.059 221.645 368.267 224.368 368.267ZM204.455 368.267C207.175 368.267 209.382 366.059 209.382 363.339C209.382 360.615 207.175 358.41 204.455 358.41C201.731 358.41 199.531 360.615 199.531 363.339C199.531 366.059 201.731 368.267 204.455 368.267ZM184.543 368.267C187.266 368.267 189.472 366.059 189.472 363.339C189.472 360.615 187.266 358.41 184.543 358.41C181.823 358.41 179.617 360.615 179.617 363.339C179.617 366.059 181.823 368.267 184.543 368.267ZM164.631 368.267C167.354 368.267 169.56 366.059 169.56 363.339C169.56 360.615 167.354 358.41 164.631 358.41C161.91 358.41 159.704 360.615 159.704 363.339C159.704 366.059 161.91 368.267 164.631 368.267ZM144.72 368.267C147.441 368.267 149.647 366.059 149.647 363.339C149.647 360.615 147.441 358.41 144.72 358.41C141.998 358.41 139.792 360.615 139.792 363.339C139.792 366.059 141.998 368.267 144.72 368.267ZM124.808 368.267C127.529 368.267 129.737 366.059 129.737 363.339C129.737 360.615 127.529 358.41 124.808 358.41C122.087 358.41 119.882 360.615 119.882 363.339C119.882 366.059 122.087 368.267 124.808 368.267ZM104.898 368.267C107.619 368.267 109.824 366.059 109.824 363.339C109.824 360.615 107.619 358.41 104.898 358.41C102.175 358.41 99.9694 360.615 99.9694 363.339C99.9694 366.059 102.175 368.267 104.898 368.267ZM84.9858 368.267C87.7065 368.267 89.9126 366.059 89.9126 363.339C89.9126 360.615 87.7065 358.41 84.9858 358.41C82.2651 358.41 80.0569 360.615 80.0569 363.339C80.0569 366.059 82.2651 368.267 84.9858 368.267ZM65.0732 368.267C67.7965 368.267 70.0017 366.059 70.0017 363.339C70.0017 360.615 67.7965 358.41 65.0732 358.41C62.3526 358.41 60.1443 360.615 60.1443 363.339C60.1443 366.059 62.3526 368.267 65.0732 368.267ZM45.1607 368.267C47.8839 368.267 50.0896 366.059 50.0896 363.339C50.0896 360.615 47.8839 358.41 45.1607 358.41C42.44 358.41 40.2343 360.615 40.2343 363.339C40.2343 366.059 42.44 368.267 45.1607 368.267ZM25.2503 368.267C27.9714 368.267 30.1792 366.059 30.1792 363.339C30.1792 360.615 27.9714 358.41 25.2503 358.41C22.5279 358.41 20.3223 360.615 20.3223 363.339C20.3223 366.059 22.5279 368.267 25.2503 368.267ZM781.894 348.355C784.614 348.355 786.824 346.147 786.824 343.426C786.824 340.704 784.614 338.498 781.894 338.498C779.17 338.498 776.967 340.704 776.967 343.426C776.967 346.147 779.17 348.355 781.894 348.355ZM761.981 348.355C764.702 348.355 766.909 346.147 766.909 343.426C766.909 340.704 764.702 338.498 761.981 338.498C759.258 338.498 757.054 340.704 757.054 343.426C757.054 346.147 759.258 348.355 761.981 348.355ZM742.071 348.355C744.789 348.355 746.997 346.147 746.997 343.426C746.997 340.704 744.789 338.498 742.071 338.498C739.347 338.498 737.142 340.704 737.142 343.426C737.142 346.147 739.347 348.355 742.071 348.355ZM722.158 348.355C724.878 348.355 727.085 346.147 727.085 343.426C727.085 340.704 724.878 338.498 722.158 338.498C719.436 338.498 717.231 340.704 717.231 343.426C717.231 346.147 719.436 348.355 722.158 348.355ZM702.246 348.355C704.967 348.355 707.174 346.147 707.174 343.426C707.174 340.704 704.967 338.498 702.246 338.498C699.523 338.498 697.32 340.704 697.32 343.426C697.32 346.147 699.523 348.355 702.246 348.355ZM562.863 348.355C565.587 348.355 567.79 346.147 567.79 343.426C567.79 340.704 565.587 338.498 562.863 338.498C560.145 338.498 557.937 340.704 557.937 343.426C557.937 346.147 560.145 348.355 562.863 348.355ZM542.952 348.355C545.678 348.355 547.88 346.147 547.88 343.426C547.88 340.704 545.678 338.498 542.952 338.498C540.232 338.498 538.025 340.704 538.025 343.426C538.025 346.147 540.232 348.355 542.952 348.355ZM523.04 348.355C525.764 348.355 527.967 346.147 527.967 343.426C527.967 340.704 525.764 338.498 523.04 338.498C520.322 338.498 518.112 340.704 518.112 343.426C518.112 346.147 520.322 348.355 523.04 348.355ZM503.129 348.355C505.851 348.355 508.057 346.147 508.057 343.426C508.057 340.704 505.851 338.498 503.129 338.498C500.409 338.498 498.202 340.704 498.202 343.426C498.202 346.147 500.409 348.355 503.129 348.355ZM443.393 348.355C446.117 348.355 448.324 346.147 448.324 343.426C448.324 340.704 446.117 338.498 443.393 338.498C440.673 338.498 438.465 340.704 438.465 343.426C438.465 346.147 440.673 348.355 443.393 348.355ZM423.482 348.355C426.206 348.355 428.412 346.147 428.412 343.426C428.412 340.704 426.206 338.498 423.482 338.498C420.762 338.498 418.555 340.704 418.555 343.426C418.555 346.147 420.762 348.355 423.482 348.355ZM403.571 348.355C406.294 348.355 408.503 346.147 408.503 343.426C408.503 340.704 406.294 338.498 403.571 338.498C400.852 338.498 398.642 340.704 398.642 343.426C398.642 346.147 400.852 348.355 403.571 348.355ZM343.838 348.355C346.557 348.355 348.765 346.147 348.765 343.426C348.765 340.704 346.557 338.498 343.838 338.498C341.117 338.498 338.908 340.704 338.908 343.426C338.908 346.147 341.117 348.355 343.838 348.355ZM323.925 348.355C326.646 348.355 328.854 346.147 328.854 343.426C328.854 340.704 326.646 338.498 323.925 338.498C321.203 338.498 318.995 340.704 318.995 343.426C318.995 346.147 321.203 348.355 323.925 348.355ZM204.455 348.355C207.175 348.355 209.382 346.147 209.382 343.426C209.382 340.704 207.175 338.498 204.455 338.498C201.731 338.498 199.531 340.704 199.531 343.426C199.531 346.147 201.731 348.355 204.455 348.355ZM164.631 348.355C167.354 348.355 169.56 346.147 169.56 343.426C169.56 340.704 167.354 338.498 164.631 338.498C161.91 338.498 159.704 340.704 159.704 343.426C159.704 346.147 161.91 348.355 164.631 348.355ZM144.72 348.355C147.441 348.355 149.647 346.147 149.647 343.426C149.647 340.704 147.441 338.498 144.72 338.498C141.998 338.498 139.792 340.704 139.792 343.426C139.792 346.147 141.998 348.355 144.72 348.355ZM124.808 348.355C127.529 348.355 129.737 346.147 129.737 343.426C129.737 340.704 127.529 338.498 124.808 338.498C122.087 338.498 119.882 340.704 119.882 343.426C119.882 346.147 122.087 348.355 124.808 348.355ZM104.898 348.355C107.619 348.355 109.824 346.147 109.824 343.426C109.824 340.704 107.619 338.498 104.898 338.498C102.175 338.498 99.9694 340.704 99.9694 343.426C99.9694 346.147 102.175 348.355 104.898 348.355ZM84.9858 348.355C87.7065 348.355 89.9126 346.147 89.9126 343.426C89.9126 340.704 87.7065 338.498 84.9858 338.498C82.2651 338.498 80.0569 340.704 80.0569 343.426C80.0569 346.147 82.2651 348.355 84.9858 348.355ZM65.0732 348.355C67.7965 348.355 70.0017 346.147 70.0017 343.426C70.0017 340.704 67.7965 338.498 65.0732 338.498C62.3526 338.498 60.1443 340.704 60.1443 343.426C60.1443 346.147 62.3526 348.355 65.0732 348.355ZM45.1607 348.355C47.8839 348.355 50.0896 346.147 50.0896 343.426C50.0896 340.704 47.8839 338.498 45.1607 338.498C42.44 338.498 40.2343 340.704 40.2343 343.426C40.2343 346.147 42.44 348.355 45.1607 348.355ZM25.2503 348.355C27.9714 348.355 30.1792 346.147 30.1792 343.426C30.1792 340.704 27.9714 338.498 25.2503 338.498C22.5279 338.498 20.3223 340.704 20.3223 343.426C20.3223 346.147 22.5279 348.355 25.2503 348.355ZM5.33865 348.355C8.05934 348.355 10.2667 346.147 10.2667 343.426C10.2667 340.704 8.05934 338.498 5.33865 338.498C2.61712 338.498 0.411865 340.704 0.411865 343.426C0.411865 346.147 2.61712 348.355 5.33865 348.355ZM781.894 328.442C784.614 328.442 786.824 326.235 786.824 323.514C786.824 320.793 784.614 318.588 781.894 318.588C779.17 318.588 776.967 320.793 776.967 323.514C776.967 326.235 779.17 328.442 781.894 328.442ZM761.981 328.442C764.702 328.442 766.909 326.235 766.909 323.514C766.909 320.793 764.702 318.588 761.981 318.588C759.258 318.588 757.054 320.793 757.054 323.514C757.054 326.235 759.258 328.442 761.981 328.442ZM742.071 328.442C744.789 328.442 746.997 326.235 746.997 323.514C746.997 320.793 744.789 318.588 742.071 318.588C739.347 318.588 737.142 320.793 737.142 323.514C737.142 326.235 739.347 328.442 742.071 328.442ZM722.158 328.442C724.878 328.442 727.085 326.235 727.085 323.514C727.085 320.793 724.878 318.588 722.158 318.588C719.436 318.588 717.231 320.793 717.231 323.514C717.231 326.235 719.436 328.442 722.158 328.442ZM622.599 328.442C625.323 328.442 627.527 326.235 627.527 323.514C627.527 320.793 625.323 318.588 622.599 318.588C619.879 318.588 617.672 320.793 617.672 323.514C617.672 326.235 619.879 328.442 622.599 328.442ZM562.863 328.442C565.587 328.442 567.79 326.235 567.79 323.514C567.79 320.793 565.587 318.588 562.863 318.588C560.145 318.588 557.937 320.793 557.937 323.514C557.937 326.235 560.145 328.442 562.863 328.442ZM542.952 328.442C545.678 328.442 547.88 326.235 547.88 323.514C547.88 320.793 545.678 318.588 542.952 318.588C540.232 318.588 538.025 320.793 538.025 323.514C538.025 326.235 540.232 328.442 542.952 328.442ZM503.129 328.442C505.851 328.442 508.057 326.235 508.057 323.514C508.057 320.793 505.851 318.588 503.129 318.588C500.409 318.588 498.202 320.793 498.202 323.514C498.202 326.235 500.409 328.442 503.129 328.442ZM483.216 328.442C485.943 328.442 488.145 326.235 488.145 323.514C488.145 320.793 485.943 318.588 483.216 318.588C480.498 318.588 478.289 320.793 478.289 323.514C478.289 326.235 480.498 328.442 483.216 328.442ZM284.103 328.442C286.822 328.442 289.029 326.235 289.029 323.514C289.029 320.793 286.822 318.588 284.103 318.588C281.38 318.588 279.172 320.793 279.172 323.514C279.172 326.235 281.38 328.442 284.103 328.442ZM144.72 328.442C147.441 328.442 149.647 326.235 149.647 323.514C149.647 320.793 147.441 318.588 144.72 318.588C141.998 318.588 139.792 320.793 139.792 323.514C139.792 326.235 141.998 328.442 144.72 328.442ZM124.808 328.442C127.529 328.442 129.737 326.235 129.737 323.514C129.737 320.793 127.529 318.588 124.808 318.588C122.087 318.588 119.882 320.793 119.882 323.514C119.882 326.235 122.087 328.442 124.808 328.442ZM104.898 328.442C107.619 328.442 109.824 326.235 109.824 323.514C109.824 320.793 107.619 318.588 104.898 318.588C102.175 318.588 99.9694 320.793 99.9694 323.514C99.9694 326.235 102.175 328.442 104.898 328.442ZM84.9858 328.442C87.7065 328.442 89.9126 326.235 89.9126 323.514C89.9126 320.793 87.7065 318.588 84.9858 318.588C82.2651 318.588 80.0569 320.793 80.0569 323.514C80.0569 326.235 82.2651 328.442 84.9858 328.442ZM65.0732 328.442C67.7965 328.442 70.0017 326.235 70.0017 323.514C70.0017 320.793 67.7965 318.588 65.0732 318.588C62.3526 318.588 60.1443 320.793 60.1443 323.514C60.1443 326.235 62.3526 328.442 65.0732 328.442ZM45.1607 328.442C47.8839 328.442 50.0896 326.235 50.0896 323.514C50.0896 320.793 47.8839 318.588 45.1607 318.588C42.44 318.588 40.2343 320.793 40.2343 323.514C40.2343 326.235 42.44 328.442 45.1607 328.442ZM25.2503 328.442C27.9714 328.442 30.1792 326.235 30.1792 323.514C30.1792 320.793 27.9714 318.588 25.2503 318.588C22.5279 318.588 20.3223 320.793 20.3223 323.514C20.3223 326.235 22.5279 328.442 25.2503 328.442ZM5.33865 328.442C8.05934 328.442 10.2667 326.235 10.2667 323.514C10.2667 320.793 8.05934 318.588 5.33865 318.588C2.61712 318.588 0.411865 320.793 0.411865 323.514C0.411865 326.235 2.61712 328.442 5.33865 328.442ZM781.894 308.532C784.614 308.532 786.824 306.325 786.824 303.601C786.824 300.881 784.614 298.675 781.894 298.675C779.17 298.675 776.967 300.881 776.967 303.601C776.967 306.325 779.17 308.532 781.894 308.532ZM761.981 308.532C764.702 308.532 766.909 306.325 766.909 303.601C766.909 300.881 764.702 298.675 761.981 298.675C759.258 298.675 757.054 300.881 757.054 303.601C757.054 306.325 759.258 308.532 761.981 308.532ZM742.071 308.532C744.789 308.532 746.997 306.325 746.997 303.601C746.997 300.881 744.789 298.675 742.071 298.675C739.347 298.675 737.142 300.881 737.142 303.601C737.142 306.325 739.347 308.532 742.071 308.532ZM722.158 308.532C724.878 308.532 727.085 306.325 727.085 303.601C727.085 300.881 724.878 298.675 722.158 298.675C719.436 298.675 717.231 300.881 717.231 303.601C717.231 306.325 719.436 308.532 722.158 308.532ZM622.599 308.532C625.323 308.532 627.527 306.325 627.527 303.601C627.527 300.881 625.323 298.675 622.599 298.675C619.879 298.675 617.672 300.881 617.672 303.601C617.672 306.325 619.879 308.532 622.599 308.532ZM582.776 308.532C585.498 308.532 587.703 306.325 587.703 303.601C587.703 300.881 585.498 298.675 582.776 298.675C580.055 298.675 577.851 300.881 577.851 303.601C577.851 306.325 580.055 308.532 582.776 308.532ZM523.04 308.532C525.764 308.532 527.967 306.325 527.967 303.601C527.967 300.881 525.764 298.675 523.04 298.675C520.322 298.675 518.112 300.881 518.112 303.601C518.112 306.325 520.322 308.532 523.04 308.532ZM503.129 308.532C505.851 308.532 508.057 306.325 508.057 303.601C508.057 300.881 505.851 298.675 503.129 298.675C500.409 298.675 498.202 300.881 498.202 303.601C498.202 306.325 500.409 308.532 503.129 308.532ZM343.838 308.532C346.557 308.532 348.765 306.325 348.765 303.601C348.765 300.881 346.557 298.675 343.838 298.675C341.117 298.675 338.908 300.881 338.908 303.601C338.908 306.325 341.117 308.532 343.838 308.532ZM323.925 308.532C326.646 308.532 328.854 306.325 328.854 303.601C328.854 300.881 326.646 298.675 323.925 298.675C321.203 298.675 318.995 300.881 318.995 303.601C318.995 306.325 321.203 308.532 323.925 308.532ZM284.103 308.532C286.822 308.532 289.029 306.325 289.029 303.601C289.029 300.881 286.822 298.675 284.103 298.675C281.38 298.675 279.172 300.881 279.172 303.601C279.172 306.325 281.38 308.532 284.103 308.532ZM264.191 308.532C266.909 308.532 269.117 306.325 269.117 303.601C269.117 300.881 266.909 298.675 264.191 298.675C261.468 298.675 259.26 300.881 259.26 303.601C259.26 306.325 261.468 308.532 264.191 308.532ZM244.278 308.532C247.001 308.532 249.207 306.325 249.207 303.601C249.207 300.881 247.001 298.675 244.278 298.675C241.556 298.675 239.352 300.881 239.352 303.601C239.352 306.325 241.556 308.532 244.278 308.532ZM45.1607 308.532C47.8839 308.532 50.0896 306.325 50.0896 303.601C50.0896 300.881 47.8839 298.675 45.1607 298.675C42.44 298.675 40.2343 300.881 40.2343 303.601C40.2343 306.325 42.44 308.532 45.1607 308.532ZM781.894 288.62C784.614 288.62 786.824 286.414 786.824 283.691C786.824 280.97 784.614 278.763 781.894 278.763C779.17 278.763 776.967 280.97 776.967 283.691C776.967 286.414 779.17 288.62 781.894 288.62ZM761.981 288.62C764.702 288.62 766.909 286.414 766.909 283.691C766.909 280.97 764.702 278.763 761.981 278.763C759.258 278.763 757.054 280.97 757.054 283.691C757.054 286.414 759.258 288.62 761.981 288.62ZM742.071 288.62C744.789 288.62 746.997 286.414 746.997 283.691C746.997 280.97 744.789 278.763 742.071 278.763C739.347 278.763 737.142 280.97 737.142 283.691C737.142 286.414 739.347 288.62 742.071 288.62ZM722.158 288.62C724.878 288.62 727.085 286.414 727.085 283.691C727.085 280.97 724.878 278.763 722.158 278.763C719.436 278.763 717.231 280.97 717.231 283.691C717.231 286.414 719.436 288.62 722.158 288.62ZM702.246 288.62C704.967 288.62 707.174 286.414 707.174 283.691C707.174 280.97 704.967 278.763 702.246 278.763C699.523 278.763 697.32 280.97 697.32 283.691C697.32 286.414 699.523 288.62 702.246 288.62ZM682.337 288.62C685.055 288.62 687.262 286.414 687.262 283.691C687.262 280.97 685.055 278.763 682.337 278.763C679.611 278.763 677.407 280.97 677.407 283.691C677.407 286.414 679.611 288.62 682.337 288.62ZM662.423 288.62C665.142 288.62 667.35 286.414 667.35 283.691C667.35 280.97 665.142 278.763 662.423 278.763C659.698 278.763 657.495 280.97 657.495 283.691C657.495 286.414 659.698 288.62 662.423 288.62ZM622.599 288.62C625.323 288.62 627.527 286.414 627.527 283.691C627.527 280.97 625.323 278.763 622.599 278.763C619.879 278.763 617.672 280.97 617.672 283.691C617.672 286.414 619.879 288.62 622.599 288.62ZM582.776 288.62C585.498 288.62 587.703 286.414 587.703 283.691C587.703 280.97 585.498 278.763 582.776 278.763C580.055 278.763 577.851 280.97 577.851 283.691C577.851 286.414 580.055 288.62 582.776 288.62ZM343.838 288.62C346.557 288.62 348.765 286.414 348.765 283.691C348.765 280.97 346.557 278.763 343.838 278.763C341.117 278.763 338.908 280.97 338.908 283.691C338.908 286.414 341.117 288.62 343.838 288.62ZM323.925 288.62C326.646 288.62 328.854 286.414 328.854 283.691C328.854 280.97 326.646 278.763 323.925 278.763C321.203 278.763 318.995 280.97 318.995 283.691C318.995 286.414 321.203 288.62 323.925 288.62ZM304.017 288.62C306.736 288.62 308.942 286.414 308.942 283.691C308.942 280.97 306.736 278.763 304.017 278.763C301.29 278.763 299.085 280.97 299.085 283.691C299.085 286.414 301.29 288.62 304.017 288.62ZM284.103 288.62C286.822 288.62 289.029 286.414 289.029 283.691C289.029 280.97 286.822 278.763 284.103 278.763C281.38 278.763 279.172 280.97 279.172 283.691C279.172 286.414 281.38 288.62 284.103 288.62ZM264.191 288.62C266.909 288.62 269.117 286.414 269.117 283.691C269.117 280.97 266.909 278.763 264.191 278.763C261.468 278.763 259.26 280.97 259.26 283.691C259.26 286.414 261.468 288.62 264.191 288.62ZM244.278 288.62C247.001 288.62 249.207 286.414 249.207 283.691C249.207 280.97 247.001 278.763 244.278 278.763C241.556 278.763 239.352 280.97 239.352 283.691C239.352 286.414 241.556 288.62 244.278 288.62ZM781.894 268.707C784.614 268.707 786.824 266.502 786.824 263.781C786.824 261.058 784.614 258.852 781.894 258.852C779.17 258.852 776.967 261.058 776.967 263.781C776.967 266.502 779.17 268.707 781.894 268.707ZM761.981 268.707C764.702 268.707 766.909 266.502 766.909 263.781C766.909 261.058 764.702 258.852 761.981 258.852C759.258 258.852 757.054 261.058 757.054 263.781C757.054 266.502 759.258 268.707 761.981 268.707ZM742.071 268.707C744.789 268.707 746.997 266.502 746.997 263.781C746.997 261.058 744.789 258.852 742.071 258.852C739.347 258.852 737.142 261.058 737.142 263.781C737.142 266.502 739.347 268.707 742.071 268.707ZM722.158 268.707C724.878 268.707 727.085 266.502 727.085 263.781C727.085 261.058 724.878 258.852 722.158 258.852C719.436 258.852 717.231 261.058 717.231 263.781C717.231 266.502 719.436 268.707 722.158 268.707ZM702.246 268.707C704.967 268.707 707.174 266.502 707.174 263.781C707.174 261.058 704.967 258.852 702.246 258.852C699.523 258.852 697.32 261.058 697.32 263.781C697.32 266.502 699.523 268.707 702.246 268.707ZM682.337 268.707C685.055 268.707 687.262 266.502 687.262 263.781C687.262 261.058 685.055 258.852 682.337 258.852C679.611 258.852 677.407 261.058 677.407 263.781C677.407 266.502 679.611 268.707 682.337 268.707ZM662.423 268.707C665.142 268.707 667.35 266.502 667.35 263.781C667.35 261.058 665.142 258.852 662.423 258.852C659.698 258.852 657.495 261.058 657.495 263.781C657.495 266.502 659.698 268.707 662.423 268.707ZM642.511 268.707C645.23 268.707 647.437 266.502 647.437 263.781C647.437 261.058 645.23 258.852 642.511 258.852C639.792 258.852 637.586 261.058 637.586 263.781C637.586 266.502 639.792 268.707 642.511 268.707ZM622.599 268.707C625.323 268.707 627.527 266.502 627.527 263.781C627.527 261.058 625.323 258.852 622.599 258.852C619.879 258.852 617.672 261.058 617.672 263.781C617.672 266.502 619.879 268.707 622.599 268.707ZM602.688 268.707C605.411 268.707 607.614 266.502 607.614 263.781C607.614 261.058 605.411 258.852 602.688 258.852C599.967 258.852 597.76 261.058 597.76 263.781C597.76 266.502 599.967 268.707 602.688 268.707ZM582.776 268.707C585.498 268.707 587.703 266.502 587.703 263.781C587.703 261.058 585.498 258.852 582.776 258.852C580.055 258.852 577.851 261.058 577.851 263.781C577.851 266.502 580.055 268.707 582.776 268.707ZM542.952 268.707C545.678 268.707 547.88 266.502 547.88 263.781C547.88 261.058 545.678 258.852 542.952 258.852C540.232 258.852 538.025 261.058 538.025 263.781C538.025 266.502 540.232 268.707 542.952 268.707ZM523.04 268.707C525.764 268.707 527.967 266.502 527.967 263.781C527.967 261.058 525.764 258.852 523.04 258.852C520.322 258.852 518.112 261.058 518.112 263.781C518.112 266.502 520.322 268.707 523.04 268.707ZM463.304 268.707C466.029 268.707 468.233 266.502 468.233 263.781C468.233 261.058 466.029 258.852 463.304 258.852C460.587 258.852 458.377 261.058 458.377 263.781C458.377 266.502 460.587 268.707 463.304 268.707ZM443.393 268.707C446.117 268.707 448.324 266.502 448.324 263.781C448.324 261.058 446.117 258.852 443.393 258.852C440.673 258.852 438.465 261.058 438.465 263.781C438.465 266.502 440.673 268.707 443.393 268.707ZM423.482 268.707C426.206 268.707 428.412 266.502 428.412 263.781C428.412 261.058 426.206 258.852 423.482 258.852C420.762 258.852 418.555 261.058 418.555 263.781C418.555 266.502 420.762 268.707 423.482 268.707ZM343.838 268.707C346.557 268.707 348.765 266.502 348.765 263.781C348.765 261.058 346.557 258.852 343.838 258.852C341.117 258.852 338.908 261.058 338.908 263.781C338.908 266.502 341.117 268.707 343.838 268.707ZM323.925 268.707C326.646 268.707 328.854 266.502 328.854 263.781C328.854 261.058 326.646 258.852 323.925 258.852C321.203 258.852 318.995 261.058 318.995 263.781C318.995 266.502 321.203 268.707 323.925 268.707ZM304.017 268.707C306.736 268.707 308.942 266.502 308.942 263.781C308.942 261.058 306.736 258.852 304.017 258.852C301.29 258.852 299.085 261.058 299.085 263.781C299.085 266.502 301.29 268.707 304.017 268.707ZM284.103 268.707C286.822 268.707 289.029 266.502 289.029 263.781C289.029 261.058 286.822 258.852 284.103 258.852C281.38 258.852 279.172 261.058 279.172 263.781C279.172 266.502 281.38 268.707 284.103 268.707ZM264.191 268.707C266.909 268.707 269.117 266.502 269.117 263.781C269.117 261.058 266.909 258.852 264.191 258.852C261.468 258.852 259.26 261.058 259.26 263.781C259.26 266.502 261.468 268.707 264.191 268.707ZM244.278 268.707C247.001 268.707 249.207 266.502 249.207 263.781C249.207 261.058 247.001 258.852 244.278 258.852C241.556 258.852 239.352 261.058 239.352 263.781C239.352 266.502 241.556 268.707 244.278 268.707ZM184.543 268.707C187.266 268.707 189.472 266.502 189.472 263.781C189.472 261.058 187.266 258.852 184.543 258.852C181.823 258.852 179.617 261.058 179.617 263.781C179.617 266.502 181.823 268.707 184.543 268.707ZM164.631 268.707C167.354 268.707 169.56 266.502 169.56 263.781C169.56 261.058 167.354 258.852 164.631 258.852C161.91 258.852 159.704 261.058 159.704 263.781C159.704 266.502 161.91 268.707 164.631 268.707ZM144.72 268.707C147.441 268.707 149.647 266.502 149.647 263.781C149.647 261.058 147.441 258.852 144.72 258.852C141.998 258.852 139.792 261.058 139.792 263.781C139.792 266.502 141.998 268.707 144.72 268.707ZM124.808 268.707C127.529 268.707 129.737 266.502 129.737 263.781C129.737 261.058 127.529 258.852 124.808 258.852C122.087 258.852 119.882 261.058 119.882 263.781C119.882 266.502 122.087 268.707 124.808 268.707ZM781.894 248.795C784.614 248.795 786.824 246.589 786.824 243.869C786.824 241.147 784.614 238.94 781.894 238.94C779.17 238.94 776.967 241.147 776.967 243.869C776.967 246.589 779.17 248.795 781.894 248.795ZM761.981 248.795C764.702 248.795 766.909 246.589 766.909 243.869C766.909 241.147 764.702 238.94 761.981 238.94C759.258 238.94 757.054 241.147 757.054 243.869C757.054 246.589 759.258 248.795 761.981 248.795ZM742.071 248.795C744.789 248.795 746.997 246.589 746.997 243.869C746.997 241.147 744.789 238.94 742.071 238.94C739.347 238.94 737.142 241.147 737.142 243.869C737.142 246.589 739.347 248.795 742.071 248.795ZM722.158 248.795C724.878 248.795 727.085 246.589 727.085 243.869C727.085 241.147 724.878 238.94 722.158 238.94C719.436 238.94 717.231 241.147 717.231 243.869C717.231 246.589 719.436 248.795 722.158 248.795ZM702.246 248.795C704.967 248.795 707.174 246.589 707.174 243.869C707.174 241.147 704.967 238.94 702.246 238.94C699.523 238.94 697.32 241.147 697.32 243.869C697.32 246.589 699.523 248.795 702.246 248.795ZM682.337 248.795C685.055 248.795 687.262 246.589 687.262 243.869C687.262 241.147 685.055 238.94 682.337 238.94C679.611 238.94 677.407 241.147 677.407 243.869C677.407 246.589 679.611 248.795 682.337 248.795ZM662.423 248.795C665.142 248.795 667.35 246.589 667.35 243.869C667.35 241.147 665.142 238.94 662.423 238.94C659.698 238.94 657.495 241.147 657.495 243.869C657.495 246.589 659.698 248.795 662.423 248.795ZM642.511 248.795C645.23 248.795 647.437 246.589 647.437 243.869C647.437 241.147 645.23 238.94 642.511 238.94C639.792 238.94 637.586 241.147 637.586 243.869C637.586 246.589 639.792 248.795 642.511 248.795ZM622.599 248.795C625.323 248.795 627.527 246.589 627.527 243.869C627.527 241.147 625.323 238.94 622.599 238.94C619.879 238.94 617.672 241.147 617.672 243.869C617.672 246.589 619.879 248.795 622.599 248.795ZM602.688 248.795C605.411 248.795 607.614 246.589 607.614 243.869C607.614 241.147 605.411 238.94 602.688 238.94C599.967 238.94 597.76 241.147 597.76 243.869C597.76 246.589 599.967 248.795 602.688 248.795ZM582.776 248.795C585.498 248.795 587.703 246.589 587.703 243.869C587.703 241.147 585.498 238.94 582.776 238.94C580.055 238.94 577.851 241.147 577.851 243.869C577.851 246.589 580.055 248.795 582.776 248.795ZM562.863 248.795C565.587 248.795 567.79 246.589 567.79 243.869C567.79 241.147 565.587 238.94 562.863 238.94C560.145 238.94 557.937 241.147 557.937 243.869C557.937 246.589 560.145 248.795 562.863 248.795ZM542.952 248.795C545.678 248.795 547.88 246.589 547.88 243.869C547.88 241.147 545.678 238.94 542.952 238.94C540.232 238.94 538.025 241.147 538.025 243.869C538.025 246.589 540.232 248.795 542.952 248.795ZM523.04 248.795C525.764 248.795 527.967 246.589 527.967 243.869C527.967 241.147 525.764 238.94 523.04 238.94C520.322 238.94 518.112 241.147 518.112 243.869C518.112 246.589 520.322 248.795 523.04 248.795ZM503.129 248.795C505.851 248.795 508.057 246.589 508.057 243.869C508.057 241.147 505.851 238.94 503.129 238.94C500.409 238.94 498.202 241.147 498.202 243.869C498.202 246.589 500.409 248.795 503.129 248.795ZM483.216 248.795C485.943 248.795 488.145 246.589 488.145 243.869C488.145 241.147 485.943 238.94 483.216 238.94C480.498 238.94 478.289 241.147 478.289 243.869C478.289 246.589 480.498 248.795 483.216 248.795ZM463.304 248.795C466.029 248.795 468.233 246.589 468.233 243.869C468.233 241.147 466.029 238.94 463.304 238.94C460.587 238.94 458.377 241.147 458.377 243.869C458.377 246.589 460.587 248.795 463.304 248.795ZM443.393 248.795C446.117 248.795 448.324 246.589 448.324 243.869C448.324 241.147 446.117 238.94 443.393 238.94C440.673 238.94 438.465 241.147 438.465 243.869C438.465 246.589 440.673 248.795 443.393 248.795ZM423.482 248.795C426.206 248.795 428.412 246.589 428.412 243.869C428.412 241.147 426.206 238.94 423.482 238.94C420.762 238.94 418.555 241.147 418.555 243.869C418.555 246.589 420.762 248.795 423.482 248.795ZM403.571 248.795C406.294 248.795 408.503 246.589 408.503 243.869C408.503 241.147 406.294 238.94 403.571 238.94C400.852 238.94 398.642 241.147 398.642 243.869C398.642 246.589 400.852 248.795 403.571 248.795ZM323.925 248.795C326.646 248.795 328.854 246.589 328.854 243.869C328.854 241.147 326.646 238.94 323.925 238.94C321.203 238.94 318.995 241.147 318.995 243.869C318.995 246.589 321.203 248.795 323.925 248.795ZM304.017 248.795C306.736 248.795 308.942 246.589 308.942 243.869C308.942 241.147 306.736 238.94 304.017 238.94C301.29 238.94 299.085 241.147 299.085 243.869C299.085 246.589 301.29 248.795 304.017 248.795ZM284.103 248.795C286.822 248.795 289.029 246.589 289.029 243.869C289.029 241.147 286.822 238.94 284.103 238.94C281.38 238.94 279.172 241.147 279.172 243.869C279.172 246.589 281.38 248.795 284.103 248.795ZM264.191 248.795C266.909 248.795 269.117 246.589 269.117 243.869C269.117 241.147 266.909 238.94 264.191 238.94C261.468 238.94 259.26 241.147 259.26 243.869C259.26 246.589 261.468 248.795 264.191 248.795ZM244.278 248.795C247.001 248.795 249.207 246.589 249.207 243.869C249.207 241.147 247.001 238.94 244.278 238.94C241.556 238.94 239.352 241.147 239.352 243.869C239.352 246.589 241.556 248.795 244.278 248.795ZM184.543 248.795C187.266 248.795 189.472 246.589 189.472 243.869C189.472 241.147 187.266 238.94 184.543 238.94C181.823 238.94 179.617 241.147 179.617 243.869C179.617 246.589 181.823 248.795 184.543 248.795ZM164.631 248.795C167.354 248.795 169.56 246.589 169.56 243.869C169.56 241.147 167.354 238.94 164.631 238.94C161.91 238.94 159.704 241.147 159.704 243.869C159.704 246.589 161.91 248.795 164.631 248.795ZM144.72 248.795C147.441 248.795 149.647 246.589 149.647 243.869C149.647 241.147 147.441 238.94 144.72 238.94C141.998 238.94 139.792 241.147 139.792 243.869C139.792 246.589 141.998 248.795 144.72 248.795ZM124.808 248.795C127.529 248.795 129.737 246.589 129.737 243.869C129.737 241.147 127.529 238.94 124.808 238.94C122.087 238.94 119.882 241.147 119.882 243.869C119.882 246.589 122.087 248.795 124.808 248.795ZM104.898 248.795C107.619 248.795 109.824 246.589 109.824 243.869C109.824 241.147 107.619 238.94 104.898 238.94C102.175 238.94 99.9694 241.147 99.9694 243.869C99.9694 246.589 102.175 248.795 104.898 248.795ZM84.9858 248.795C87.7065 248.795 89.9126 246.589 89.9126 243.869C89.9126 241.147 87.7065 238.94 84.9858 238.94C82.2651 238.94 80.0569 241.147 80.0569 243.869C80.0569 246.589 82.2651 248.795 84.9858 248.795ZM65.0732 248.795C67.7965 248.795 70.0017 246.589 70.0017 243.869C70.0017 241.147 67.7965 238.94 65.0732 238.94C62.3526 238.94 60.1443 241.147 60.1443 243.869C60.1443 246.589 62.3526 248.795 65.0732 248.795ZM45.1607 248.795C47.8839 248.795 50.0896 246.589 50.0896 243.869C50.0896 241.147 47.8839 238.94 45.1607 238.94C42.44 238.94 40.2343 241.147 40.2343 243.869C40.2343 246.589 42.44 248.795 45.1607 248.795ZM25.2503 248.795C27.9714 248.795 30.1792 246.589 30.1792 243.869C30.1792 241.147 27.9714 238.94 25.2503 238.94C22.5279 238.94 20.3223 241.147 20.3223 243.869C20.3223 246.589 22.5279 248.795 25.2503 248.795ZM781.894 228.885C784.614 228.885 786.824 226.679 786.824 223.956C786.824 221.235 784.614 219.028 781.894 219.028C779.17 219.028 776.967 221.235 776.967 223.956C776.967 226.679 779.17 228.885 781.894 228.885ZM761.981 228.885C764.702 228.885 766.909 226.679 766.909 223.956C766.909 221.235 764.702 219.028 761.981 219.028C759.258 219.028 757.054 221.235 757.054 223.956C757.054 226.679 759.258 228.885 761.981 228.885ZM742.071 228.885C744.789 228.885 746.997 226.679 746.997 223.956C746.997 221.235 744.789 219.028 742.071 219.028C739.347 219.028 737.142 221.235 737.142 223.956C737.142 226.679 739.347 228.885 742.071 228.885ZM722.158 228.885C724.878 228.885 727.085 226.679 727.085 223.956C727.085 221.235 724.878 219.028 722.158 219.028C719.436 219.028 717.231 221.235 717.231 223.956C717.231 226.679 719.436 228.885 722.158 228.885ZM702.246 228.885C704.967 228.885 707.174 226.679 707.174 223.956C707.174 221.235 704.967 219.028 702.246 219.028C699.523 219.028 697.32 221.235 697.32 223.956C697.32 226.679 699.523 228.885 702.246 228.885ZM682.337 228.885C685.055 228.885 687.262 226.679 687.262 223.956C687.262 221.235 685.055 219.028 682.337 219.028C679.611 219.028 677.407 221.235 677.407 223.956C677.407 226.679 679.611 228.885 682.337 228.885ZM662.423 228.885C665.142 228.885 667.35 226.679 667.35 223.956C667.35 221.235 665.142 219.028 662.423 219.028C659.698 219.028 657.495 221.235 657.495 223.956C657.495 226.679 659.698 228.885 662.423 228.885ZM642.511 228.885C645.23 228.885 647.437 226.679 647.437 223.956C647.437 221.235 645.23 219.028 642.511 219.028C639.792 219.028 637.586 221.235 637.586 223.956C637.586 226.679 639.792 228.885 642.511 228.885ZM622.599 228.885C625.323 228.885 627.527 226.679 627.527 223.956C627.527 221.235 625.323 219.028 622.599 219.028C619.879 219.028 617.672 221.235 617.672 223.956C617.672 226.679 619.879 228.885 622.599 228.885ZM602.688 228.885C605.411 228.885 607.614 226.679 607.614 223.956C607.614 221.235 605.411 219.028 602.688 219.028C599.967 219.028 597.76 221.235 597.76 223.956C597.76 226.679 599.967 228.885 602.688 228.885ZM582.776 228.885C585.498 228.885 587.703 226.679 587.703 223.956C587.703 221.235 585.498 219.028 582.776 219.028C580.055 219.028 577.851 221.235 577.851 223.956C577.851 226.679 580.055 228.885 582.776 228.885ZM562.863 228.885C565.587 228.885 567.79 226.679 567.79 223.956C567.79 221.235 565.587 219.028 562.863 219.028C560.145 219.028 557.937 221.235 557.937 223.956C557.937 226.679 560.145 228.885 562.863 228.885ZM523.04 228.885C525.764 228.885 527.967 226.679 527.967 223.956C527.967 221.235 525.764 219.028 523.04 219.028C520.322 219.028 518.112 221.235 518.112 223.956C518.112 226.679 520.322 228.885 523.04 228.885ZM503.129 228.885C505.851 228.885 508.057 226.679 508.057 223.956C508.057 221.235 505.851 219.028 503.129 219.028C500.409 219.028 498.202 221.235 498.202 223.956C498.202 226.679 500.409 228.885 503.129 228.885ZM483.216 228.885C485.943 228.885 488.145 226.679 488.145 223.956C488.145 221.235 485.943 219.028 483.216 219.028C480.498 219.028 478.289 221.235 478.289 223.956C478.289 226.679 480.498 228.885 483.216 228.885ZM463.304 228.885C466.029 228.885 468.233 226.679 468.233 223.956C468.233 221.235 466.029 219.028 463.304 219.028C460.587 219.028 458.377 221.235 458.377 223.956C458.377 226.679 460.587 228.885 463.304 228.885ZM423.482 228.885C426.206 228.885 428.412 226.679 428.412 223.956C428.412 221.235 426.206 219.028 423.482 219.028C420.762 219.028 418.555 221.235 418.555 223.956C418.555 226.679 420.762 228.885 423.482 228.885ZM403.571 228.885C406.294 228.885 408.503 226.679 408.503 223.956C408.503 221.235 406.294 219.028 403.571 219.028C400.852 219.028 398.642 221.235 398.642 223.956C398.642 226.679 400.852 228.885 403.571 228.885ZM383.659 228.885C386.382 228.885 388.589 226.679 388.589 223.956C388.589 221.235 386.382 219.028 383.659 219.028C380.938 219.028 378.73 221.235 378.73 223.956C378.73 226.679 380.938 228.885 383.659 228.885ZM323.925 228.885C326.646 228.885 328.854 226.679 328.854 223.956C328.854 221.235 326.646 219.028 323.925 219.028C321.203 219.028 318.995 221.235 318.995 223.956C318.995 226.679 321.203 228.885 323.925 228.885ZM304.017 228.885C306.736 228.885 308.942 226.679 308.942 223.956C308.942 221.235 306.736 219.028 304.017 219.028C301.29 219.028 299.085 221.235 299.085 223.956C299.085 226.679 301.29 228.885 304.017 228.885ZM284.103 228.885C286.822 228.885 289.029 226.679 289.029 223.956C289.029 221.235 286.822 219.028 284.103 219.028C281.38 219.028 279.172 221.235 279.172 223.956C279.172 226.679 281.38 228.885 284.103 228.885ZM264.191 228.885C266.909 228.885 269.117 226.679 269.117 223.956C269.117 221.235 266.909 219.028 264.191 219.028C261.468 219.028 259.26 221.235 259.26 223.956C259.26 226.679 261.468 228.885 264.191 228.885ZM244.278 228.885C247.001 228.885 249.207 226.679 249.207 223.956C249.207 221.235 247.001 219.028 244.278 219.028C241.556 219.028 239.352 221.235 239.352 223.956C239.352 226.679 241.556 228.885 244.278 228.885ZM184.543 228.885C187.266 228.885 189.472 226.679 189.472 223.956C189.472 221.235 187.266 219.028 184.543 219.028C181.823 219.028 179.617 221.235 179.617 223.956C179.617 226.679 181.823 228.885 184.543 228.885ZM164.631 228.885C167.354 228.885 169.56 226.679 169.56 223.956C169.56 221.235 167.354 219.028 164.631 219.028C161.91 219.028 159.704 221.235 159.704 223.956C159.704 226.679 161.91 228.885 164.631 228.885ZM144.72 228.885C147.441 228.885 149.647 226.679 149.647 223.956C149.647 221.235 147.441 219.028 144.72 219.028C141.998 219.028 139.792 221.235 139.792 223.956C139.792 226.679 141.998 228.885 144.72 228.885ZM124.808 228.885C127.529 228.885 129.737 226.679 129.737 223.956C129.737 221.235 127.529 219.028 124.808 219.028C122.087 219.028 119.882 221.235 119.882 223.956C119.882 226.679 122.087 228.885 124.808 228.885ZM104.898 228.885C107.619 228.885 109.824 226.679 109.824 223.956C109.824 221.235 107.619 219.028 104.898 219.028C102.175 219.028 99.9694 221.235 99.9694 223.956C99.9694 226.679 102.175 228.885 104.898 228.885ZM84.9858 228.885C87.7065 228.885 89.9126 226.679 89.9126 223.956C89.9126 221.235 87.7065 219.028 84.9858 219.028C82.2651 219.028 80.0569 221.235 80.0569 223.956C80.0569 226.679 82.2651 228.885 84.9858 228.885ZM65.0732 228.885C67.7965 228.885 70.0017 226.679 70.0017 223.956C70.0017 221.235 67.7965 219.028 65.0732 219.028C62.3526 219.028 60.1443 221.235 60.1443 223.956C60.1443 226.679 62.3526 228.885 65.0732 228.885ZM45.1607 228.885C47.8839 228.885 50.0896 226.679 50.0896 223.956C50.0896 221.235 47.8839 219.028 45.1607 219.028C42.44 219.028 40.2343 221.235 40.2343 223.956C40.2343 226.679 42.44 228.885 45.1607 228.885ZM25.2503 228.885C27.9714 228.885 30.1792 226.679 30.1792 223.956C30.1792 221.235 27.9714 219.028 25.2503 219.028C22.5279 219.028 20.3223 221.235 20.3223 223.956C20.3223 226.679 22.5279 228.885 25.2503 228.885ZM742.071 208.972C744.789 208.972 746.997 206.766 746.997 204.046C746.997 201.323 744.789 199.118 742.071 199.118C739.347 199.118 737.142 201.323 737.142 204.046C737.142 206.766 739.347 208.972 742.071 208.972ZM722.158 208.972C724.878 208.972 727.085 206.766 727.085 204.046C727.085 201.323 724.878 199.118 722.158 199.118C719.436 199.118 717.231 201.323 717.231 204.046C717.231 206.766 719.436 208.972 722.158 208.972ZM702.246 208.972C704.967 208.972 707.174 206.766 707.174 204.046C707.174 201.323 704.967 199.118 702.246 199.118C699.523 199.118 697.32 201.323 697.32 204.046C697.32 206.766 699.523 208.972 702.246 208.972ZM682.337 208.972C685.055 208.972 687.262 206.766 687.262 204.046C687.262 201.323 685.055 199.118 682.337 199.118C679.611 199.118 677.407 201.323 677.407 204.046C677.407 206.766 679.611 208.972 682.337 208.972ZM662.423 208.972C665.142 208.972 667.35 206.766 667.35 204.046C667.35 201.323 665.142 199.118 662.423 199.118C659.698 199.118 657.495 201.323 657.495 204.046C657.495 206.766 659.698 208.972 662.423 208.972ZM642.511 208.972C645.23 208.972 647.437 206.766 647.437 204.046C647.437 201.323 645.23 199.118 642.511 199.118C639.792 199.118 637.586 201.323 637.586 204.046C637.586 206.766 639.792 208.972 642.511 208.972ZM622.599 208.972C625.323 208.972 627.527 206.766 627.527 204.046C627.527 201.323 625.323 199.118 622.599 199.118C619.879 199.118 617.672 201.323 617.672 204.046C617.672 206.766 619.879 208.972 622.599 208.972ZM602.688 208.972C605.411 208.972 607.614 206.766 607.614 204.046C607.614 201.323 605.411 199.118 602.688 199.118C599.967 199.118 597.76 201.323 597.76 204.046C597.76 206.766 599.967 208.972 602.688 208.972ZM582.776 208.972C585.498 208.972 587.703 206.766 587.703 204.046C587.703 201.323 585.498 199.118 582.776 199.118C580.055 199.118 577.851 201.323 577.851 204.046C577.851 206.766 580.055 208.972 582.776 208.972ZM562.863 208.972C565.587 208.972 567.79 206.766 567.79 204.046C567.79 201.323 565.587 199.118 562.863 199.118C560.145 199.118 557.937 201.323 557.937 204.046C557.937 206.766 560.145 208.972 562.863 208.972ZM542.952 208.972C545.678 208.972 547.88 206.766 547.88 204.046C547.88 201.323 545.678 199.118 542.952 199.118C540.232 199.118 538.025 201.323 538.025 204.046C538.025 206.766 540.232 208.972 542.952 208.972ZM523.04 208.972C525.764 208.972 527.967 206.766 527.967 204.046C527.967 201.323 525.764 199.118 523.04 199.118C520.322 199.118 518.112 201.323 518.112 204.046C518.112 206.766 520.322 208.972 523.04 208.972ZM503.129 208.972C505.851 208.972 508.057 206.766 508.057 204.046C508.057 201.323 505.851 199.118 503.129 199.118C500.409 199.118 498.202 201.323 498.202 204.046C498.202 206.766 500.409 208.972 503.129 208.972ZM463.304 208.972C466.029 208.972 468.233 206.766 468.233 204.046C468.233 201.323 466.029 199.118 463.304 199.118C460.587 199.118 458.377 201.323 458.377 204.046C458.377 206.766 460.587 208.972 463.304 208.972ZM443.393 208.972C446.117 208.972 448.324 206.766 448.324 204.046C448.324 201.323 446.117 199.118 443.393 199.118C440.673 199.118 438.465 201.323 438.465 204.046C438.465 206.766 440.673 208.972 443.393 208.972ZM423.482 208.972C426.206 208.972 428.412 206.766 428.412 204.046C428.412 201.323 426.206 199.118 423.482 199.118C420.762 199.118 418.555 201.323 418.555 204.046C418.555 206.766 420.762 208.972 423.482 208.972ZM403.571 208.972C406.294 208.972 408.503 206.766 408.503 204.046C408.503 201.323 406.294 199.118 403.571 199.118C400.852 199.118 398.642 201.323 398.642 204.046C398.642 206.766 400.852 208.972 403.571 208.972ZM383.659 208.972C386.382 208.972 388.589 206.766 388.589 204.046C388.589 201.323 386.382 199.118 383.659 199.118C380.938 199.118 378.73 201.323 378.73 204.046C378.73 206.766 380.938 208.972 383.659 208.972ZM363.746 208.972C366.471 208.972 368.676 206.766 368.676 204.046C368.676 201.323 366.471 199.118 363.746 199.118C361.027 199.118 358.819 201.323 358.819 204.046C358.819 206.766 361.027 208.972 363.746 208.972ZM343.838 208.972C346.557 208.972 348.765 206.766 348.765 204.046C348.765 201.323 346.557 199.118 343.838 199.118C341.117 199.118 338.908 201.323 338.908 204.046C338.908 206.766 341.117 208.972 343.838 208.972ZM323.925 208.972C326.646 208.972 328.854 206.766 328.854 204.046C328.854 201.323 326.646 199.118 323.925 199.118C321.203 199.118 318.995 201.323 318.995 204.046C318.995 206.766 321.203 208.972 323.925 208.972ZM304.017 208.972C306.736 208.972 308.942 206.766 308.942 204.046C308.942 201.323 306.736 199.118 304.017 199.118C301.29 199.118 299.085 201.323 299.085 204.046C299.085 206.766 301.29 208.972 304.017 208.972ZM284.103 208.972C286.822 208.972 289.029 206.766 289.029 204.046C289.029 201.323 286.822 199.118 284.103 199.118C281.38 199.118 279.172 201.323 279.172 204.046C279.172 206.766 281.38 208.972 284.103 208.972ZM264.191 208.972C266.909 208.972 269.117 206.766 269.117 204.046C269.117 201.323 266.909 199.118 264.191 199.118C261.468 199.118 259.26 201.323 259.26 204.046C259.26 206.766 261.468 208.972 264.191 208.972ZM244.278 208.972C247.001 208.972 249.207 206.766 249.207 204.046C249.207 201.323 247.001 199.118 244.278 199.118C241.556 199.118 239.352 201.323 239.352 204.046C239.352 206.766 241.556 208.972 244.278 208.972ZM184.543 208.972C187.266 208.972 189.472 206.766 189.472 204.046C189.472 201.323 187.266 199.118 184.543 199.118C181.823 199.118 179.617 201.323 179.617 204.046C179.617 206.766 181.823 208.972 184.543 208.972ZM164.631 208.972C167.354 208.972 169.56 206.766 169.56 204.046C169.56 201.323 167.354 199.118 164.631 199.118C161.91 199.118 159.704 201.323 159.704 204.046C159.704 206.766 161.91 208.972 164.631 208.972ZM144.72 208.972C147.441 208.972 149.647 206.766 149.647 204.046C149.647 201.323 147.441 199.118 144.72 199.118C141.998 199.118 139.792 201.323 139.792 204.046C139.792 206.766 141.998 208.972 144.72 208.972ZM124.808 208.972C127.529 208.972 129.737 206.766 129.737 204.046C129.737 201.323 127.529 199.118 124.808 199.118C122.087 199.118 119.882 201.323 119.882 204.046C119.882 206.766 122.087 208.972 124.808 208.972ZM104.898 208.972C107.619 208.972 109.824 206.766 109.824 204.046C109.824 201.323 107.619 199.118 104.898 199.118C102.175 199.118 99.9694 201.323 99.9694 204.046C99.9694 206.766 102.175 208.972 104.898 208.972ZM84.9858 208.972C87.7065 208.972 89.9126 206.766 89.9126 204.046C89.9126 201.323 87.7065 199.118 84.9858 199.118C82.2651 199.118 80.0569 201.323 80.0569 204.046C80.0569 206.766 82.2651 208.972 84.9858 208.972ZM65.0732 208.972C67.7965 208.972 70.0017 206.766 70.0017 204.046C70.0017 201.323 67.7965 199.118 65.0732 199.118C62.3526 199.118 60.1443 201.323 60.1443 204.046C60.1443 206.766 62.3526 208.972 65.0732 208.972ZM45.1607 208.972C47.8839 208.972 50.0896 206.766 50.0896 204.046C50.0896 201.323 47.8839 199.118 45.1607 199.118C42.44 199.118 40.2343 201.323 40.2343 204.046C40.2343 206.766 42.44 208.972 45.1607 208.972ZM25.2503 208.972C27.9714 208.972 30.1792 206.766 30.1792 204.046C30.1792 201.323 27.9714 199.118 25.2503 199.118C22.5279 199.118 20.3223 201.323 20.3223 204.046C20.3223 206.766 22.5279 208.972 25.2503 208.972ZM5.33865 208.972C8.05934 208.972 10.2667 206.766 10.2667 204.046C10.2667 201.323 8.05934 199.118 5.33865 199.118C2.61712 199.118 0.411865 201.323 0.411865 204.046C0.411865 206.766 2.61712 208.972 5.33865 208.972ZM682.337 189.06C685.055 189.06 687.262 186.855 687.262 184.134C687.262 181.413 685.055 179.205 682.337 179.205C679.611 179.205 677.407 181.413 677.407 184.134C677.407 186.855 679.611 189.06 682.337 189.06ZM662.423 189.06C665.142 189.06 667.35 186.855 667.35 184.134C667.35 181.413 665.142 179.205 662.423 179.205C659.698 179.205 657.495 181.413 657.495 184.134C657.495 186.855 659.698 189.06 662.423 189.06ZM642.511 189.06C645.23 189.06 647.437 186.855 647.437 184.134C647.437 181.413 645.23 179.205 642.511 179.205C639.792 179.205 637.586 181.413 637.586 184.134C637.586 186.855 639.792 189.06 642.511 189.06ZM622.599 189.06C625.323 189.06 627.527 186.855 627.527 184.134C627.527 181.413 625.323 179.205 622.599 179.205C619.879 179.205 617.672 181.413 617.672 184.134C617.672 186.855 619.879 189.06 622.599 189.06ZM602.688 189.06C605.411 189.06 607.614 186.855 607.614 184.134C607.614 181.413 605.411 179.205 602.688 179.205C599.967 179.205 597.76 181.413 597.76 184.134C597.76 186.855 599.967 189.06 602.688 189.06ZM582.776 189.06C585.498 189.06 587.703 186.855 587.703 184.134C587.703 181.413 585.498 179.205 582.776 179.205C580.055 179.205 577.851 181.413 577.851 184.134C577.851 186.855 580.055 189.06 582.776 189.06ZM562.863 189.06C565.587 189.06 567.79 186.855 567.79 184.134C567.79 181.413 565.587 179.205 562.863 179.205C560.145 179.205 557.937 181.413 557.937 184.134C557.937 186.855 560.145 189.06 562.863 189.06ZM542.952 189.06C545.678 189.06 547.88 186.855 547.88 184.134C547.88 181.413 545.678 179.205 542.952 179.205C540.232 179.205 538.025 181.413 538.025 184.134C538.025 186.855 540.232 189.06 542.952 189.06ZM523.04 189.06C525.764 189.06 527.967 186.855 527.967 184.134C527.967 181.413 525.764 179.205 523.04 179.205C520.322 179.205 518.112 181.413 518.112 184.134C518.112 186.855 520.322 189.06 523.04 189.06ZM483.216 189.06C485.943 189.06 488.145 186.855 488.145 184.134C488.145 181.413 485.943 179.205 483.216 179.205C480.498 179.205 478.289 181.413 478.289 184.134C478.289 186.855 480.498 189.06 483.216 189.06ZM463.304 189.06C466.029 189.06 468.233 186.855 468.233 184.134C468.233 181.413 466.029 179.205 463.304 179.205C460.587 179.205 458.377 181.413 458.377 184.134C458.377 186.855 460.587 189.06 463.304 189.06ZM443.393 189.06C446.117 189.06 448.324 186.855 448.324 184.134C448.324 181.413 446.117 179.205 443.393 179.205C440.673 179.205 438.465 181.413 438.465 184.134C438.465 186.855 440.673 189.06 443.393 189.06ZM363.746 189.06C366.471 189.06 368.676 186.855 368.676 184.134C368.676 181.413 366.471 179.205 363.746 179.205C361.027 179.205 358.819 181.413 358.819 184.134C358.819 186.855 361.027 189.06 363.746 189.06ZM343.838 189.06C346.557 189.06 348.765 186.855 348.765 184.134C348.765 181.413 346.557 179.205 343.838 179.205C341.117 179.205 338.908 181.413 338.908 184.134C338.908 186.855 341.117 189.06 343.838 189.06ZM323.925 189.06C326.646 189.06 328.854 186.855 328.854 184.134C328.854 181.413 326.646 179.205 323.925 179.205C321.203 179.205 318.995 181.413 318.995 184.134C318.995 186.855 321.203 189.06 323.925 189.06ZM304.017 189.06C306.736 189.06 308.942 186.855 308.942 184.134C308.942 181.413 306.736 179.205 304.017 179.205C301.29 179.205 299.085 181.413 299.085 184.134C299.085 186.855 301.29 189.06 304.017 189.06ZM284.103 189.06C286.822 189.06 289.029 186.855 289.029 184.134C289.029 181.413 286.822 179.205 284.103 179.205C281.38 179.205 279.172 181.413 279.172 184.134C279.172 186.855 281.38 189.06 284.103 189.06ZM264.191 189.06C266.909 189.06 269.117 186.855 269.117 184.134C269.117 181.413 266.909 179.205 264.191 179.205C261.468 179.205 259.26 181.413 259.26 184.134C259.26 186.855 261.468 189.06 264.191 189.06ZM244.278 189.06C247.001 189.06 249.207 186.855 249.207 184.134C249.207 181.413 247.001 179.205 244.278 179.205C241.556 179.205 239.352 181.413 239.352 184.134C239.352 186.855 241.556 189.06 244.278 189.06ZM204.455 189.06C207.175 189.06 209.382 186.855 209.382 184.134C209.382 181.413 207.175 179.205 204.455 179.205C201.731 179.205 199.531 181.413 199.531 184.134C199.531 186.855 201.731 189.06 204.455 189.06ZM184.543 189.06C187.266 189.06 189.472 186.855 189.472 184.134C189.472 181.413 187.266 179.205 184.543 179.205C181.823 179.205 179.617 181.413 179.617 184.134C179.617 186.855 181.823 189.06 184.543 189.06ZM164.631 189.06C167.354 189.06 169.56 186.855 169.56 184.134C169.56 181.413 167.354 179.205 164.631 179.205C161.91 179.205 159.704 181.413 159.704 184.134C159.704 186.855 161.91 189.06 164.631 189.06ZM144.72 189.06C147.441 189.06 149.647 186.855 149.647 184.134C149.647 181.413 147.441 179.205 144.72 179.205C141.998 179.205 139.792 181.413 139.792 184.134C139.792 186.855 141.998 189.06 144.72 189.06ZM124.808 189.06C127.529 189.06 129.737 186.855 129.737 184.134C129.737 181.413 127.529 179.205 124.808 179.205C122.087 179.205 119.882 181.413 119.882 184.134C119.882 186.855 122.087 189.06 124.808 189.06ZM104.898 189.06C107.619 189.06 109.824 186.855 109.824 184.134C109.824 181.413 107.619 179.205 104.898 179.205C102.175 179.205 99.9694 181.413 99.9694 184.134C99.9694 186.855 102.175 189.06 104.898 189.06ZM84.9858 189.06C87.7065 189.06 89.9126 186.855 89.9126 184.134C89.9126 181.413 87.7065 179.205 84.9858 179.205C82.2651 179.205 80.0569 181.413 80.0569 184.134C80.0569 186.855 82.2651 189.06 84.9858 189.06ZM65.0732 189.06C67.7965 189.06 70.0017 186.855 70.0017 184.134C70.0017 181.413 67.7965 179.205 65.0732 179.205C62.3526 179.205 60.1443 181.413 60.1443 184.134C60.1443 186.855 62.3526 189.06 65.0732 189.06ZM45.1607 189.06C47.8839 189.06 50.0896 186.855 50.0896 184.134C50.0896 181.413 47.8839 179.205 45.1607 179.205C42.44 179.205 40.2343 181.413 40.2343 184.134C40.2343 186.855 42.44 189.06 45.1607 189.06ZM25.2503 189.06C27.9714 189.06 30.1792 186.855 30.1792 184.134C30.1792 181.413 27.9714 179.205 25.2503 179.205C22.5279 179.205 20.3223 181.413 20.3223 184.134C20.3223 186.855 22.5279 189.06 25.2503 189.06ZM5.33865 189.06C8.05934 189.06 10.2667 186.855 10.2667 184.134C10.2667 181.413 8.05934 179.205 5.33865 179.205C2.61712 179.205 0.411865 181.413 0.411865 184.134C0.411865 186.855 2.61712 189.06 5.33865 189.06ZM582.776 169.148C585.498 169.148 587.703 166.944 587.703 164.221C587.703 161.5 585.498 159.293 582.776 159.293C580.055 159.293 577.851 161.5 577.851 164.221C577.851 166.944 580.055 169.148 582.776 169.148ZM542.952 169.148C545.678 169.148 547.88 166.944 547.88 164.221C547.88 161.5 545.678 159.293 542.952 159.293C540.232 159.293 538.025 161.5 538.025 164.221C538.025 166.944 540.232 169.148 542.952 169.148ZM523.04 169.148C525.764 169.148 527.967 166.944 527.967 164.221C527.967 161.5 525.764 159.293 523.04 159.293C520.322 159.293 518.112 161.5 518.112 164.221C518.112 166.944 520.322 169.148 523.04 169.148ZM503.129 169.148C505.851 169.148 508.057 166.944 508.057 164.221C508.057 161.5 505.851 159.293 503.129 159.293C500.409 159.293 498.202 161.5 498.202 164.221C498.202 166.944 500.409 169.148 503.129 169.148ZM483.216 169.148C485.943 169.148 488.145 166.944 488.145 164.221C488.145 161.5 485.943 159.293 483.216 159.293C480.498 159.293 478.289 161.5 478.289 164.221C478.289 166.944 480.498 169.148 483.216 169.148ZM463.304 169.148C466.029 169.148 468.233 166.944 468.233 164.221C468.233 161.5 466.029 159.293 463.304 159.293C460.587 159.293 458.377 161.5 458.377 164.221C458.377 166.944 460.587 169.148 463.304 169.148ZM383.659 169.148C386.382 169.148 388.589 166.944 388.589 164.221C388.589 161.5 386.382 159.293 383.659 159.293C380.938 159.293 378.73 161.5 378.73 164.221C378.73 166.944 380.938 169.148 383.659 169.148ZM363.746 169.148C366.471 169.148 368.676 166.944 368.676 164.221C368.676 161.5 366.471 159.293 363.746 159.293C361.027 159.293 358.819 161.5 358.819 164.221C358.819 166.944 361.027 169.148 363.746 169.148ZM343.838 169.148C346.557 169.148 348.765 166.944 348.765 164.221C348.765 161.5 346.557 159.293 343.838 159.293C341.117 159.293 338.908 161.5 338.908 164.221C338.908 166.944 341.117 169.148 343.838 169.148ZM323.925 169.148C326.646 169.148 328.854 166.944 328.854 164.221C328.854 161.5 326.646 159.293 323.925 159.293C321.203 159.293 318.995 161.5 318.995 164.221C318.995 166.944 321.203 169.148 323.925 169.148ZM304.017 169.148C306.736 169.148 308.942 166.944 308.942 164.221C308.942 161.5 306.736 159.293 304.017 159.293C301.29 159.293 299.085 161.5 299.085 164.221C299.085 166.944 301.29 169.148 304.017 169.148ZM284.103 169.148C286.822 169.148 289.029 166.944 289.029 164.221C289.029 161.5 286.822 159.293 284.103 159.293C281.38 159.293 279.172 161.5 279.172 164.221C279.172 166.944 281.38 169.148 284.103 169.148ZM264.191 169.148C266.909 169.148 269.117 166.944 269.117 164.221C269.117 161.5 266.909 159.293 264.191 159.293C261.468 159.293 259.26 161.5 259.26 164.221C259.26 166.944 261.468 169.148 264.191 169.148ZM204.455 169.148C207.175 169.148 209.382 166.944 209.382 164.221C209.382 161.5 207.175 159.293 204.455 159.293C201.731 159.293 199.531 161.5 199.531 164.221C199.531 166.944 201.731 169.148 204.455 169.148ZM184.543 169.148C187.266 169.148 189.472 166.944 189.472 164.221C189.472 161.5 187.266 159.293 184.543 159.293C181.823 159.293 179.617 161.5 179.617 164.221C179.617 166.944 181.823 169.148 184.543 169.148ZM164.631 169.148C167.354 169.148 169.56 166.944 169.56 164.221C169.56 161.5 167.354 159.293 164.631 159.293C161.91 159.293 159.704 161.5 159.704 164.221C159.704 166.944 161.91 169.148 164.631 169.148ZM144.72 169.148C147.441 169.148 149.647 166.944 149.647 164.221C149.647 161.5 147.441 159.293 144.72 159.293C141.998 159.293 139.792 161.5 139.792 164.221C139.792 166.944 141.998 169.148 144.72 169.148ZM124.808 169.148C127.529 169.148 129.737 166.944 129.737 164.221C129.737 161.5 127.529 159.293 124.808 159.293C122.087 159.293 119.882 161.5 119.882 164.221C119.882 166.944 122.087 169.148 124.808 169.148ZM104.898 169.148C107.619 169.148 109.824 166.944 109.824 164.221C109.824 161.5 107.619 159.293 104.898 159.293C102.175 159.293 99.9694 161.5 99.9694 164.221C99.9694 166.944 102.175 169.148 104.898 169.148ZM84.9858 169.148C87.7065 169.148 89.9126 166.944 89.9126 164.221C89.9126 161.5 87.7065 159.293 84.9858 159.293C82.2651 159.293 80.0569 161.5 80.0569 164.221C80.0569 166.944 82.2651 169.148 84.9858 169.148ZM65.0732 169.148C67.7965 169.148 70.0017 166.944 70.0017 164.221C70.0017 161.5 67.7965 159.293 65.0732 159.293C62.3526 159.293 60.1443 161.5 60.1443 164.221C60.1443 166.944 62.3526 169.148 65.0732 169.148ZM45.1607 169.148C47.8839 169.148 50.0896 166.944 50.0896 164.221C50.0896 161.5 47.8839 159.293 45.1607 159.293C42.44 159.293 40.2343 161.5 40.2343 164.221C40.2343 166.944 42.44 169.148 45.1607 169.148ZM25.2503 169.148C27.9714 169.148 30.1792 166.944 30.1792 164.221C30.1792 161.5 27.9714 159.293 25.2503 159.293C22.5279 159.293 20.3223 161.5 20.3223 164.221C20.3223 166.944 22.5279 169.148 25.2503 169.148ZM5.33865 169.148C8.05934 169.148 10.2667 166.944 10.2667 164.221C10.2667 161.5 8.05934 159.293 5.33865 159.293C2.61712 159.293 0.411865 161.5 0.411865 164.221C0.411865 166.944 2.61712 169.148 5.33865 169.148ZM483.216 149.237C485.943 149.237 488.145 147.032 488.145 144.308C488.145 141.588 485.943 139.382 483.216 139.382C480.498 139.382 478.289 141.588 478.289 144.308C478.289 147.032 480.498 149.237 483.216 149.237ZM463.304 149.237C466.029 149.237 468.233 147.032 468.233 144.308C468.233 141.588 466.029 139.382 463.304 139.382C460.587 139.382 458.377 141.588 458.377 144.308C458.377 147.032 460.587 149.237 463.304 149.237ZM443.393 149.237C446.117 149.237 448.324 147.032 448.324 144.308C448.324 141.588 446.117 139.382 443.393 139.382C440.673 139.382 438.465 141.588 438.465 144.308C438.465 147.032 440.673 149.237 443.393 149.237ZM403.571 149.237C406.294 149.237 408.503 147.032 408.503 144.308C408.503 141.588 406.294 139.382 403.571 139.382C400.852 139.382 398.642 141.588 398.642 144.308C398.642 147.032 400.852 149.237 403.571 149.237ZM383.659 149.237C386.382 149.237 388.589 147.032 388.589 144.308C388.589 141.588 386.382 139.382 383.659 139.382C380.938 139.382 378.73 141.588 378.73 144.308C378.73 147.032 380.938 149.237 383.659 149.237ZM363.746 149.237C366.471 149.237 368.676 147.032 368.676 144.308C368.676 141.588 366.471 139.382 363.746 139.382C361.027 139.382 358.819 141.588 358.819 144.308C358.819 147.032 361.027 149.237 363.746 149.237ZM343.838 149.237C346.557 149.237 348.765 147.032 348.765 144.308C348.765 141.588 346.557 139.382 343.838 139.382C341.117 139.382 338.908 141.588 338.908 144.308C338.908 147.032 341.117 149.237 343.838 149.237ZM323.925 149.237C326.646 149.237 328.854 147.032 328.854 144.308C328.854 141.588 326.646 139.382 323.925 139.382C321.203 139.382 318.995 141.588 318.995 144.308C318.995 147.032 321.203 149.237 323.925 149.237ZM304.017 149.237C306.736 149.237 308.942 147.032 308.942 144.308C308.942 141.588 306.736 139.382 304.017 139.382C301.29 139.382 299.085 141.588 299.085 144.308C299.085 147.032 301.29 149.237 304.017 149.237ZM284.103 149.237C286.822 149.237 289.029 147.032 289.029 144.308C289.029 141.588 286.822 139.382 284.103 139.382C281.38 139.382 279.172 141.588 279.172 144.308C279.172 147.032 281.38 149.237 284.103 149.237ZM264.191 149.237C266.909 149.237 269.117 147.032 269.117 144.308C269.117 141.588 266.909 139.382 264.191 139.382C261.468 139.382 259.26 141.588 259.26 144.308C259.26 147.032 261.468 149.237 264.191 149.237ZM244.278 149.237C247.001 149.237 249.207 147.032 249.207 144.308C249.207 141.588 247.001 139.382 244.278 139.382C241.556 139.382 239.352 141.588 239.352 144.308C239.352 147.032 241.556 149.237 244.278 149.237ZM224.368 149.237C227.087 149.237 229.294 147.032 229.294 144.308C229.294 141.588 227.087 139.382 224.368 139.382C221.645 139.382 219.439 141.588 219.439 144.308C219.439 147.032 221.645 149.237 224.368 149.237ZM204.455 149.237C207.175 149.237 209.382 147.032 209.382 144.308C209.382 141.588 207.175 139.382 204.455 139.382C201.731 139.382 199.531 141.588 199.531 144.308C199.531 147.032 201.731 149.237 204.455 149.237ZM184.543 149.237C187.266 149.237 189.472 147.032 189.472 144.308C189.472 141.588 187.266 139.382 184.543 139.382C181.823 139.382 179.617 141.588 179.617 144.308C179.617 147.032 181.823 149.237 184.543 149.237ZM164.631 149.237C167.354 149.237 169.56 147.032 169.56 144.308C169.56 141.588 167.354 139.382 164.631 139.382C161.91 139.382 159.704 141.588 159.704 144.308C159.704 147.032 161.91 149.237 164.631 149.237ZM144.72 149.237C147.441 149.237 149.647 147.032 149.647 144.308C149.647 141.588 147.441 139.382 144.72 139.382C141.998 139.382 139.792 141.588 139.792 144.308C139.792 147.032 141.998 149.237 144.72 149.237ZM124.808 149.237C127.529 149.237 129.737 147.032 129.737 144.308C129.737 141.588 127.529 139.382 124.808 139.382C122.087 139.382 119.882 141.588 119.882 144.308C119.882 147.032 122.087 149.237 124.808 149.237ZM104.898 149.237C107.619 149.237 109.824 147.032 109.824 144.308C109.824 141.588 107.619 139.382 104.898 139.382C102.175 139.382 99.9694 141.588 99.9694 144.308C99.9694 147.032 102.175 149.237 104.898 149.237ZM84.9858 149.237C87.7065 149.237 89.9126 147.032 89.9126 144.308C89.9126 141.588 87.7065 139.382 84.9858 139.382C82.2651 139.382 80.0569 141.588 80.0569 144.308C80.0569 147.032 82.2651 149.237 84.9858 149.237ZM65.0732 149.237C67.7965 149.237 70.0017 147.032 70.0017 144.308C70.0017 141.588 67.7965 139.382 65.0732 139.382C62.3526 139.382 60.1443 141.588 60.1443 144.308C60.1443 147.032 62.3526 149.237 65.0732 149.237ZM45.1607 149.237C47.8839 149.237 50.0896 147.032 50.0896 144.308C50.0896 141.588 47.8839 139.382 45.1607 139.382C42.44 139.382 40.2343 141.588 40.2343 144.308C40.2343 147.032 42.44 149.237 45.1607 149.237ZM25.2503 149.237C27.9714 149.237 30.1792 147.032 30.1792 144.308C30.1792 141.588 27.9714 139.382 25.2503 139.382C22.5279 139.382 20.3223 141.588 20.3223 144.308C20.3223 147.032 22.5279 149.237 25.2503 149.237ZM5.33865 149.237C8.05934 149.237 10.2667 147.032 10.2667 144.308C10.2667 141.588 8.05934 139.382 5.33865 139.382C2.61712 139.382 0.411865 141.588 0.411865 144.308C0.411865 147.032 2.61712 149.237 5.33865 149.237ZM483.216 129.327C485.943 129.327 488.145 127.119 488.145 124.399C488.145 121.676 485.943 119.47 483.216 119.47C480.498 119.47 478.289 121.676 478.289 124.399C478.289 127.119 480.498 129.327 483.216 129.327ZM463.304 129.327C466.029 129.327 468.233 127.119 468.233 124.399C468.233 121.676 466.029 119.47 463.304 119.47C460.587 119.47 458.377 121.676 458.377 124.399C458.377 127.119 460.587 129.327 463.304 129.327ZM403.571 129.327C406.294 129.327 408.503 127.119 408.503 124.399C408.503 121.676 406.294 119.47 403.571 119.47C400.852 119.47 398.642 121.676 398.642 124.399C398.642 127.119 400.852 129.327 403.571 129.327ZM383.659 129.327C386.382 129.327 388.589 127.119 388.589 124.399C388.589 121.676 386.382 119.47 383.659 119.47C380.938 119.47 378.73 121.676 378.73 124.399C378.73 127.119 380.938 129.327 383.659 129.327ZM224.368 129.327C227.087 129.327 229.294 127.119 229.294 124.399C229.294 121.676 227.087 119.47 224.368 119.47C221.645 119.47 219.439 121.676 219.439 124.399C219.439 127.119 221.645 129.327 224.368 129.327ZM204.455 129.327C207.175 129.327 209.382 127.119 209.382 124.399C209.382 121.676 207.175 119.47 204.455 119.47C201.731 119.47 199.531 121.676 199.531 124.399C199.531 127.119 201.731 129.327 204.455 129.327ZM184.543 129.327C187.266 129.327 189.472 127.119 189.472 124.399C189.472 121.676 187.266 119.47 184.543 119.47C181.823 119.47 179.617 121.676 179.617 124.399C179.617 127.119 181.823 129.327 184.543 129.327ZM164.631 129.327C167.354 129.327 169.56 127.119 169.56 124.399C169.56 121.676 167.354 119.47 164.631 119.47C161.91 119.47 159.704 121.676 159.704 124.399C159.704 127.119 161.91 129.327 164.631 129.327ZM144.72 129.327C147.441 129.327 149.647 127.119 149.647 124.399C149.647 121.676 147.441 119.47 144.72 119.47C141.998 119.47 139.792 121.676 139.792 124.399C139.792 127.119 141.998 129.327 144.72 129.327ZM124.808 129.327C127.529 129.327 129.737 127.119 129.737 124.399C129.737 121.676 127.529 119.47 124.808 119.47C122.087 119.47 119.882 121.676 119.882 124.399C119.882 127.119 122.087 129.327 124.808 129.327ZM104.898 129.327C107.619 129.327 109.824 127.119 109.824 124.399C109.824 121.676 107.619 119.47 104.898 119.47C102.175 119.47 99.9694 121.676 99.9694 124.399C99.9694 127.119 102.175 129.327 104.898 129.327ZM84.9858 129.327C87.7065 129.327 89.9126 127.119 89.9126 124.399C89.9126 121.676 87.7065 119.47 84.9858 119.47C82.2651 119.47 80.0569 121.676 80.0569 124.399C80.0569 127.119 82.2651 129.327 84.9858 129.327ZM25.2503 129.327C27.9714 129.327 30.1792 127.119 30.1792 124.399C30.1792 121.676 27.9714 119.47 25.2503 119.47C22.5279 119.47 20.3223 121.676 20.3223 124.399C20.3223 127.119 22.5279 129.327 25.2503 129.327ZM5.33865 129.327C8.05934 129.327 10.2667 127.119 10.2667 124.399C10.2667 121.676 8.05934 119.47 5.33865 119.47C2.61712 119.47 0.411865 121.676 0.411865 124.399C0.411865 127.119 2.61712 129.327 5.33865 129.327ZM483.216 109.414C485.943 109.414 488.145 107.207 488.145 104.486C488.145 101.766 485.943 99.5596 483.216 99.5596C480.498 99.5596 478.289 101.766 478.289 104.486C478.289 107.207 480.498 109.414 483.216 109.414ZM224.368 109.414C227.087 109.414 229.294 107.207 229.294 104.486C229.294 101.766 227.087 99.5596 224.368 99.5596C221.645 99.5596 219.439 101.766 219.439 104.486C219.439 107.207 221.645 109.414 224.368 109.414ZM204.455 109.414C207.175 109.414 209.382 107.207 209.382 104.486C209.382 101.766 207.175 99.5596 204.455 99.5596C201.731 99.5596 199.531 101.766 199.531 104.486C199.531 107.207 201.731 109.414 204.455 109.414ZM184.543 109.414C187.266 109.414 189.472 107.207 189.472 104.486C189.472 101.766 187.266 99.5596 184.543 99.5596C181.823 99.5596 179.617 101.766 179.617 104.486C179.617 107.207 181.823 109.414 184.543 109.414ZM164.631 109.414C167.354 109.414 169.56 107.207 169.56 104.486C169.56 101.766 167.354 99.5596 164.631 99.5596C161.91 99.5596 159.704 101.766 159.704 104.486C159.704 107.207 161.91 109.414 164.631 109.414ZM144.72 109.414C147.441 109.414 149.647 107.207 149.647 104.486C149.647 101.766 147.441 99.5596 144.72 99.5596C141.998 99.5596 139.792 101.766 139.792 104.486C139.792 107.207 141.998 109.414 144.72 109.414ZM443.393 89.5028C446.117 89.5028 448.324 87.2967 448.324 84.5739C448.324 81.8532 446.117 79.6471 443.393 79.6471C440.673 79.6471 438.465 81.8532 438.465 84.5739C438.465 87.2967 440.673 89.5028 443.393 89.5028ZM423.482 89.5028C426.206 89.5028 428.412 87.2967 428.412 84.5739C428.412 81.8532 426.206 79.6471 423.482 79.6471C420.762 79.6471 418.555 81.8532 418.555 84.5739C418.555 87.2967 420.762 89.5028 423.482 89.5028ZM403.571 89.5028C406.294 89.5028 408.503 87.2967 408.503 84.5739C408.503 81.8532 406.294 79.6471 403.571 79.6471C400.852 79.6471 398.642 81.8532 398.642 84.5739C398.642 87.2967 400.852 89.5028 403.571 89.5028ZM204.455 89.5028C207.175 89.5028 209.382 87.2967 209.382 84.5739C209.382 81.8532 207.175 79.6471 204.455 79.6471C201.731 79.6471 199.531 81.8532 199.531 84.5739C199.531 87.2967 201.731 89.5028 204.455 89.5028ZM184.543 89.5028C187.266 89.5028 189.472 87.2967 189.472 84.5739C189.472 81.8532 187.266 79.6471 184.543 79.6471C181.823 79.6471 179.617 81.8532 179.617 84.5739C179.617 87.2967 181.823 89.5028 184.543 89.5028ZM164.631 89.5028C167.354 89.5028 169.56 87.2967 169.56 84.5739C169.56 81.8532 167.354 79.6471 164.631 79.6471C161.91 79.6471 159.704 81.8532 159.704 84.5739C159.704 87.2967 161.91 89.5028 164.631 89.5028ZM443.393 69.5903C446.117 69.5903 448.324 67.3846 448.324 64.6614C448.324 61.9428 446.117 59.7346 443.393 59.7346C440.673 59.7346 438.465 61.9428 438.465 64.6614C438.465 67.3846 440.673 69.5903 443.393 69.5903ZM423.482 69.5903C426.206 69.5903 428.412 67.3846 428.412 64.6614C428.412 61.9428 426.206 59.7346 423.482 59.7346C420.762 59.7346 418.555 61.9428 418.555 64.6614C418.555 67.3846 420.762 69.5903 423.482 69.5903ZM244.278 69.5903C247.001 69.5903 249.207 67.3846 249.207 64.6614C249.207 61.9428 247.001 59.7346 244.278 59.7346C241.556 59.7346 239.352 61.9428 239.352 64.6614C239.352 67.3846 241.556 69.5903 244.278 69.5903ZM224.368 69.5903C227.087 69.5903 229.294 67.3846 229.294 64.6614C229.294 61.9428 227.087 59.7346 224.368 59.7346C221.645 59.7346 219.439 61.9428 219.439 64.6614C219.439 67.3846 221.645 69.5903 224.368 69.5903ZM204.455 69.5903C207.175 69.5903 209.382 67.3846 209.382 64.6614C209.382 61.9428 207.175 59.7346 204.455 59.7346C201.731 59.7346 199.531 61.9428 199.531 64.6614C199.531 67.3846 201.731 69.5903 204.455 69.5903ZM184.543 69.5903C187.266 69.5903 189.472 67.3846 189.472 64.6614C189.472 61.9428 187.266 59.7346 184.543 59.7346C181.823 59.7346 179.617 61.9428 179.617 64.6614C179.617 67.3846 181.823 69.5903 184.543 69.5903ZM164.631 69.5903C167.354 69.5903 169.56 67.3846 169.56 64.6614C169.56 61.9428 167.354 59.7346 164.631 59.7346C161.91 59.7346 159.704 61.9428 159.704 64.6614C159.704 67.3846 161.91 69.5903 164.631 69.5903ZM264.191 49.6799C266.909 49.6799 269.117 47.4721 269.117 44.751C269.117 42.0303 266.909 39.8229 264.191 39.8229C261.468 39.8229 259.26 42.0303 259.26 44.751C259.26 47.4721 261.468 49.6799 264.191 49.6799ZM244.278 49.6799C247.001 49.6799 249.207 47.4721 249.207 44.751C249.207 42.0303 247.001 39.8229 244.278 39.8229C241.556 39.8229 239.352 42.0303 239.352 44.751C239.352 47.4721 241.556 49.6799 244.278 49.6799ZM304.017 29.7674C306.736 29.7674 308.942 27.5617 308.942 24.8406C308.942 22.1182 306.736 19.9125 304.017 19.9125C301.29 19.9125 299.085 22.1182 299.085 24.8406C299.085 27.5617 301.29 29.7674 304.017 29.7674ZM284.103 29.7674C286.822 29.7674 289.029 27.5617 289.029 24.8406C289.029 22.1182 286.822 19.9125 284.103 19.9125C281.38 19.9125 279.172 22.1182 279.172 24.8406C279.172 27.5617 281.38 29.7674 284.103 29.7674ZM304.017 9.85697C306.736 9.85697 308.942 7.6496 308.942 4.92891C308.942 2.20567 306.736 0 304.017 0C301.29 0 299.085 2.20567 299.085 4.92891C299.085 7.6496 301.29 9.85697 304.017 9.85697Z" fill="#F2F2F2"/>
</svg>
