<svg width="115" height="114" viewBox="0 0 115 114" fill="none" xmlns="http://www.w3.org/2000/svg">
<path d="M6.20392 3.33082C6.20392 4.86168 4.96275 6.10284 3.43222 6.10284C1.90132 6.10284 0.660156 4.86168 0.660156 3.33082C0.660156 1.79996 1.90132 0.558838 3.43222 0.558838C4.96275 0.558838 6.20392 1.79996 6.20392 3.33082Z" fill="#F2C14B"/>
<path d="M42.3572 3.33082C42.3572 4.86168 41.1165 6.10284 39.5856 6.10284C38.0547 6.10284 36.8139 4.86168 36.8139 3.33082C36.8139 1.79996 38.0547 0.558838 39.5856 0.558838C41.1165 0.558838 42.3572 1.79996 42.3572 3.33082Z" fill="#F2C14B"/>
<path d="M78.5126 3.33082C78.5126 4.86168 77.2718 6.10284 75.7405 6.10284C74.2096 6.10284 72.9688 4.86168 72.9688 3.33082C72.9688 1.79996 74.2096 0.558838 75.7405 0.558838C77.2718 0.558838 78.5126 1.79996 78.5126 3.33082Z" fill="#F2C14B"/>
<path d="M114.667 3.33082C114.667 4.86168 113.425 6.10284 111.895 6.10284C110.364 6.10284 109.122 4.86168 109.122 3.33082C109.122 1.79996 110.364 0.558838 111.895 0.558838C113.425 0.558838 114.667 1.79996 114.667 3.33082Z" fill="#F2C14B"/>
<path d="M6.20392 39.1697C6.20392 40.7006 4.96275 41.9414 3.43222 41.9414C1.90132 41.9414 0.660156 40.7006 0.660156 39.1697C0.660156 37.6388 1.90132 36.3977 3.43222 36.3977C4.96275 36.3977 6.20392 37.6388 6.20392 39.1697Z" fill="#F2C14B"/>
<path d="M42.3572 39.1697C42.3572 40.7006 41.1165 41.9414 39.5856 41.9414C38.0547 41.9414 36.8139 40.7006 36.8139 39.1697C36.8139 37.6388 38.0547 36.3977 39.5856 36.3977C41.1165 36.3977 42.3572 37.6388 42.3572 39.1697Z" fill="#F2C14B"/>
<path d="M78.5126 39.1697C78.5126 40.7006 77.2718 41.9414 75.7405 41.9414C74.2096 41.9414 72.9688 40.7006 72.9688 39.1697C72.9688 37.6388 74.2096 36.3977 75.7405 36.3977C77.2718 36.3977 78.5126 37.6388 78.5126 39.1697Z" fill="#F2C14B"/>
<path d="M114.667 39.1697C114.667 40.7006 113.425 41.9414 111.895 41.9414C110.364 41.9414 109.122 40.7006 109.122 39.1697C109.122 37.6388 110.364 36.3977 111.895 36.3977C113.425 36.3977 114.667 37.6388 114.667 39.1697Z" fill="#F2C14B"/>
<path d="M6.20392 75.0077C6.20392 76.5386 4.96275 77.7797 3.43222 77.7797C1.90132 77.7797 0.660156 76.5386 0.660156 75.0077C0.660156 73.4769 1.90132 72.2361 3.43222 72.2361C4.96275 72.2361 6.20392 73.4769 6.20392 75.0077Z" fill="#F2C14B"/>
<path d="M42.3572 75.0077C42.3572 76.5386 41.1165 77.7797 39.5856 77.7797C38.0547 77.7797 36.8139 76.5386 36.8139 75.0077C36.8139 73.4769 38.0547 72.2361 39.5856 72.2361C41.1165 72.2361 42.3572 73.4769 42.3572 75.0077Z" fill="#F2C14B"/>
<path d="M78.5126 75.0077C78.5126 76.5386 77.2718 77.7797 75.7405 77.7797C74.2096 77.7797 72.9688 76.5386 72.9688 75.0077C72.9688 73.4769 74.2096 72.2361 75.7405 72.2361C77.2718 72.2361 78.5126 73.4769 78.5126 75.0077Z" fill="#F2C14B"/>
<path d="M114.667 75.0077C114.667 76.5386 113.425 77.7797 111.895 77.7797C110.364 77.7797 109.122 76.5386 109.122 75.0077C109.122 73.4769 110.364 72.2361 111.895 72.2361C113.425 72.2361 114.667 73.4769 114.667 75.0077Z" fill="#F2C14B"/>
<path d="M6.20392 110.847C6.20392 112.378 4.96275 113.618 3.43222 113.618C1.90132 113.618 0.660156 112.378 0.660156 110.847C0.660156 109.316 1.90132 108.075 3.43222 108.075C4.96275 108.075 6.20392 109.316 6.20392 110.847Z" fill="#F2C14B"/>
<path d="M42.3572 110.847C42.3572 112.378 41.1165 113.618 39.5856 113.618C38.0547 113.618 36.8139 112.378 36.8139 110.847C36.8139 109.316 38.0547 108.075 39.5856 108.075C41.1165 108.075 42.3572 109.316 42.3572 110.847Z" fill="#F2C14B"/>
<path d="M78.5126 110.847C78.5126 112.378 77.2718 113.618 75.7405 113.618C74.2096 113.618 72.9688 112.378 72.9688 110.847C72.9688 109.316 74.2096 108.075 75.7405 108.075C77.2718 108.075 78.5126 109.316 78.5126 110.847Z" fill="#F2C14B"/>
<path d="M114.667 110.847C114.667 112.378 113.425 113.618 111.895 113.618C110.364 113.618 109.122 112.378 109.122 110.847C109.122 109.316 110.364 108.075 111.895 108.075C113.425 108.075 114.667 109.316 114.667 110.847Z" fill="#F2C14B"/>
</svg>