<svg width="47" height="249" viewBox="0 0 47 249" fill="none" xmlns="http://www.w3.org/2000/svg">
<path d="M6.24843 3.12412C6.24843 4.84957 4.84979 6.24825 3.12427 6.24825C1.39876 6.24825 0 4.84957 0 3.12412C0 1.39868 1.39876 0 3.12427 0C4.84979 0 6.24843 1.39868 6.24843 3.12412Z" fill="#3C4D7B"/>
<path d="M46.9999 3.12412C46.9999 4.84957 45.6012 6.24825 43.8751 6.24825C42.1496 6.24825 40.7509 4.84957 40.7509 3.12412C40.7509 1.39868 42.1496 0 43.8751 0C45.6012 0 46.9999 1.39868 46.9999 3.12412Z" fill="#3C4D7B"/>
<path d="M6.24843 43.5196C6.24843 45.245 4.84979 46.6437 3.12427 46.6437C1.39876 46.6437 0 45.245 0 43.5196C0 41.7942 1.39876 40.3955 3.12427 40.3955C4.84979 40.3955 6.24843 41.7942 6.24843 43.5196Z" fill="#3C4D7B"/>
<path d="M46.9999 43.5196C46.9999 45.245 45.6012 46.6437 43.8751 46.6437C42.1496 46.6437 40.7509 45.245 40.7509 43.5196C40.7509 41.7942 42.1496 40.3955 43.8751 40.3955C45.6012 40.3955 46.9999 41.7942 46.9999 43.5196Z" fill="#3C4D7B"/>
<path d="M6.24843 83.9142C6.24843 85.6396 4.84979 87.0389 3.12427 87.0389C1.39876 87.0389 0 85.6396 0 83.9142C0 82.1887 1.39876 80.79 3.12427 80.79C4.84979 80.79 6.24843 82.1887 6.24843 83.9142Z" fill="#3C4D7B"/>
<path d="M46.9999 83.9142C46.9999 85.6396 45.6012 87.0389 43.8751 87.0389C42.1496 87.0389 40.7509 85.6396 40.7509 83.9142C40.7509 82.1887 42.1496 80.79 43.8751 80.79C45.6012 80.79 46.9999 82.1887 46.9999 83.9142Z" fill="#3C4D7B"/>
<path d="M6.24843 124.31C6.24843 126.036 4.84979 127.434 3.12427 127.434C1.39876 127.434 0 126.036 0 124.31C0 122.585 1.39876 121.186 3.12427 121.186C4.84979 121.186 6.24843 122.585 6.24843 124.31Z" fill="#3C4D7B"/>
<path d="M46.9999 124.31C46.9999 126.036 45.6012 127.434 43.8751 127.434C42.1496 127.434 40.7509 126.036 40.7509 124.31C40.7509 122.585 42.1496 121.186 43.8751 121.186C45.6012 121.186 46.9999 122.585 46.9999 124.31Z" fill="#3C4D7B"/>
<path d="M6.24843 164.705C6.24843 166.43 4.84979 167.829 3.12427 167.829C1.39876 167.829 0 166.43 0 164.705C0 162.979 1.39876 161.581 3.12427 161.581C4.84979 161.581 6.24843 162.979 6.24843 164.705Z" fill="#3C4D7B"/>
<path d="M46.9999 164.705C46.9999 166.43 45.6012 167.829 43.8751 167.829C42.1496 167.829 40.7509 166.43 40.7509 164.705C40.7509 162.979 42.1496 161.581 43.8751 161.581C45.6012 161.581 46.9999 162.979 46.9999 164.705Z" fill="#3C4D7B"/>
<path d="M6.24843 205.1C6.24843 206.826 4.84979 208.225 3.12427 208.225C1.39876 208.225 0 206.826 0 205.1C0 203.375 1.39876 201.976 3.12427 201.976C4.84979 201.976 6.24843 203.375 6.24843 205.1Z" fill="#3C4D7B"/>
<path d="M46.9999 205.1C46.9999 206.826 45.6012 208.225 43.8751 208.225C42.1496 208.225 40.7509 206.826 40.7509 205.1C40.7509 203.375 42.1496 201.976 43.8751 201.976C45.6012 201.976 46.9999 203.375 46.9999 205.1Z" fill="#3C4D7B"/>
<path d="M6.24843 245.495C6.24843 247.221 4.84979 248.62 3.12427 248.62C1.39876 248.62 0 247.221 0 245.495C0 243.77 1.39876 242.371 3.12427 242.371C4.84979 242.371 6.24843 243.77 6.24843 245.495Z" fill="#3C4D7B"/>
<path d="M46.9999 245.495C46.9999 247.221 45.6012 248.62 43.8751 248.62C42.1496 248.62 40.7509 247.221 40.7509 245.495C40.7509 243.77 42.1496 242.371 43.8751 242.371C45.6012 242.371 46.9999 243.77 46.9999 245.495Z" fill="#3C4D7B"/>
</svg>
