<svg width="859" height="257" viewBox="0 0 859 257" fill="none" xmlns="http://www.w3.org/2000/svg">
<path d="M683.283 -41.7838C686.177 -41.7838 688.526 -44.1328 688.526 -47.0279C688.526 -49.9258 686.177 -52.2729 683.283 -52.2729C680.386 -52.2729 678.037 -49.9258 678.037 -47.0279C678.037 -44.1328 680.386 -41.7838 683.283 -41.7838ZM746.85 403.176C749.743 403.176 752.093 400.829 752.093 397.934C752.093 395.037 749.743 392.69 746.85 392.69C743.955 392.69 741.603 395.037 741.603 397.934C741.603 400.829 743.955 403.176 746.85 403.176ZM725.66 403.176C728.555 403.176 730.905 400.829 730.905 397.934C730.905 395.037 728.555 392.69 725.66 392.69C722.763 392.69 720.414 395.037 720.414 397.934C720.414 400.829 722.763 403.176 725.66 403.176ZM704.475 403.176C707.368 403.176 709.716 400.829 709.716 397.934C709.716 395.037 707.368 392.69 704.475 392.69C701.574 392.69 699.227 395.037 699.227 397.934C699.227 400.829 701.574 403.176 704.475 403.176ZM789.225 381.987C792.122 381.987 794.471 379.64 794.471 376.745C794.471 373.849 792.122 371.502 789.225 371.502C786.329 371.502 783.979 373.849 783.979 376.745C783.979 379.64 786.329 381.987 789.225 381.987ZM768.035 381.987C770.934 381.987 773.281 379.64 773.281 376.745C773.281 373.849 770.934 371.502 768.035 371.502C765.141 371.502 762.792 373.849 762.792 376.745C762.792 379.64 765.141 381.987 768.035 381.987ZM746.85 381.987C749.743 381.987 752.093 379.64 752.093 376.745C752.093 373.849 749.743 371.502 746.85 371.502C743.955 371.502 741.603 373.849 741.603 376.745C741.603 379.64 743.955 381.987 746.85 381.987ZM704.475 381.987C707.368 381.987 709.716 379.64 709.716 376.745C709.716 373.849 707.368 371.502 704.475 371.502C701.574 371.502 699.227 373.849 699.227 376.745C699.227 379.64 701.574 381.987 704.475 381.987ZM683.283 381.987C686.177 381.987 688.526 379.64 688.526 376.745C688.526 373.849 686.177 371.502 683.283 371.502C680.386 371.502 678.037 373.849 678.037 376.745C678.037 379.64 680.386 381.987 683.283 381.987ZM662.095 381.987C664.987 381.987 667.337 379.64 667.337 376.745C667.337 373.849 664.987 371.502 662.095 371.502C659.197 371.502 656.848 373.849 656.848 376.745C656.848 379.64 659.197 381.987 662.095 381.987ZM640.905 381.987C643.802 381.987 646.15 379.64 646.15 376.745C646.15 373.849 643.802 371.502 640.905 371.502C638.008 371.502 635.662 373.849 635.662 376.745C635.662 379.64 638.008 381.987 640.905 381.987ZM789.225 360.8C792.122 360.8 794.471 358.453 794.471 355.555C794.471 352.66 792.122 350.313 789.225 350.313C786.329 350.313 783.979 352.66 783.979 355.555C783.979 358.453 786.329 360.8 789.225 360.8ZM768.035 360.8C770.934 360.8 773.281 358.453 773.281 355.555C773.281 352.66 770.934 350.313 768.035 350.313C765.141 350.313 762.792 352.66 762.792 355.555C762.792 358.453 765.141 360.8 768.035 360.8ZM746.85 360.8C749.743 360.8 752.093 358.453 752.093 355.555C752.093 352.66 749.743 350.313 746.85 350.313C743.955 350.313 741.603 352.66 741.603 355.555C741.603 358.453 743.955 360.8 746.85 360.8ZM683.283 360.8C686.177 360.8 688.526 358.453 688.526 355.555C688.526 352.66 686.177 350.313 683.283 350.313C680.386 350.313 678.037 352.66 678.037 355.555C678.037 358.453 680.386 360.8 683.283 360.8ZM662.095 360.8C664.987 360.8 667.337 358.453 667.337 355.555C667.337 352.66 664.987 350.313 662.095 350.313C659.197 350.313 656.848 352.66 656.848 355.555C656.848 358.453 659.197 360.8 662.095 360.8ZM640.905 360.8C643.802 360.8 646.15 358.453 646.15 355.555C646.15 352.66 643.802 350.313 640.905 350.313C638.008 350.313 635.662 352.66 635.662 355.555C635.662 358.453 638.008 360.8 640.905 360.8ZM619.718 360.8C622.611 360.8 624.96 358.453 624.96 355.555C624.96 352.66 622.611 350.313 619.718 350.313C616.82 350.313 614.473 352.66 614.473 355.555C614.473 358.453 616.82 360.8 619.718 360.8ZM598.528 360.8C601.422 360.8 603.771 358.453 603.771 355.555C603.771 352.66 601.422 350.313 598.528 350.313C595.629 350.313 593.288 352.66 593.288 355.555C593.288 358.453 595.629 360.8 598.528 360.8ZM577.339 360.8C580.236 360.8 582.583 358.453 582.583 355.555C582.583 352.66 580.236 350.313 577.339 350.313C574.444 350.313 572.097 352.66 572.097 355.555C572.097 358.453 574.444 360.8 577.339 360.8ZM852.79 339.612C855.688 339.612 858.037 337.263 858.037 334.368C858.037 331.47 855.688 329.123 852.79 329.123C849.895 329.123 847.546 331.47 847.546 334.368C847.546 337.263 849.895 339.612 852.79 339.612ZM810.414 339.612C813.311 339.612 815.662 337.263 815.662 334.368C815.662 331.47 813.311 329.123 810.414 329.123C807.52 329.123 805.169 331.47 805.169 334.368C805.169 337.263 807.52 339.612 810.414 339.612ZM789.225 339.612C792.122 339.612 794.471 337.263 794.471 334.368C794.471 331.47 792.122 329.123 789.225 329.123C786.329 329.123 783.979 331.47 783.979 334.368C783.979 337.263 786.329 339.612 789.225 339.612ZM768.035 339.612C770.934 339.612 773.281 337.263 773.281 334.368C773.281 331.47 770.934 329.123 768.035 329.123C765.141 329.123 762.792 331.47 762.792 334.368C762.792 337.263 765.141 339.612 768.035 339.612ZM746.85 339.612C749.743 339.612 752.093 337.263 752.093 334.368C752.093 331.47 749.743 329.123 746.85 329.123C743.955 329.123 741.603 331.47 741.603 334.368C741.603 337.263 743.955 339.612 746.85 339.612ZM725.66 339.612C728.555 339.612 730.905 337.263 730.905 334.368C730.905 331.47 728.555 329.123 725.66 329.123C722.763 329.123 720.414 331.47 720.414 334.368C720.414 337.263 722.763 339.612 725.66 339.612ZM704.475 339.612C707.368 339.612 709.716 337.263 709.716 334.368C709.716 331.47 707.368 329.123 704.475 329.123C701.574 329.123 699.227 331.47 699.227 334.368C699.227 337.263 701.574 339.612 704.475 339.612ZM683.283 339.612C686.177 339.612 688.526 337.263 688.526 334.368C688.526 331.47 686.177 329.123 683.283 329.123C680.386 329.123 678.037 331.47 678.037 334.368C678.037 337.263 680.386 339.612 683.283 339.612ZM662.095 339.612C664.987 339.612 667.337 337.263 667.337 334.368C667.337 331.47 664.987 329.123 662.095 329.123C659.197 329.123 656.848 331.47 656.848 334.368C656.848 337.263 659.197 339.612 662.095 339.612ZM640.905 339.612C643.802 339.612 646.15 337.263 646.15 334.368C646.15 331.47 643.802 329.123 640.905 329.123C638.008 329.123 635.662 331.47 635.662 334.368C635.662 337.263 638.008 339.612 640.905 339.612ZM619.718 339.612C622.611 339.612 624.96 337.263 624.96 334.368C624.96 331.47 622.611 329.123 619.718 329.123C616.82 329.123 614.473 331.47 614.473 334.368C614.473 337.263 616.82 339.612 619.718 339.612ZM598.528 339.612C601.422 339.612 603.771 337.263 603.771 334.368C603.771 331.47 601.422 329.123 598.528 329.123C595.629 329.123 593.288 331.47 593.288 334.368C593.288 337.263 595.629 339.612 598.528 339.612ZM577.339 339.612C580.236 339.612 582.583 337.263 582.583 334.368C582.583 331.47 580.236 329.123 577.339 329.123C574.444 329.123 572.097 331.47 572.097 334.368C572.097 337.263 574.444 339.612 577.339 339.612ZM556.149 339.612C559.047 339.612 561.394 337.263 561.394 334.368C561.394 331.47 559.047 329.123 556.149 329.123C553.254 329.123 550.907 331.47 550.907 334.368C550.907 337.263 553.254 339.612 556.149 339.612ZM534.962 339.612C537.858 339.612 540.205 337.263 540.205 334.368C540.205 331.47 537.858 329.123 534.962 329.123C532.065 329.123 529.717 331.47 529.717 334.368C529.717 337.263 532.065 339.612 534.962 339.612ZM513.773 339.612C516.668 339.612 519.017 337.263 519.017 334.368C519.017 331.47 516.668 329.123 513.773 329.123C510.877 329.123 508.53 331.47 508.53 334.368C508.53 337.263 510.877 339.612 513.773 339.612ZM492.585 339.612C495.481 339.612 497.828 337.263 497.828 334.368C497.828 331.47 495.481 329.123 492.585 329.123C489.688 329.123 487.341 331.47 487.341 334.368C487.341 337.263 489.688 339.612 492.585 339.612ZM471.396 339.612C474.291 339.612 476.639 337.263 476.639 334.368C476.639 331.47 474.291 329.123 471.396 329.123C468.501 329.123 466.151 331.47 466.151 334.368C466.151 337.263 468.501 339.612 471.396 339.612ZM450.207 339.612C453.105 339.612 455.451 337.263 455.451 334.368C455.451 331.47 453.105 329.123 450.207 329.123C447.312 329.123 444.962 331.47 444.962 334.368C444.962 337.263 447.312 339.612 450.207 339.612ZM429.017 339.612C431.915 339.612 434.262 337.263 434.262 334.368C434.262 331.47 431.915 329.123 429.017 329.123C426.122 329.123 423.775 331.47 423.775 334.368C423.775 337.263 426.122 339.612 429.017 339.612ZM407.83 339.612C410.725 339.612 413.075 337.263 413.075 334.368C413.075 331.47 410.725 329.123 407.83 329.123C404.933 329.123 402.586 331.47 402.586 334.368C402.586 337.263 404.933 339.612 407.83 339.612ZM852.79 318.424C855.688 318.424 858.037 316.074 858.037 313.178C858.037 310.282 855.688 307.934 852.79 307.934C849.895 307.934 847.546 310.282 847.546 313.178C847.546 316.074 849.895 318.424 852.79 318.424ZM831.601 318.424C834.501 318.424 836.848 316.074 836.848 313.178C836.848 310.282 834.501 307.934 831.601 307.934C828.708 307.934 826.359 310.282 826.359 313.178C826.359 316.074 828.708 318.424 831.601 318.424ZM810.414 318.424C813.311 318.424 815.662 316.074 815.662 313.178C815.662 310.282 813.311 307.934 810.414 307.934C807.52 307.934 805.169 310.282 805.169 313.178C805.169 316.074 807.52 318.424 810.414 318.424ZM746.85 318.424C749.743 318.424 752.093 316.074 752.093 313.178C752.093 310.282 749.743 307.934 746.85 307.934C743.955 307.934 741.603 310.282 741.603 313.178C741.603 316.074 743.955 318.424 746.85 318.424ZM725.66 318.424C728.555 318.424 730.905 316.074 730.905 313.178C730.905 310.282 728.555 307.934 725.66 307.934C722.763 307.934 720.414 310.282 720.414 313.178C720.414 316.074 722.763 318.424 725.66 318.424ZM598.528 318.424C601.422 318.424 603.771 316.074 603.771 313.178C603.771 310.282 601.422 307.934 598.528 307.934C595.629 307.934 593.288 310.282 593.288 313.178C593.288 316.074 595.629 318.424 598.528 318.424ZM556.149 318.424C559.047 318.424 561.394 316.074 561.394 313.178C561.394 310.282 559.047 307.934 556.149 307.934C553.254 307.934 550.907 310.282 550.907 313.178C550.907 316.074 553.254 318.424 556.149 318.424ZM534.962 318.424C537.858 318.424 540.205 316.074 540.205 313.178C540.205 310.282 537.858 307.934 534.962 307.934C532.065 307.934 529.717 310.282 529.717 313.178C529.717 316.074 532.065 318.424 534.962 318.424ZM513.773 318.424C516.668 318.424 519.017 316.074 519.017 313.178C519.017 310.282 516.668 307.934 513.773 307.934C510.877 307.934 508.53 310.282 508.53 313.178C508.53 316.074 510.877 318.424 513.773 318.424ZM492.585 318.424C495.481 318.424 497.828 316.074 497.828 313.178C497.828 310.282 495.481 307.934 492.585 307.934C489.688 307.934 487.341 310.282 487.341 313.178C487.341 316.074 489.688 318.424 492.585 318.424ZM471.396 318.424C474.291 318.424 476.639 316.074 476.639 313.178C476.639 310.282 474.291 307.934 471.396 307.934C468.501 307.934 466.151 310.282 466.151 313.178C466.151 316.074 468.501 318.424 471.396 318.424ZM450.207 318.424C453.105 318.424 455.451 316.074 455.451 313.178C455.451 310.282 453.105 307.934 450.207 307.934C447.312 307.934 444.962 310.282 444.962 313.178C444.962 316.074 447.312 318.424 450.207 318.424ZM429.017 318.424C431.915 318.424 434.262 316.074 434.262 313.178C434.262 310.282 431.915 307.934 429.017 307.934C426.122 307.934 423.775 310.282 423.775 313.178C423.775 316.074 426.122 318.424 429.017 318.424ZM407.83 318.424C410.725 318.424 413.075 316.074 413.075 313.178C413.075 310.282 410.725 307.934 407.83 307.934C404.933 307.934 402.586 310.282 402.586 313.178C402.586 316.074 404.933 318.424 407.83 318.424ZM386.641 318.424C389.536 318.424 391.885 316.074 391.885 313.178C391.885 310.282 389.536 307.934 386.641 307.934C383.745 307.934 381.398 310.282 381.398 313.178C381.398 316.074 383.745 318.424 386.641 318.424ZM365.451 318.424C368.348 318.424 370.696 316.074 370.696 313.178C370.696 310.282 368.348 307.934 365.451 307.934C362.556 307.934 360.209 310.282 360.209 313.178C360.209 316.074 362.556 318.424 365.451 318.424ZM344.264 318.424C347.159 318.424 349.507 316.074 349.507 313.178C349.507 310.282 347.159 307.934 344.264 307.934C341.369 307.934 339.019 310.282 339.019 313.178C339.019 316.074 341.369 318.424 344.264 318.424ZM323.075 318.424C325.972 318.424 328.32 316.074 328.32 313.178C328.32 310.282 325.972 307.934 323.075 307.934C320.179 307.934 317.83 310.282 317.83 313.178C317.83 316.074 320.179 318.424 323.075 318.424ZM301.887 318.424C304.783 318.424 307.13 316.074 307.13 313.178C307.13 310.282 304.783 307.934 301.887 307.934C298.99 307.934 296.642 310.282 296.642 313.178C296.642 316.074 298.99 318.424 301.887 318.424ZM683.283 297.234C686.177 297.234 688.526 294.885 688.526 291.989C688.526 289.094 686.177 286.747 683.283 286.747C680.386 286.747 678.037 289.094 678.037 291.989C678.037 294.885 680.386 297.234 683.283 297.234ZM534.962 297.234C537.858 297.234 540.205 294.885 540.205 291.989C540.205 289.094 537.858 286.747 534.962 286.747C532.065 286.747 529.717 289.094 529.717 291.989C529.717 294.885 532.065 297.234 534.962 297.234ZM513.773 297.234C516.668 297.234 519.017 294.885 519.017 291.989C519.017 289.094 516.668 286.747 513.773 286.747C510.877 286.747 508.53 289.094 508.53 291.989C508.53 294.885 510.877 297.234 513.773 297.234ZM492.585 297.234C495.481 297.234 497.828 294.885 497.828 291.989C497.828 289.094 495.481 286.747 492.585 286.747C489.688 286.747 487.341 289.094 487.341 291.989C487.341 294.885 489.688 297.234 492.585 297.234ZM471.396 297.234C474.291 297.234 476.639 294.885 476.639 291.989C476.639 289.094 474.291 286.747 471.396 286.747C468.501 286.747 466.151 289.094 466.151 291.989C466.151 294.885 468.501 297.234 471.396 297.234ZM450.207 297.234C453.105 297.234 455.451 294.885 455.451 291.989C455.451 289.094 453.105 286.747 450.207 286.747C447.312 286.747 444.962 289.094 444.962 291.989C444.962 294.885 447.312 297.234 450.207 297.234ZM429.017 297.234C431.915 297.234 434.262 294.885 434.262 291.989C434.262 289.094 431.915 286.747 429.017 286.747C426.122 286.747 423.775 289.094 423.775 291.989C423.775 294.885 426.122 297.234 429.017 297.234ZM407.83 297.234C410.725 297.234 413.075 294.885 413.075 291.989C413.075 289.094 410.725 286.747 407.83 286.747C404.933 286.747 402.586 289.094 402.586 291.989C402.586 294.885 404.933 297.234 407.83 297.234ZM386.641 297.234C389.536 297.234 391.885 294.885 391.885 291.989C391.885 289.094 389.536 286.747 386.641 286.747C383.745 286.747 381.398 289.094 381.398 291.989C381.398 294.885 383.745 297.234 386.641 297.234ZM365.451 297.234C368.348 297.234 370.696 294.885 370.696 291.989C370.696 289.094 368.348 286.747 365.451 286.747C362.556 286.747 360.209 289.094 360.209 291.989C360.209 294.885 362.556 297.234 365.451 297.234ZM344.264 297.234C347.159 297.234 349.507 294.885 349.507 291.989C349.507 289.094 347.159 286.747 344.264 286.747C341.369 286.747 339.019 289.094 339.019 291.989C339.019 294.885 341.369 297.234 344.264 297.234ZM323.075 297.234C325.972 297.234 328.32 294.885 328.32 291.989C328.32 289.094 325.972 286.747 323.075 286.747C320.179 286.747 317.83 289.094 317.83 291.989C317.83 294.885 320.179 297.234 323.075 297.234ZM301.887 297.234C304.783 297.234 307.13 294.885 307.13 291.989C307.13 289.094 304.783 286.747 301.887 286.747C298.99 286.747 296.642 289.094 296.642 291.989C296.642 294.885 298.99 297.234 301.887 297.234ZM280.698 297.234C283.593 297.234 285.943 294.885 285.943 291.989C285.943 289.094 283.593 286.747 280.698 286.747C277.801 286.747 275.453 289.094 275.453 291.989C275.453 294.885 277.801 297.234 280.698 297.234ZM746.85 276.047C749.743 276.047 752.093 273.698 752.093 270.8C752.093 267.905 749.743 265.557 746.85 265.557C743.955 265.557 741.603 267.905 741.603 270.8C741.603 273.698 743.955 276.047 746.85 276.047ZM725.66 276.047C728.555 276.047 730.905 273.698 730.905 270.8C730.905 267.905 728.555 265.557 725.66 265.557C722.763 265.557 720.414 267.905 720.414 270.8C720.414 273.698 722.763 276.047 725.66 276.047ZM683.283 276.047C686.177 276.047 688.526 273.698 688.526 270.8C688.526 267.905 686.177 265.557 683.283 265.557C680.386 265.557 678.037 267.905 678.037 270.8C678.037 273.698 680.386 276.047 683.283 276.047ZM662.095 276.047C664.987 276.047 667.337 273.698 667.337 270.8C667.337 267.905 664.987 265.557 662.095 265.557C659.197 265.557 656.848 267.905 656.848 270.8C656.848 273.698 659.197 276.047 662.095 276.047ZM640.905 276.047C643.802 276.047 646.15 273.698 646.15 270.8C646.15 267.905 643.802 265.557 640.905 265.557C638.008 265.557 635.662 267.905 635.662 270.8C635.662 273.698 638.008 276.047 640.905 276.047ZM429.017 276.047C431.915 276.047 434.262 273.698 434.262 270.8C434.262 267.905 431.915 265.557 429.017 265.557C426.122 265.557 423.775 267.905 423.775 270.8C423.775 273.698 426.122 276.047 429.017 276.047ZM365.451 276.047C368.348 276.047 370.696 273.698 370.696 270.8C370.696 267.905 368.348 265.557 365.451 265.557C362.556 265.557 360.209 267.905 360.209 270.8C360.209 273.698 362.556 276.047 365.451 276.047ZM344.264 276.047C347.159 276.047 349.507 273.698 349.507 270.8C349.507 267.905 347.159 265.557 344.264 265.557C341.369 265.557 339.019 267.905 339.019 270.8C339.019 273.698 341.369 276.047 344.264 276.047ZM323.075 276.047C325.972 276.047 328.32 273.698 328.32 270.8C328.32 267.905 325.972 265.557 323.075 265.557C320.179 265.557 317.83 267.905 317.83 270.8C317.83 273.698 320.179 276.047 323.075 276.047ZM301.887 276.047C304.783 276.047 307.13 273.698 307.13 270.8C307.13 267.905 304.783 265.557 301.887 265.557C298.99 265.557 296.642 267.905 296.642 270.8C296.642 273.698 298.99 276.047 301.887 276.047ZM280.698 276.047C283.593 276.047 285.943 273.698 285.943 270.8C285.943 267.905 283.593 265.557 280.698 265.557C277.801 265.557 275.453 267.905 275.453 270.8C275.453 273.698 277.801 276.047 280.698 276.047ZM259.509 276.047C262.404 276.047 264.753 273.698 264.753 270.8C264.753 267.905 262.404 265.557 259.509 265.557C256.613 265.557 254.264 267.905 254.264 270.8C254.264 273.698 256.613 276.047 259.509 276.047ZM746.85 254.857C749.743 254.857 752.093 252.51 752.093 249.613C752.093 246.717 749.743 244.368 746.85 244.368C743.955 244.368 741.603 246.717 741.603 249.613C741.603 252.51 743.955 254.857 746.85 254.857ZM725.66 254.857C728.555 254.857 730.905 252.51 730.905 249.613C730.905 246.717 728.555 244.368 725.66 244.368C722.763 244.368 720.414 246.717 720.414 249.613C720.414 252.51 722.763 254.857 725.66 254.857ZM704.475 254.857C707.368 254.857 709.716 252.51 709.716 249.613C709.716 246.717 707.368 244.368 704.475 244.368C701.574 244.368 699.227 246.717 699.227 249.613C699.227 252.51 701.574 254.857 704.475 254.857ZM683.283 254.857C686.177 254.857 688.526 252.51 688.526 249.613C688.526 246.717 686.177 244.368 683.283 244.368C680.386 244.368 678.037 246.717 678.037 249.613C678.037 252.51 680.386 254.857 683.283 254.857ZM662.095 254.857C664.987 254.857 667.337 252.51 667.337 249.613C667.337 246.717 664.987 244.368 662.095 244.368C659.197 244.368 656.848 246.717 656.848 249.613C656.848 252.51 659.197 254.857 662.095 254.857ZM640.905 254.857C643.802 254.857 646.15 252.51 646.15 249.613C646.15 246.717 643.802 244.368 640.905 244.368C638.008 244.368 635.662 246.717 635.662 249.613C635.662 252.51 638.008 254.857 640.905 254.857ZM301.887 254.857C304.783 254.857 307.13 252.51 307.13 249.613C307.13 246.717 304.783 244.368 301.887 244.368C298.99 244.368 296.642 246.717 296.642 249.613C296.642 252.51 298.99 254.857 301.887 254.857ZM280.698 254.857C283.593 254.857 285.943 252.51 285.943 249.613C285.943 246.717 283.593 244.368 280.698 244.368C277.801 244.368 275.453 246.717 275.453 249.613C275.453 252.51 277.801 254.857 280.698 254.857ZM259.509 254.857C262.404 254.857 264.753 252.51 264.753 249.613C264.753 246.717 262.404 244.368 259.509 244.368C256.613 244.368 254.264 246.717 254.264 249.613C254.264 252.51 256.613 254.857 259.509 254.857ZM238.319 254.857C241.217 254.857 243.564 252.51 243.564 249.613C243.564 246.717 241.217 244.368 238.319 244.368C235.424 244.368 233.077 246.717 233.077 249.613C233.077 252.51 235.424 254.857 238.319 254.857ZM217.132 254.857C220.027 254.857 222.374 252.51 222.374 249.613C222.374 246.717 220.027 244.368 217.132 244.368C214.234 244.368 211.887 246.717 211.887 249.613C211.887 252.51 214.234 254.857 217.132 254.857ZM195.942 254.857C198.84 254.857 201.187 252.51 201.187 249.613C201.187 246.717 198.84 244.368 195.942 244.368C193.047 244.368 190.7 246.717 190.7 249.613C190.7 252.51 193.047 254.857 195.942 254.857ZM852.79 233.668C855.688 233.668 858.037 231.321 858.037 228.426C858.037 225.528 855.688 223.181 852.79 223.181C849.895 223.181 847.546 225.528 847.546 228.426C847.546 231.321 849.895 233.668 852.79 233.668ZM831.601 233.668C834.501 233.668 836.848 231.321 836.848 228.426C836.848 225.528 834.501 223.181 831.601 223.181C828.708 223.181 826.359 225.528 826.359 228.426C826.359 231.321 828.708 233.668 831.601 233.668ZM746.85 233.668C749.743 233.668 752.093 231.321 752.093 228.426C752.093 225.528 749.743 223.181 746.85 223.181C743.955 223.181 741.603 225.528 741.603 228.426C741.603 231.321 743.955 233.668 746.85 233.668ZM725.66 233.668C728.555 233.668 730.905 231.321 730.905 228.426C730.905 225.528 728.555 223.181 725.66 223.181C722.763 223.181 720.414 225.528 720.414 228.426C720.414 231.321 722.763 233.668 725.66 233.668ZM704.475 233.668C707.368 233.668 709.716 231.321 709.716 228.426C709.716 225.528 707.368 223.181 704.475 223.181C701.574 223.181 699.227 225.528 699.227 228.426C699.227 231.321 701.574 233.668 704.475 233.668ZM683.283 233.668C686.177 233.668 688.526 231.321 688.526 228.426C688.526 225.528 686.177 223.181 683.283 223.181C680.386 223.181 678.037 225.528 678.037 228.426C678.037 231.321 680.386 233.668 683.283 233.668ZM662.095 233.668C664.987 233.668 667.337 231.321 667.337 228.426C667.337 225.528 664.987 223.181 662.095 223.181C659.197 223.181 656.848 225.528 656.848 228.426C656.848 231.321 659.197 233.668 662.095 233.668ZM640.905 233.668C643.802 233.668 646.15 231.321 646.15 228.426C646.15 225.528 643.802 223.181 640.905 223.181C638.008 223.181 635.662 225.528 635.662 228.426C635.662 231.321 638.008 233.668 640.905 233.668ZM577.339 233.668C580.236 233.668 582.583 231.321 582.583 228.426C582.583 225.528 580.236 223.181 577.339 223.181C574.444 223.181 572.097 225.528 572.097 228.426C572.097 231.321 574.444 233.668 577.339 233.668ZM556.149 233.668C559.047 233.668 561.394 231.321 561.394 228.426C561.394 225.528 559.047 223.181 556.149 223.181C553.254 223.181 550.907 225.528 550.907 228.426C550.907 231.321 553.254 233.668 556.149 233.668ZM534.962 233.668C537.858 233.668 540.205 231.321 540.205 228.426C540.205 225.528 537.858 223.181 534.962 223.181C532.065 223.181 529.717 225.528 529.717 228.426C529.717 231.321 532.065 233.668 534.962 233.668ZM513.773 233.668C516.668 233.668 519.017 231.321 519.017 228.426C519.017 225.528 516.668 223.181 513.773 223.181C510.877 223.181 508.53 225.528 508.53 228.426C508.53 231.321 510.877 233.668 513.773 233.668ZM301.887 233.668C304.783 233.668 307.13 231.321 307.13 228.426C307.13 225.528 304.783 223.181 301.887 223.181C298.99 223.181 296.642 225.528 296.642 228.426C296.642 231.321 298.99 233.668 301.887 233.668ZM280.698 233.668C283.593 233.668 285.943 231.321 285.943 228.426C285.943 225.528 283.593 223.181 280.698 223.181C277.801 223.181 275.453 225.528 275.453 228.426C275.453 231.321 277.801 233.668 280.698 233.668ZM259.509 233.668C262.404 233.668 264.753 231.321 264.753 228.426C264.753 225.528 262.404 223.181 259.509 223.181C256.613 223.181 254.264 225.528 254.264 228.426C254.264 231.321 256.613 233.668 259.509 233.668ZM238.319 233.668C241.217 233.668 243.564 231.321 243.564 228.426C243.564 225.528 241.217 223.181 238.319 223.181C235.424 223.181 233.077 225.528 233.077 228.426C233.077 231.321 235.424 233.668 238.319 233.668ZM217.132 233.668C220.027 233.668 222.374 231.321 222.374 228.426C222.374 225.528 220.027 223.181 217.132 223.181C214.234 223.181 211.887 225.528 211.887 228.426C211.887 231.321 214.234 233.668 217.132 233.668ZM195.942 233.668C198.84 233.668 201.187 231.321 201.187 228.426C201.187 225.528 198.84 223.181 195.942 223.181C193.047 223.181 190.7 225.528 190.7 228.426C190.7 231.321 193.047 233.668 195.942 233.668ZM852.79 212.478C855.688 212.478 858.037 210.131 858.037 207.236C858.037 204.34 855.688 201.991 852.79 201.991C849.895 201.991 847.546 204.34 847.546 207.236C847.546 210.131 849.895 212.478 852.79 212.478ZM831.601 212.478C834.501 212.478 836.848 210.131 836.848 207.236C836.848 204.34 834.501 201.991 831.601 201.991C828.708 201.991 826.359 204.34 826.359 207.236C826.359 210.131 828.708 212.478 831.601 212.478ZM810.414 212.478C813.311 212.478 815.662 210.131 815.662 207.236C815.662 204.34 813.311 201.991 810.414 201.991C807.52 201.991 805.169 204.34 805.169 207.236C805.169 210.131 807.52 212.478 810.414 212.478ZM725.66 212.478C728.555 212.478 730.905 210.131 730.905 207.236C730.905 204.34 728.555 201.991 725.66 201.991C722.763 201.991 720.414 204.34 720.414 207.236C720.414 210.131 722.763 212.478 725.66 212.478ZM704.475 212.478C707.368 212.478 709.716 210.131 709.716 207.236C709.716 204.34 707.368 201.991 704.475 201.991C701.574 201.991 699.227 204.34 699.227 207.236C699.227 210.131 701.574 212.478 704.475 212.478ZM683.283 212.478C686.177 212.478 688.526 210.131 688.526 207.236C688.526 204.34 686.177 201.991 683.283 201.991C680.386 201.991 678.037 204.34 678.037 207.236C678.037 210.131 680.386 212.478 683.283 212.478ZM662.095 212.478C664.987 212.478 667.337 210.131 667.337 207.236C667.337 204.34 664.987 201.991 662.095 201.991C659.197 201.991 656.848 204.34 656.848 207.236C656.848 210.131 659.197 212.478 662.095 212.478ZM640.905 212.478C643.802 212.478 646.15 210.131 646.15 207.236C646.15 204.34 643.802 201.991 640.905 201.991C638.008 201.991 635.662 204.34 635.662 207.236C635.662 210.131 638.008 212.478 640.905 212.478ZM577.339 212.478C580.236 212.478 582.583 210.131 582.583 207.236C582.583 204.34 580.236 201.991 577.339 201.991C574.444 201.991 572.097 204.34 572.097 207.236C572.097 210.131 574.444 212.478 577.339 212.478ZM556.149 212.478C559.047 212.478 561.394 210.131 561.394 207.236C561.394 204.34 559.047 201.991 556.149 201.991C553.254 201.991 550.907 204.34 550.907 207.236C550.907 210.131 553.254 212.478 556.149 212.478ZM534.962 212.478C537.858 212.478 540.205 210.131 540.205 207.236C540.205 204.34 537.858 201.991 534.962 201.991C532.065 201.991 529.717 204.34 529.717 207.236C529.717 210.131 532.065 212.478 534.962 212.478ZM513.773 212.478C516.668 212.478 519.017 210.131 519.017 207.236C519.017 204.34 516.668 201.991 513.773 201.991C510.877 201.991 508.53 204.34 508.53 207.236C508.53 210.131 510.877 212.478 513.773 212.478ZM492.585 212.478C495.481 212.478 497.828 210.131 497.828 207.236C497.828 204.34 495.481 201.991 492.585 201.991C489.688 201.991 487.341 204.34 487.341 207.236C487.341 210.131 489.688 212.478 492.585 212.478ZM471.396 212.478C474.291 212.478 476.639 210.131 476.639 207.236C476.639 204.34 474.291 201.991 471.396 201.991C468.501 201.991 466.151 204.34 466.151 207.236C466.151 210.131 468.501 212.478 471.396 212.478ZM450.207 212.478C453.105 212.478 455.451 210.131 455.451 207.236C455.451 204.34 453.105 201.991 450.207 201.991C447.312 201.991 444.962 204.34 444.962 207.236C444.962 210.131 447.312 212.478 450.207 212.478ZM429.017 212.478C431.915 212.478 434.262 210.131 434.262 207.236C434.262 204.34 431.915 201.991 429.017 201.991C426.122 201.991 423.775 204.34 423.775 207.236C423.775 210.131 426.122 212.478 429.017 212.478ZM407.83 212.478C410.725 212.478 413.075 210.131 413.075 207.236C413.075 204.34 410.725 201.991 407.83 201.991C404.933 201.991 402.586 204.34 402.586 207.236C402.586 210.131 404.933 212.478 407.83 212.478ZM365.451 212.478C368.348 212.478 370.696 210.131 370.696 207.236C370.696 204.34 368.348 201.991 365.451 201.991C362.556 201.991 360.209 204.34 360.209 207.236C360.209 210.131 362.556 212.478 365.451 212.478ZM344.264 212.478C347.159 212.478 349.507 210.131 349.507 207.236C349.507 204.34 347.159 201.991 344.264 201.991C341.369 201.991 339.019 204.34 339.019 207.236C339.019 210.131 341.369 212.478 344.264 212.478ZM323.075 212.478C325.972 212.478 328.32 210.131 328.32 207.236C328.32 204.34 325.972 201.991 323.075 201.991C320.179 201.991 317.83 204.34 317.83 207.236C317.83 210.131 320.179 212.478 323.075 212.478ZM301.887 212.478C304.783 212.478 307.13 210.131 307.13 207.236C307.13 204.34 304.783 201.991 301.887 201.991C298.99 201.991 296.642 204.34 296.642 207.236C296.642 210.131 298.99 212.478 301.887 212.478ZM280.698 212.478C283.593 212.478 285.943 210.131 285.943 207.236C285.943 204.34 283.593 201.991 280.698 201.991C277.801 201.991 275.453 204.34 275.453 207.236C275.453 210.131 277.801 212.478 280.698 212.478ZM259.509 212.478C262.404 212.478 264.753 210.131 264.753 207.236C264.753 204.34 262.404 201.991 259.509 201.991C256.613 201.991 254.264 204.34 254.264 207.236C254.264 210.131 256.613 212.478 259.509 212.478ZM238.319 212.478C241.217 212.478 243.564 210.131 243.564 207.236C243.564 204.34 241.217 201.991 238.319 201.991C235.424 201.991 233.077 204.34 233.077 207.236C233.077 210.131 235.424 212.478 238.319 212.478ZM217.132 212.478C220.027 212.478 222.374 210.131 222.374 207.236C222.374 204.34 220.027 201.991 217.132 201.991C214.234 201.991 211.887 204.34 211.887 207.236C211.887 210.131 214.234 212.478 217.132 212.478ZM195.942 212.478C198.84 212.478 201.187 210.131 201.187 207.236C201.187 204.34 198.84 201.991 195.942 201.991C193.047 201.991 190.7 204.34 190.7 207.236C190.7 210.131 193.047 212.478 195.942 212.478ZM174.755 212.478C177.65 212.478 179.998 210.131 179.998 207.236C179.998 204.34 177.65 201.991 174.755 201.991C171.858 201.991 169.511 204.34 169.511 207.236C169.511 210.131 171.858 212.478 174.755 212.478ZM153.566 212.478C156.462 212.478 158.809 210.131 158.809 207.236C158.809 204.34 156.462 201.991 153.566 201.991C150.671 201.991 148.321 204.34 148.321 207.236C148.321 210.131 150.671 212.478 153.566 212.478ZM831.601 191.291C834.501 191.291 836.848 188.944 836.848 186.046C836.848 183.151 834.501 180.802 831.601 180.802C828.708 180.802 826.359 183.151 826.359 186.046C826.359 188.944 828.708 191.291 831.601 191.291ZM810.414 191.291C813.311 191.291 815.662 188.944 815.662 186.046C815.662 183.151 813.311 180.802 810.414 180.802C807.52 180.802 805.169 183.151 805.169 186.046C805.169 188.944 807.52 191.291 810.414 191.291ZM789.225 191.291C792.122 191.291 794.471 188.944 794.471 186.046C794.471 183.151 792.122 180.802 789.225 180.802C786.329 180.802 783.979 183.151 783.979 186.046C783.979 188.944 786.329 191.291 789.225 191.291ZM725.66 191.291C728.555 191.291 730.905 188.944 730.905 186.046C730.905 183.151 728.555 180.802 725.66 180.802C722.763 180.802 720.414 183.151 720.414 186.046C720.414 188.944 722.763 191.291 725.66 191.291ZM704.475 191.291C707.368 191.291 709.716 188.944 709.716 186.046C709.716 183.151 707.368 180.802 704.475 180.802C701.574 180.802 699.227 183.151 699.227 186.046C699.227 188.944 701.574 191.291 704.475 191.291ZM683.283 191.291C686.177 191.291 688.526 188.944 688.526 186.046C688.526 183.151 686.177 180.802 683.283 180.802C680.386 180.802 678.037 183.151 678.037 186.046C678.037 188.944 680.386 191.291 683.283 191.291ZM662.095 191.291C664.987 191.291 667.337 188.944 667.337 186.046C667.337 183.151 664.987 180.802 662.095 180.802C659.197 180.802 656.848 183.151 656.848 186.046C656.848 188.944 659.197 191.291 662.095 191.291ZM640.905 191.291C643.802 191.291 646.15 188.944 646.15 186.046C646.15 183.151 643.802 180.802 640.905 180.802C638.008 180.802 635.662 183.151 635.662 186.046C635.662 188.944 638.008 191.291 640.905 191.291ZM577.339 191.291C580.236 191.291 582.583 188.944 582.583 186.046C582.583 183.151 580.236 180.802 577.339 180.802C574.444 180.802 572.097 183.151 572.097 186.046C572.097 188.944 574.444 191.291 577.339 191.291ZM556.149 191.291C559.047 191.291 561.394 188.944 561.394 186.046C561.394 183.151 559.047 180.802 556.149 180.802C553.254 180.802 550.907 183.151 550.907 186.046C550.907 188.944 553.254 191.291 556.149 191.291ZM534.962 191.291C537.858 191.291 540.205 188.944 540.205 186.046C540.205 183.151 537.858 180.802 534.962 180.802C532.065 180.802 529.717 183.151 529.717 186.046C529.717 188.944 532.065 191.291 534.962 191.291ZM513.773 191.291C516.668 191.291 519.017 188.944 519.017 186.046C519.017 183.151 516.668 180.802 513.773 180.802C510.877 180.802 508.53 183.151 508.53 186.046C508.53 188.944 510.877 191.291 513.773 191.291ZM492.585 191.291C495.481 191.291 497.828 188.944 497.828 186.046C497.828 183.151 495.481 180.802 492.585 180.802C489.688 180.802 487.341 183.151 487.341 186.046C487.341 188.944 489.688 191.291 492.585 191.291ZM471.396 191.291C474.291 191.291 476.639 188.944 476.639 186.046C476.639 183.151 474.291 180.802 471.396 180.802C468.501 180.802 466.151 183.151 466.151 186.046C466.151 188.944 468.501 191.291 471.396 191.291ZM450.207 191.291C453.105 191.291 455.451 188.944 455.451 186.046C455.451 183.151 453.105 180.802 450.207 180.802C447.312 180.802 444.962 183.151 444.962 186.046C444.962 188.944 447.312 191.291 450.207 191.291ZM429.017 191.291C431.915 191.291 434.262 188.944 434.262 186.046C434.262 183.151 431.915 180.802 429.017 180.802C426.122 180.802 423.775 183.151 423.775 186.046C423.775 188.944 426.122 191.291 429.017 191.291ZM407.83 191.291C410.725 191.291 413.075 188.944 413.075 186.046C413.075 183.151 410.725 180.802 407.83 180.802C404.933 180.802 402.586 183.151 402.586 186.046C402.586 188.944 404.933 191.291 407.83 191.291ZM365.451 191.291C368.348 191.291 370.696 188.944 370.696 186.046C370.696 183.151 368.348 180.802 365.451 180.802C362.556 180.802 360.209 183.151 360.209 186.046C360.209 188.944 362.556 191.291 365.451 191.291ZM344.264 191.291C347.159 191.291 349.507 188.944 349.507 186.046C349.507 183.151 347.159 180.802 344.264 180.802C341.369 180.802 339.019 183.151 339.019 186.046C339.019 188.944 341.369 191.291 344.264 191.291ZM323.075 191.291C325.972 191.291 328.32 188.944 328.32 186.046C328.32 183.151 325.972 180.802 323.075 180.802C320.179 180.802 317.83 183.151 317.83 186.046C317.83 188.944 320.179 191.291 323.075 191.291ZM301.887 191.291C304.783 191.291 307.13 188.944 307.13 186.046C307.13 183.151 304.783 180.802 301.887 180.802C298.99 180.802 296.642 183.151 296.642 186.046C296.642 188.944 298.99 191.291 301.887 191.291ZM280.698 191.291C283.593 191.291 285.943 188.944 285.943 186.046C285.943 183.151 283.593 180.802 280.698 180.802C277.801 180.802 275.453 183.151 275.453 186.046C275.453 188.944 277.801 191.291 280.698 191.291ZM259.509 191.291C262.404 191.291 264.753 188.944 264.753 186.046C264.753 183.151 262.404 180.802 259.509 180.802C256.613 180.802 254.264 183.151 254.264 186.046C254.264 188.944 256.613 191.291 259.509 191.291ZM238.319 191.291C241.217 191.291 243.564 188.944 243.564 186.046C243.564 183.151 241.217 180.802 238.319 180.802C235.424 180.802 233.077 183.151 233.077 186.046C233.077 188.944 235.424 191.291 238.319 191.291ZM217.132 191.291C220.027 191.291 222.374 188.944 222.374 186.046C222.374 183.151 220.027 180.802 217.132 180.802C214.234 180.802 211.887 183.151 211.887 186.046C211.887 188.944 214.234 191.291 217.132 191.291ZM195.942 191.291C198.84 191.291 201.187 188.944 201.187 186.046C201.187 183.151 198.84 180.802 195.942 180.802C193.047 180.802 190.7 183.151 190.7 186.046C190.7 188.944 193.047 191.291 195.942 191.291ZM174.755 191.291C177.65 191.291 179.998 188.944 179.998 186.046C179.998 183.151 177.65 180.802 174.755 180.802C171.858 180.802 169.511 183.151 169.511 186.046C169.511 188.944 171.858 191.291 174.755 191.291ZM153.566 191.291C156.462 191.291 158.809 188.944 158.809 186.046C158.809 183.151 156.462 180.802 153.566 180.802C150.671 180.802 148.321 183.151 148.321 186.046C148.321 188.944 150.671 191.291 153.566 191.291ZM132.376 191.291C135.274 191.291 137.621 188.944 137.621 186.046C137.621 183.151 135.274 180.802 132.376 180.802C129.481 180.802 127.132 183.151 127.132 186.046C127.132 188.944 129.481 191.291 132.376 191.291ZM852.79 170.102C855.688 170.102 858.037 167.754 858.037 164.859C858.037 161.962 855.688 159.615 852.79 159.615C849.895 159.615 847.546 161.962 847.546 164.859C847.546 167.754 849.895 170.102 852.79 170.102ZM831.601 170.102C834.501 170.102 836.848 167.754 836.848 164.859C836.848 161.962 834.501 159.615 831.601 159.615C828.708 159.615 826.359 161.962 826.359 164.859C826.359 167.754 828.708 170.102 831.601 170.102ZM810.414 170.102C813.311 170.102 815.662 167.754 815.662 164.859C815.662 161.962 813.311 159.615 810.414 159.615C807.52 159.615 805.169 161.962 805.169 164.859C805.169 167.754 807.52 170.102 810.414 170.102ZM789.225 170.102C792.122 170.102 794.471 167.754 794.471 164.859C794.471 161.962 792.122 159.615 789.225 159.615C786.329 159.615 783.979 161.962 783.979 164.859C783.979 167.754 786.329 170.102 789.225 170.102ZM768.035 170.102C770.934 170.102 773.281 167.754 773.281 164.859C773.281 161.962 770.934 159.615 768.035 159.615C765.141 159.615 762.792 161.962 762.792 164.859C762.792 167.754 765.141 170.102 768.035 170.102ZM746.85 170.102C749.743 170.102 752.093 167.754 752.093 164.859C752.093 161.962 749.743 159.615 746.85 159.615C743.955 159.615 741.603 161.962 741.603 164.859C741.603 167.754 743.955 170.102 746.85 170.102ZM725.66 170.102C728.555 170.102 730.905 167.754 730.905 164.859C730.905 161.962 728.555 159.615 725.66 159.615C722.763 159.615 720.414 161.962 720.414 164.859C720.414 167.754 722.763 170.102 725.66 170.102ZM704.475 170.102C707.368 170.102 709.716 167.754 709.716 164.859C709.716 161.962 707.368 159.615 704.475 159.615C701.574 159.615 699.227 161.962 699.227 164.859C699.227 167.754 701.574 170.102 704.475 170.102ZM683.283 170.102C686.177 170.102 688.526 167.754 688.526 164.859C688.526 161.962 686.177 159.615 683.283 159.615C680.386 159.615 678.037 161.962 678.037 164.859C678.037 167.754 680.386 170.102 683.283 170.102ZM662.095 170.102C664.987 170.102 667.337 167.754 667.337 164.859C667.337 161.962 664.987 159.615 662.095 159.615C659.197 159.615 656.848 161.962 656.848 164.859C656.848 167.754 659.197 170.102 662.095 170.102ZM640.905 170.102C643.802 170.102 646.15 167.754 646.15 164.859C646.15 161.962 643.802 159.615 640.905 159.615C638.008 159.615 635.662 161.962 635.662 164.859C635.662 167.754 638.008 170.102 640.905 170.102ZM577.339 170.102C580.236 170.102 582.583 167.754 582.583 164.859C582.583 161.962 580.236 159.615 577.339 159.615C574.444 159.615 572.097 161.962 572.097 164.859C572.097 167.754 574.444 170.102 577.339 170.102ZM556.149 170.102C559.047 170.102 561.394 167.754 561.394 164.859C561.394 161.962 559.047 159.615 556.149 159.615C553.254 159.615 550.907 161.962 550.907 164.859C550.907 167.754 553.254 170.102 556.149 170.102ZM534.962 170.102C537.858 170.102 540.205 167.754 540.205 164.859C540.205 161.962 537.858 159.615 534.962 159.615C532.065 159.615 529.717 161.962 529.717 164.859C529.717 167.754 532.065 170.102 534.962 170.102ZM513.773 170.102C516.668 170.102 519.017 167.754 519.017 164.859C519.017 161.962 516.668 159.615 513.773 159.615C510.877 159.615 508.53 161.962 508.53 164.859C508.53 167.754 510.877 170.102 513.773 170.102ZM492.585 170.102C495.481 170.102 497.828 167.754 497.828 164.859C497.828 161.962 495.481 159.615 492.585 159.615C489.688 159.615 487.341 161.962 487.341 164.859C487.341 167.754 489.688 170.102 492.585 170.102ZM471.396 170.102C474.291 170.102 476.639 167.754 476.639 164.859C476.639 161.962 474.291 159.615 471.396 159.615C468.501 159.615 466.151 161.962 466.151 164.859C466.151 167.754 468.501 170.102 471.396 170.102ZM450.207 170.102C453.105 170.102 455.451 167.754 455.451 164.859C455.451 161.962 453.105 159.615 450.207 159.615C447.312 159.615 444.962 161.962 444.962 164.859C444.962 167.754 447.312 170.102 450.207 170.102ZM429.017 170.102C431.915 170.102 434.262 167.754 434.262 164.859C434.262 161.962 431.915 159.615 429.017 159.615C426.122 159.615 423.775 161.962 423.775 164.859C423.775 167.754 426.122 170.102 429.017 170.102ZM407.83 170.102C410.725 170.102 413.075 167.754 413.075 164.859C413.075 161.962 410.725 159.615 407.83 159.615C404.933 159.615 402.586 161.962 402.586 164.859C402.586 167.754 404.933 170.102 407.83 170.102ZM386.641 170.102C389.536 170.102 391.885 167.754 391.885 164.859C391.885 161.962 389.536 159.615 386.641 159.615C383.745 159.615 381.398 161.962 381.398 164.859C381.398 167.754 383.745 170.102 386.641 170.102ZM365.451 170.102C368.348 170.102 370.696 167.754 370.696 164.859C370.696 161.962 368.348 159.615 365.451 159.615C362.556 159.615 360.209 161.962 360.209 164.859C360.209 167.754 362.556 170.102 365.451 170.102ZM301.887 170.102C304.783 170.102 307.13 167.754 307.13 164.859C307.13 161.962 304.783 159.615 301.887 159.615C298.99 159.615 296.642 161.962 296.642 164.859C296.642 167.754 298.99 170.102 301.887 170.102ZM280.698 170.102C283.593 170.102 285.943 167.754 285.943 164.859C285.943 161.962 283.593 159.615 280.698 159.615C277.801 159.615 275.453 161.962 275.453 164.859C275.453 167.754 277.801 170.102 280.698 170.102ZM259.509 170.102C262.404 170.102 264.753 167.754 264.753 164.859C264.753 161.962 262.404 159.615 259.509 159.615C256.613 159.615 254.264 161.962 254.264 164.859C254.264 167.754 256.613 170.102 259.509 170.102ZM238.319 170.102C241.217 170.102 243.564 167.754 243.564 164.859C243.564 161.962 241.217 159.615 238.319 159.615C235.424 159.615 233.077 161.962 233.077 164.859C233.077 167.754 235.424 170.102 238.319 170.102ZM217.132 170.102C220.027 170.102 222.374 167.754 222.374 164.859C222.374 161.962 220.027 159.615 217.132 159.615C214.234 159.615 211.887 161.962 211.887 164.859C211.887 167.754 214.234 170.102 217.132 170.102ZM195.942 170.102C198.84 170.102 201.187 167.754 201.187 164.859C201.187 161.962 198.84 159.615 195.942 159.615C193.047 159.615 190.7 161.962 190.7 164.859C190.7 167.754 193.047 170.102 195.942 170.102ZM174.755 170.102C177.65 170.102 179.998 167.754 179.998 164.859C179.998 161.962 177.65 159.615 174.755 159.615C171.858 159.615 169.511 161.962 169.511 164.859C169.511 167.754 171.858 170.102 174.755 170.102ZM153.566 170.102C156.462 170.102 158.809 167.754 158.809 164.859C158.809 161.962 156.462 159.615 153.566 159.615C150.671 159.615 148.321 161.962 148.321 164.859C148.321 167.754 150.671 170.102 153.566 170.102ZM132.376 170.102C135.274 170.102 137.621 167.754 137.621 164.859C137.621 161.962 135.274 159.615 132.376 159.615C129.481 159.615 127.132 161.962 127.132 164.859C127.132 167.754 129.481 170.102 132.376 170.102ZM111.187 170.102C114.085 170.102 116.432 167.754 116.432 164.859C116.432 161.962 114.085 159.615 111.187 159.615C108.292 159.615 105.944 161.962 105.944 164.859C105.944 167.754 108.292 170.102 111.187 170.102ZM852.79 148.913C855.688 148.913 858.037 146.566 858.037 143.67C858.037 140.775 855.688 138.425 852.79 138.425C849.895 138.425 847.546 140.775 847.546 143.67C847.546 146.566 849.895 148.913 852.79 148.913ZM768.035 148.913C770.934 148.913 773.281 146.566 773.281 143.67C773.281 140.775 770.934 138.425 768.035 138.425C765.141 138.425 762.792 140.775 762.792 143.67C762.792 146.566 765.141 148.913 768.035 148.913ZM746.85 148.913C749.743 148.913 752.093 146.566 752.093 143.67C752.093 140.775 749.743 138.425 746.85 138.425C743.955 138.425 741.603 140.775 741.603 143.67C741.603 146.566 743.955 148.913 746.85 148.913ZM725.66 148.913C728.555 148.913 730.905 146.566 730.905 143.67C730.905 140.775 728.555 138.425 725.66 138.425C722.763 138.425 720.414 140.775 720.414 143.67C720.414 146.566 722.763 148.913 725.66 148.913ZM704.475 148.913C707.368 148.913 709.716 146.566 709.716 143.67C709.716 140.775 707.368 138.425 704.475 138.425C701.574 138.425 699.227 140.775 699.227 143.67C699.227 146.566 701.574 148.913 704.475 148.913ZM683.283 148.913C686.177 148.913 688.526 146.566 688.526 143.67C688.526 140.775 686.177 138.425 683.283 138.425C680.386 138.425 678.037 140.775 678.037 143.67C678.037 146.566 680.386 148.913 683.283 148.913ZM662.095 148.913C664.987 148.913 667.337 146.566 667.337 143.67C667.337 140.775 664.987 138.425 662.095 138.425C659.197 138.425 656.848 140.775 656.848 143.67C656.848 146.566 659.197 148.913 662.095 148.913ZM640.905 148.913C643.802 148.913 646.15 146.566 646.15 143.67C646.15 140.775 643.802 138.425 640.905 138.425C638.008 138.425 635.662 140.775 635.662 143.67C635.662 146.566 638.008 148.913 640.905 148.913ZM598.528 148.913C601.422 148.913 603.771 146.566 603.771 143.67C603.771 140.775 601.422 138.425 598.528 138.425C595.629 138.425 593.288 140.775 593.288 143.67C593.288 146.566 595.629 148.913 598.528 148.913ZM577.339 148.913C580.236 148.913 582.583 146.566 582.583 143.67C582.583 140.775 580.236 138.425 577.339 138.425C574.444 138.425 572.097 140.775 572.097 143.67C572.097 146.566 574.444 148.913 577.339 148.913ZM556.149 148.913C559.047 148.913 561.394 146.566 561.394 143.67C561.394 140.775 559.047 138.425 556.149 138.425C553.254 138.425 550.907 140.775 550.907 143.67C550.907 146.566 553.254 148.913 556.149 148.913ZM534.962 148.913C537.858 148.913 540.205 146.566 540.205 143.67C540.205 140.775 537.858 138.425 534.962 138.425C532.065 138.425 529.717 140.775 529.717 143.67C529.717 146.566 532.065 148.913 534.962 148.913ZM513.773 148.913C516.668 148.913 519.017 146.566 519.017 143.67C519.017 140.775 516.668 138.425 513.773 138.425C510.877 138.425 508.53 140.775 508.53 143.67C508.53 146.566 510.877 148.913 513.773 148.913ZM492.585 148.913C495.481 148.913 497.828 146.566 497.828 143.67C497.828 140.775 495.481 138.425 492.585 138.425C489.688 138.425 487.341 140.775 487.341 143.67C487.341 146.566 489.688 148.913 492.585 148.913ZM471.396 148.913C474.291 148.913 476.639 146.566 476.639 143.67C476.639 140.775 474.291 138.425 471.396 138.425C468.501 138.425 466.151 140.775 466.151 143.67C466.151 146.566 468.501 148.913 471.396 148.913ZM450.207 148.913C453.105 148.913 455.451 146.566 455.451 143.67C455.451 140.775 453.105 138.425 450.207 138.425C447.312 138.425 444.962 140.775 444.962 143.67C444.962 146.566 447.312 148.913 450.207 148.913ZM429.017 148.913C431.915 148.913 434.262 146.566 434.262 143.67C434.262 140.775 431.915 138.425 429.017 138.425C426.122 138.425 423.775 140.775 423.775 143.67C423.775 146.566 426.122 148.913 429.017 148.913ZM407.83 148.913C410.725 148.913 413.075 146.566 413.075 143.67C413.075 140.775 410.725 138.425 407.83 138.425C404.933 138.425 402.586 140.775 402.586 143.67C402.586 146.566 404.933 148.913 407.83 148.913ZM386.641 148.913C389.536 148.913 391.885 146.566 391.885 143.67C391.885 140.775 389.536 138.425 386.641 138.425C383.745 138.425 381.398 140.775 381.398 143.67C381.398 146.566 383.745 148.913 386.641 148.913ZM280.698 148.913C283.593 148.913 285.943 146.566 285.943 143.67C285.943 140.775 283.593 138.425 280.698 138.425C277.801 138.425 275.453 140.775 275.453 143.67C275.453 146.566 277.801 148.913 280.698 148.913ZM259.509 148.913C262.404 148.913 264.753 146.566 264.753 143.67C264.753 140.775 262.404 138.425 259.509 138.425C256.613 138.425 254.264 140.775 254.264 143.67C254.264 146.566 256.613 148.913 259.509 148.913ZM238.319 148.913C241.217 148.913 243.564 146.566 243.564 143.67C243.564 140.775 241.217 138.425 238.319 138.425C235.424 138.425 233.077 140.775 233.077 143.67C233.077 146.566 235.424 148.913 238.319 148.913ZM217.132 148.913C220.027 148.913 222.374 146.566 222.374 143.67C222.374 140.775 220.027 138.425 217.132 138.425C214.234 138.425 211.887 140.775 211.887 143.67C211.887 146.566 214.234 148.913 217.132 148.913ZM195.942 148.913C198.84 148.913 201.187 146.566 201.187 143.67C201.187 140.775 198.84 138.425 195.942 138.425C193.047 138.425 190.7 140.775 190.7 143.67C190.7 146.566 193.047 148.913 195.942 148.913ZM174.755 148.913C177.65 148.913 179.998 146.566 179.998 143.67C179.998 140.775 177.65 138.425 174.755 138.425C171.858 138.425 169.511 140.775 169.511 143.67C169.511 146.566 171.858 148.913 174.755 148.913ZM153.566 148.913C156.462 148.913 158.809 146.566 158.809 143.67C158.809 140.775 156.462 138.425 153.566 138.425C150.671 138.425 148.321 140.775 148.321 143.67C148.321 146.566 150.671 148.913 153.566 148.913ZM132.376 148.913C135.274 148.913 137.621 146.566 137.621 143.67C137.621 140.775 135.274 138.425 132.376 138.425C129.481 138.425 127.132 140.775 127.132 143.67C127.132 146.566 129.481 148.913 132.376 148.913ZM111.187 148.913C114.085 148.913 116.432 146.566 116.432 143.67C116.432 140.775 114.085 138.425 111.187 138.425C108.292 138.425 105.944 140.775 105.944 143.67C105.944 146.566 108.292 148.913 111.187 148.913ZM89.9998 148.913C92.895 148.913 95.2444 146.566 95.2444 143.67C95.2444 140.775 92.895 138.425 89.9998 138.425C87.1028 138.425 84.7552 140.775 84.7552 143.67C84.7552 146.566 87.1028 148.913 89.9998 148.913ZM789.225 127.723C792.122 127.723 794.471 125.378 794.471 122.48C794.471 119.585 792.122 117.236 789.225 117.236C786.329 117.236 783.979 119.585 783.979 122.48C783.979 125.378 786.329 127.723 789.225 127.723ZM768.035 127.723C770.934 127.723 773.281 125.378 773.281 122.48C773.281 119.585 770.934 117.236 768.035 117.236C765.141 117.236 762.792 119.585 762.792 122.48C762.792 125.378 765.141 127.723 768.035 127.723ZM746.85 127.723C749.743 127.723 752.093 125.378 752.093 122.48C752.093 119.585 749.743 117.236 746.85 117.236C743.955 117.236 741.603 119.585 741.603 122.48C741.603 125.378 743.955 127.723 746.85 127.723ZM725.66 127.723C728.555 127.723 730.905 125.378 730.905 122.48C730.905 119.585 728.555 117.236 725.66 117.236C722.763 117.236 720.414 119.585 720.414 122.48C720.414 125.378 722.763 127.723 725.66 127.723ZM704.475 127.723C707.368 127.723 709.716 125.378 709.716 122.48C709.716 119.585 707.368 117.236 704.475 117.236C701.574 117.236 699.227 119.585 699.227 122.48C699.227 125.378 701.574 127.723 704.475 127.723ZM683.283 127.723C686.177 127.723 688.526 125.378 688.526 122.48C688.526 119.585 686.177 117.236 683.283 117.236C680.386 117.236 678.037 119.585 678.037 122.48C678.037 125.378 680.386 127.723 683.283 127.723ZM662.095 127.723C664.987 127.723 667.337 125.378 667.337 122.48C667.337 119.585 664.987 117.236 662.095 117.236C659.197 117.236 656.848 119.585 656.848 122.48C656.848 125.378 659.197 127.723 662.095 127.723ZM598.528 127.723C601.422 127.723 603.771 125.378 603.771 122.48C603.771 119.585 601.422 117.236 598.528 117.236C595.629 117.236 593.288 119.585 593.288 122.48C593.288 125.378 595.629 127.723 598.528 127.723ZM577.339 127.723C580.236 127.723 582.583 125.378 582.583 122.48C582.583 119.585 580.236 117.236 577.339 117.236C574.444 117.236 572.097 119.585 572.097 122.48C572.097 125.378 574.444 127.723 577.339 127.723ZM556.149 127.723C559.047 127.723 561.394 125.378 561.394 122.48C561.394 119.585 559.047 117.236 556.149 117.236C553.254 117.236 550.907 119.585 550.907 122.48C550.907 125.378 553.254 127.723 556.149 127.723ZM534.962 127.723C537.858 127.723 540.205 125.378 540.205 122.48C540.205 119.585 537.858 117.236 534.962 117.236C532.065 117.236 529.717 119.585 529.717 122.48C529.717 125.378 532.065 127.723 534.962 127.723ZM513.773 127.723C516.668 127.723 519.017 125.378 519.017 122.48C519.017 119.585 516.668 117.236 513.773 117.236C510.877 117.236 508.53 119.585 508.53 122.48C508.53 125.378 510.877 127.723 513.773 127.723ZM492.585 127.723C495.481 127.723 497.828 125.378 497.828 122.48C497.828 119.585 495.481 117.236 492.585 117.236C489.688 117.236 487.341 119.585 487.341 122.48C487.341 125.378 489.688 127.723 492.585 127.723ZM471.396 127.723C474.291 127.723 476.639 125.378 476.639 122.48C476.639 119.585 474.291 117.236 471.396 117.236C468.501 117.236 466.151 119.585 466.151 122.48C466.151 125.378 468.501 127.723 471.396 127.723ZM450.207 127.723C453.105 127.723 455.451 125.378 455.451 122.48C455.451 119.585 453.105 117.236 450.207 117.236C447.312 117.236 444.962 119.585 444.962 122.48C444.962 125.378 447.312 127.723 450.207 127.723ZM429.017 127.723C431.915 127.723 434.262 125.378 434.262 122.48C434.262 119.585 431.915 117.236 429.017 117.236C426.122 117.236 423.775 119.585 423.775 122.48C423.775 125.378 426.122 127.723 429.017 127.723ZM407.83 127.723C410.725 127.723 413.075 125.378 413.075 122.48C413.075 119.585 410.725 117.236 407.83 117.236C404.933 117.236 402.586 119.585 402.586 122.48C402.586 125.378 404.933 127.723 407.83 127.723ZM386.641 127.723C389.536 127.723 391.885 125.378 391.885 122.48C391.885 119.585 389.536 117.236 386.641 117.236C383.745 117.236 381.398 119.585 381.398 122.48C381.398 125.378 383.745 127.723 386.641 127.723ZM280.698 127.723C283.593 127.723 285.943 125.378 285.943 122.48C285.943 119.585 283.593 117.236 280.698 117.236C277.801 117.236 275.453 119.585 275.453 122.48C275.453 125.378 277.801 127.723 280.698 127.723ZM259.509 127.723C262.404 127.723 264.753 125.378 264.753 122.48C264.753 119.585 262.404 117.236 259.509 117.236C256.613 117.236 254.264 119.585 254.264 122.48C254.264 125.378 256.613 127.723 259.509 127.723ZM238.319 127.723C241.217 127.723 243.564 125.378 243.564 122.48C243.564 119.585 241.217 117.236 238.319 117.236C235.424 117.236 233.077 119.585 233.077 122.48C233.077 125.378 235.424 127.723 238.319 127.723ZM217.132 127.723C220.027 127.723 222.374 125.378 222.374 122.48C222.374 119.585 220.027 117.236 217.132 117.236C214.234 117.236 211.887 119.585 211.887 122.48C211.887 125.378 214.234 127.723 217.132 127.723ZM195.942 127.723C198.84 127.723 201.187 125.378 201.187 122.48C201.187 119.585 198.84 117.236 195.942 117.236C193.047 117.236 190.7 119.585 190.7 122.48C190.7 125.378 193.047 127.723 195.942 127.723ZM174.755 127.723C177.65 127.723 179.998 125.378 179.998 122.48C179.998 119.585 177.65 117.236 174.755 117.236C171.858 117.236 169.511 119.585 169.511 122.48C169.511 125.378 171.858 127.723 174.755 127.723ZM153.566 127.723C156.462 127.723 158.809 125.378 158.809 122.48C158.809 119.585 156.462 117.236 153.566 117.236C150.671 117.236 148.321 119.585 148.321 122.48C148.321 125.378 150.671 127.723 153.566 127.723ZM132.376 127.723C135.274 127.723 137.621 125.378 137.621 122.48C137.621 119.585 135.274 117.236 132.376 117.236C129.481 117.236 127.132 119.585 127.132 122.48C127.132 125.378 129.481 127.723 132.376 127.723ZM111.187 127.723C114.085 127.723 116.432 125.378 116.432 122.48C116.432 119.585 114.085 117.236 111.187 117.236C108.292 117.236 105.944 119.585 105.944 122.48C105.944 125.378 108.292 127.723 111.187 127.723ZM89.9998 127.723C92.895 127.723 95.2444 125.378 95.2444 122.48C95.2444 119.585 92.895 117.236 89.9998 117.236C87.1028 117.236 84.7552 119.585 84.7552 122.48C84.7552 125.378 87.1028 127.723 89.9998 127.723ZM852.79 106.536C855.688 106.536 858.037 104.189 858.037 101.291C858.037 98.3955 855.688 96.0483 852.79 96.0483C849.895 96.0483 847.546 98.3955 847.546 101.291C847.546 104.189 849.895 106.536 852.79 106.536ZM810.414 106.536C813.311 106.536 815.662 104.189 815.662 101.291C815.662 98.3955 813.311 96.0483 810.414 96.0483C807.52 96.0483 805.169 98.3955 805.169 101.291C805.169 104.189 807.52 106.536 810.414 106.536ZM789.225 106.536C792.122 106.536 794.471 104.189 794.471 101.291C794.471 98.3955 792.122 96.0483 789.225 96.0483C786.329 96.0483 783.979 98.3955 783.979 101.291C783.979 104.189 786.329 106.536 789.225 106.536ZM768.035 106.536C770.934 106.536 773.281 104.189 773.281 101.291C773.281 98.3955 770.934 96.0483 768.035 96.0483C765.141 96.0483 762.792 98.3955 762.792 101.291C762.792 104.189 765.141 106.536 768.035 106.536ZM746.85 106.536C749.743 106.536 752.093 104.189 752.093 101.291C752.093 98.3955 749.743 96.0483 746.85 96.0483C743.955 96.0483 741.603 98.3955 741.603 101.291C741.603 104.189 743.955 106.536 746.85 106.536ZM725.66 106.536C728.555 106.536 730.905 104.189 730.905 101.291C730.905 98.3955 728.555 96.0483 725.66 96.0483C722.763 96.0483 720.414 98.3955 720.414 101.291C720.414 104.189 722.763 106.536 725.66 106.536ZM704.475 106.536C707.368 106.536 709.716 104.189 709.716 101.291C709.716 98.3955 707.368 96.0483 704.475 96.0483C701.574 96.0483 699.227 98.3955 699.227 101.291C699.227 104.189 701.574 106.536 704.475 106.536ZM683.283 106.536C686.177 106.536 688.526 104.189 688.526 101.291C688.526 98.3955 686.177 96.0483 683.283 96.0483C680.386 96.0483 678.037 98.3955 678.037 101.291C678.037 104.189 680.386 106.536 683.283 106.536ZM662.095 106.536C664.987 106.536 667.337 104.189 667.337 101.291C667.337 98.3955 664.987 96.0483 662.095 96.0483C659.197 96.0483 656.848 98.3955 656.848 101.291C656.848 104.189 659.197 106.536 662.095 106.536ZM640.905 106.536C643.802 106.536 646.15 104.189 646.15 101.291C646.15 98.3955 643.802 96.0483 640.905 96.0483C638.008 96.0483 635.662 98.3955 635.662 101.291C635.662 104.189 638.008 106.536 640.905 106.536ZM619.718 106.536C622.611 106.536 624.96 104.189 624.96 101.291C624.96 98.3955 622.611 96.0483 619.718 96.0483C616.82 96.0483 614.473 98.3955 614.473 101.291C614.473 104.189 616.82 106.536 619.718 106.536ZM598.528 106.536C601.422 106.536 603.771 104.189 603.771 101.291C603.771 98.3955 601.422 96.0483 598.528 96.0483C595.629 96.0483 593.288 98.3955 593.288 101.291C593.288 104.189 595.629 106.536 598.528 106.536ZM577.339 106.536C580.236 106.536 582.583 104.189 582.583 101.291C582.583 98.3955 580.236 96.0483 577.339 96.0483C574.444 96.0483 572.097 98.3955 572.097 101.291C572.097 104.189 574.444 106.536 577.339 106.536ZM556.149 106.536C559.047 106.536 561.394 104.189 561.394 101.291C561.394 98.3955 559.047 96.0483 556.149 96.0483C553.254 96.0483 550.907 98.3955 550.907 101.291C550.907 104.189 553.254 106.536 556.149 106.536ZM534.962 106.536C537.858 106.536 540.205 104.189 540.205 101.291C540.205 98.3955 537.858 96.0483 534.962 96.0483C532.065 96.0483 529.717 98.3955 529.717 101.291C529.717 104.189 532.065 106.536 534.962 106.536ZM513.773 106.536C516.668 106.536 519.017 104.189 519.017 101.291C519.017 98.3955 516.668 96.0483 513.773 96.0483C510.877 96.0483 508.53 98.3955 508.53 101.291C508.53 104.189 510.877 106.536 513.773 106.536ZM492.585 106.536C495.481 106.536 497.828 104.189 497.828 101.291C497.828 98.3955 495.481 96.0483 492.585 96.0483C489.688 96.0483 487.341 98.3955 487.341 101.291C487.341 104.189 489.688 106.536 492.585 106.536ZM471.396 106.536C474.291 106.536 476.639 104.189 476.639 101.291C476.639 98.3955 474.291 96.0483 471.396 96.0483C468.501 96.0483 466.151 98.3955 466.151 101.291C466.151 104.189 468.501 106.536 471.396 106.536ZM450.207 106.536C453.105 106.536 455.451 104.189 455.451 101.291C455.451 98.3955 453.105 96.0483 450.207 96.0483C447.312 96.0483 444.962 98.3955 444.962 101.291C444.962 104.189 447.312 106.536 450.207 106.536ZM429.017 106.536C431.915 106.536 434.262 104.189 434.262 101.291C434.262 98.3955 431.915 96.0483 429.017 96.0483C426.122 96.0483 423.775 98.3955 423.775 101.291C423.775 104.189 426.122 106.536 429.017 106.536ZM407.83 106.536C410.725 106.536 413.075 104.189 413.075 101.291C413.075 98.3955 410.725 96.0483 407.83 96.0483C404.933 96.0483 402.586 98.3955 402.586 101.291C402.586 104.189 404.933 106.536 407.83 106.536ZM386.641 106.536C389.536 106.536 391.885 104.189 391.885 101.291C391.885 98.3955 389.536 96.0483 386.641 96.0483C383.745 96.0483 381.398 98.3955 381.398 101.291C381.398 104.189 383.745 106.536 386.641 106.536ZM259.509 106.536C262.404 106.536 264.753 104.189 264.753 101.291C264.753 98.3955 262.404 96.0483 259.509 96.0483C256.613 96.0483 254.264 98.3955 254.264 101.291C254.264 104.189 256.613 106.536 259.509 106.536ZM238.319 106.536C241.217 106.536 243.564 104.189 243.564 101.291C243.564 98.3955 241.217 96.0483 238.319 96.0483C235.424 96.0483 233.077 98.3955 233.077 101.291C233.077 104.189 235.424 106.536 238.319 106.536ZM217.132 106.536C220.027 106.536 222.374 104.189 222.374 101.291C222.374 98.3955 220.027 96.0483 217.132 96.0483C214.234 96.0483 211.887 98.3955 211.887 101.291C211.887 104.189 214.234 106.536 217.132 106.536ZM195.942 106.536C198.84 106.536 201.187 104.189 201.187 101.291C201.187 98.3955 198.84 96.0483 195.942 96.0483C193.047 96.0483 190.7 98.3955 190.7 101.291C190.7 104.189 193.047 106.536 195.942 106.536ZM174.755 106.536C177.65 106.536 179.998 104.189 179.998 101.291C179.998 98.3955 177.65 96.0483 174.755 96.0483C171.858 96.0483 169.511 98.3955 169.511 101.291C169.511 104.189 171.858 106.536 174.755 106.536ZM153.566 106.536C156.462 106.536 158.809 104.189 158.809 101.291C158.809 98.3955 156.462 96.0483 153.566 96.0483C150.671 96.0483 148.321 98.3955 148.321 101.291C148.321 104.189 150.671 106.536 153.566 106.536ZM132.376 106.536C135.274 106.536 137.621 104.189 137.621 101.291C137.621 98.3955 135.274 96.0483 132.376 96.0483C129.481 96.0483 127.132 98.3955 127.132 101.291C127.132 104.189 129.481 106.536 132.376 106.536ZM111.187 106.536C114.085 106.536 116.432 104.189 116.432 101.291C116.432 98.3955 114.085 96.0483 111.187 96.0483C108.292 96.0483 105.944 98.3955 105.944 101.291C105.944 104.189 108.292 106.536 111.187 106.536ZM89.9998 106.536C92.895 106.536 95.2444 104.189 95.2444 101.291C95.2444 98.3955 92.895 96.0483 89.9998 96.0483C87.1028 96.0483 84.7552 98.3955 84.7552 101.291C84.7552 104.189 87.1028 106.536 89.9998 106.536ZM68.8107 106.536C71.7058 106.536 74.0548 104.189 74.0548 101.291C74.0548 98.3955 71.7058 96.0483 68.8107 96.0483C65.9155 96.0483 63.5679 98.3955 63.5679 101.291C63.5679 104.189 65.9155 106.536 68.8107 106.536ZM810.414 85.3483C813.311 85.3483 815.662 82.999 815.662 80.1038C815.662 77.2064 813.311 74.8592 810.414 74.8592C807.52 74.8592 805.169 77.2064 805.169 80.1038C805.169 82.999 807.52 85.3483 810.414 85.3483ZM789.225 85.3483C792.122 85.3483 794.471 82.999 794.471 80.1038C794.471 77.2064 792.122 74.8592 789.225 74.8592C786.329 74.8592 783.979 77.2064 783.979 80.1038C783.979 82.999 786.329 85.3483 789.225 85.3483ZM619.718 85.3483C622.611 85.3483 624.96 82.999 624.96 80.1038C624.96 77.2064 622.611 74.8592 619.718 74.8592C616.82 74.8592 614.473 77.2064 614.473 80.1038C614.473 82.999 616.82 85.3483 619.718 85.3483ZM598.528 85.3483C601.422 85.3483 603.771 82.999 603.771 80.1038C603.771 77.2064 601.422 74.8592 598.528 74.8592C595.629 74.8592 593.288 77.2064 593.288 80.1038C593.288 82.999 595.629 85.3483 598.528 85.3483ZM577.339 85.3483C580.236 85.3483 582.583 82.999 582.583 80.1038C582.583 77.2064 580.236 74.8592 577.339 74.8592C574.444 74.8592 572.097 77.2064 572.097 80.1038C572.097 82.999 574.444 85.3483 577.339 85.3483ZM556.149 85.3483C559.047 85.3483 561.394 82.999 561.394 80.1038C561.394 77.2064 559.047 74.8592 556.149 74.8592C553.254 74.8592 550.907 77.2064 550.907 80.1038C550.907 82.999 553.254 85.3483 556.149 85.3483ZM534.962 85.3483C537.858 85.3483 540.205 82.999 540.205 80.1038C540.205 77.2064 537.858 74.8592 534.962 74.8592C532.065 74.8592 529.717 77.2064 529.717 80.1038C529.717 82.999 532.065 85.3483 534.962 85.3483ZM513.773 85.3483C516.668 85.3483 519.017 82.999 519.017 80.1038C519.017 77.2064 516.668 74.8592 513.773 74.8592C510.877 74.8592 508.53 77.2064 508.53 80.1038C508.53 82.999 510.877 85.3483 513.773 85.3483ZM492.585 85.3483C495.481 85.3483 497.828 82.999 497.828 80.1038C497.828 77.2064 495.481 74.8592 492.585 74.8592C489.688 74.8592 487.341 77.2064 487.341 80.1038C487.341 82.999 489.688 85.3483 492.585 85.3483ZM471.396 85.3483C474.291 85.3483 476.639 82.999 476.639 80.1038C476.639 77.2064 474.291 74.8592 471.396 74.8592C468.501 74.8592 466.151 77.2064 466.151 80.1038C466.151 82.999 468.501 85.3483 471.396 85.3483ZM407.83 85.3483C410.725 85.3483 413.075 82.999 413.075 80.1038C413.075 77.2064 410.725 74.8592 407.83 74.8592C404.933 74.8592 402.586 77.2064 402.586 80.1038C402.586 82.999 404.933 85.3483 407.83 85.3483ZM386.641 85.3483C389.536 85.3483 391.885 82.999 391.885 80.1038C391.885 77.2064 389.536 74.8592 386.641 74.8592C383.745 74.8592 381.398 77.2064 381.398 80.1038C381.398 82.999 383.745 85.3483 386.641 85.3483ZM195.942 85.3483C198.84 85.3483 201.187 82.999 201.187 80.1038C201.187 77.2064 198.84 74.8592 195.942 74.8592C193.047 74.8592 190.7 77.2064 190.7 80.1038C190.7 82.999 193.047 85.3483 195.942 85.3483ZM174.755 85.3483C177.65 85.3483 179.998 82.999 179.998 80.1038C179.998 77.2064 177.65 74.8592 174.755 74.8592C171.858 74.8592 169.511 77.2064 169.511 80.1038C169.511 82.999 171.858 85.3483 174.755 85.3483ZM153.566 85.3483C156.462 85.3483 158.809 82.999 158.809 80.1038C158.809 77.2064 156.462 74.8592 153.566 74.8592C150.671 74.8592 148.321 77.2064 148.321 80.1038C148.321 82.999 150.671 85.3483 153.566 85.3483ZM132.376 85.3483C135.274 85.3483 137.621 82.999 137.621 80.1038C137.621 77.2064 135.274 74.8592 132.376 74.8592C129.481 74.8592 127.132 77.2064 127.132 80.1038C127.132 82.999 129.481 85.3483 132.376 85.3483ZM111.187 85.3483C114.085 85.3483 116.432 82.999 116.432 80.1038C116.432 77.2064 114.085 74.8592 111.187 74.8592C108.292 74.8592 105.944 77.2064 105.944 80.1038C105.944 82.999 108.292 85.3483 111.187 85.3483ZM89.9998 85.3483C92.895 85.3483 95.2444 82.999 95.2444 80.1038C95.2444 77.2064 92.895 74.8592 89.9998 74.8592C87.1028 74.8592 84.7552 77.2064 84.7552 80.1038C84.7552 82.999 87.1028 85.3483 89.9998 85.3483ZM68.8107 85.3483C71.7058 85.3483 74.0548 82.999 74.0548 80.1038C74.0548 77.2064 71.7058 74.8592 68.8107 74.8592C65.9155 74.8592 63.5679 77.2064 63.5679 80.1038C63.5679 82.999 65.9155 85.3483 68.8107 85.3483ZM619.718 64.1588C622.611 64.1588 624.96 61.8098 624.96 58.9146C624.96 56.0195 622.611 53.6719 619.718 53.6719C616.82 53.6719 614.473 56.0195 614.473 58.9146C614.473 61.8098 616.82 64.1588 619.718 64.1588ZM598.528 64.1588C601.422 64.1588 603.771 61.8098 603.771 58.9146C603.771 56.0195 601.422 53.6719 598.528 53.6719C595.629 53.6719 593.288 56.0195 593.288 58.9146C593.288 61.8098 595.629 64.1588 598.528 64.1588ZM577.339 64.1588C580.236 64.1588 582.583 61.8098 582.583 58.9146C582.583 56.0195 580.236 53.6719 577.339 53.6719C574.444 53.6719 572.097 56.0195 572.097 58.9146C572.097 61.8098 574.444 64.1588 577.339 64.1588ZM556.149 64.1588C559.047 64.1588 561.394 61.8098 561.394 58.9146C561.394 56.0195 559.047 53.6719 556.149 53.6719C553.254 53.6719 550.907 56.0195 550.907 58.9146C550.907 61.8098 553.254 64.1588 556.149 64.1588ZM534.962 64.1588C537.858 64.1588 540.205 61.8098 540.205 58.9146C540.205 56.0195 537.858 53.6719 534.962 53.6719C532.065 53.6719 529.717 56.0195 529.717 58.9146C529.717 61.8098 532.065 64.1588 534.962 64.1588ZM301.887 64.1588C304.783 64.1588 307.13 61.8098 307.13 58.9146C307.13 56.0195 304.783 53.6719 301.887 53.6719C298.99 53.6719 296.642 56.0195 296.642 58.9146C296.642 61.8098 298.99 64.1588 301.887 64.1588ZM280.698 64.1588C283.593 64.1588 285.943 61.8098 285.943 58.9146C285.943 56.0195 283.593 53.6719 280.698 53.6719C277.801 53.6719 275.453 56.0195 275.453 58.9146C275.453 61.8098 277.801 64.1588 280.698 64.1588ZM174.755 64.1588C177.65 64.1588 179.998 61.8098 179.998 58.9146C179.998 56.0195 177.65 53.6719 174.755 53.6719C171.858 53.6719 169.511 56.0195 169.511 58.9146C169.511 61.8098 171.858 64.1588 174.755 64.1588ZM153.566 64.1588C156.462 64.1588 158.809 61.8098 158.809 58.9146C158.809 56.0195 156.462 53.6719 153.566 53.6719C150.671 53.6719 148.321 56.0195 148.321 58.9146C148.321 61.8098 150.671 64.1588 153.566 64.1588ZM132.376 64.1588C135.274 64.1588 137.621 61.8098 137.621 58.9146C137.621 56.0195 135.274 53.6719 132.376 53.6719C129.481 53.6719 127.132 56.0195 127.132 58.9146C127.132 61.8098 129.481 64.1588 132.376 64.1588ZM111.187 64.1588C114.085 64.1588 116.432 61.8098 116.432 58.9146C116.432 56.0195 114.085 53.6719 111.187 53.6719C108.292 53.6719 105.944 56.0195 105.944 58.9146C105.944 61.8098 108.292 64.1588 111.187 64.1588ZM89.9998 64.1588C92.895 64.1588 95.2444 61.8098 95.2444 58.9146C95.2444 56.0195 92.895 53.6719 89.9998 53.6719C87.1028 53.6719 84.7552 56.0195 84.7552 58.9146C84.7552 61.8098 87.1028 64.1588 89.9998 64.1588ZM68.8107 64.1588C71.7058 64.1588 74.0548 61.8098 74.0548 58.9146C74.0548 56.0195 71.7058 53.6719 68.8107 53.6719C65.9155 53.6719 63.5679 56.0195 63.5679 58.9146C63.5679 61.8098 65.9155 64.1588 68.8107 64.1588ZM47.6211 64.1588C50.519 64.1588 52.8656 61.8098 52.8656 58.9146C52.8656 56.0195 50.519 53.6719 47.6211 53.6719C44.7259 53.6719 42.3783 56.0195 42.3783 58.9146C42.3783 61.8098 44.7259 64.1588 47.6211 64.1588ZM26.4337 64.1588C29.3293 64.1588 31.6765 61.8098 31.6765 58.9146C31.6765 56.0195 29.3293 53.6719 26.4337 53.6719C23.5386 53.6719 21.1891 56.0195 21.1891 58.9146C21.1891 61.8098 23.5386 64.1588 26.4337 64.1588ZM5.24412 64.1588C8.14202 64.1588 10.4891 61.8098 10.4891 58.9146C10.4891 56.0195 8.14202 53.6719 5.24412 53.6719C2.34895 53.6719 0 56.0195 0 58.9146C0 61.8098 2.34895 64.1588 5.24412 64.1588ZM852.79 42.9701C855.688 42.9701 858.037 40.6225 858.037 37.725C858.037 34.8299 855.688 32.4823 852.79 32.4823C849.895 32.4823 847.546 34.8299 847.546 37.725C847.546 40.6225 849.895 42.9701 852.79 42.9701ZM831.601 42.9701C834.501 42.9701 836.848 40.6225 836.848 37.725C836.848 34.8299 834.501 32.4823 831.601 32.4823C828.708 32.4823 826.359 34.8299 826.359 37.725C826.359 40.6225 828.708 42.9701 831.601 42.9701ZM810.414 42.9701C813.311 42.9701 815.662 40.6225 815.662 37.725C815.662 34.8299 813.311 32.4823 810.414 32.4823C807.52 32.4823 805.169 34.8299 805.169 37.725C805.169 40.6225 807.52 42.9701 810.414 42.9701ZM598.528 42.9701C601.422 42.9701 603.771 40.6225 603.771 37.725C603.771 34.8299 601.422 32.4823 598.528 32.4823C595.629 32.4823 593.288 34.8299 593.288 37.725C593.288 40.6225 595.629 42.9701 598.528 42.9701ZM577.339 42.9701C580.236 42.9701 582.583 40.6225 582.583 37.725C582.583 34.8299 580.236 32.4823 577.339 32.4823C574.444 32.4823 572.097 34.8299 572.097 37.725C572.097 40.6225 574.444 42.9701 577.339 42.9701ZM556.149 42.9701C559.047 42.9701 561.394 40.6225 561.394 37.725C561.394 34.8299 559.047 32.4823 556.149 32.4823C553.254 32.4823 550.907 34.8299 550.907 37.725C550.907 40.6225 553.254 42.9701 556.149 42.9701ZM365.451 42.9701C368.348 42.9701 370.696 40.6225 370.696 37.725C370.696 34.8299 368.348 32.4823 365.451 32.4823C362.556 32.4823 360.209 34.8299 360.209 37.725C360.209 40.6225 362.556 42.9701 365.451 42.9701ZM301.887 42.9701C304.783 42.9701 307.13 40.6225 307.13 37.725C307.13 34.8299 304.783 32.4823 301.887 32.4823C298.99 32.4823 296.642 34.8299 296.642 37.725C296.642 40.6225 298.99 42.9701 301.887 42.9701ZM132.376 42.9701C135.274 42.9701 137.621 40.6225 137.621 37.725C137.621 34.8299 135.274 32.4823 132.376 32.4823C129.481 32.4823 127.132 34.8299 127.132 37.725C127.132 40.6225 129.481 42.9701 132.376 42.9701ZM111.187 42.9701C114.085 42.9701 116.432 40.6225 116.432 37.725C116.432 34.8299 114.085 32.4823 111.187 32.4823C108.292 32.4823 105.944 34.8299 105.944 37.725C105.944 40.6225 108.292 42.9701 111.187 42.9701ZM89.9998 42.9701C92.895 42.9701 95.2444 40.6225 95.2444 37.725C95.2444 34.8299 92.895 32.4823 89.9998 32.4823C87.1028 32.4823 84.7552 34.8299 84.7552 37.725C84.7552 40.6225 87.1028 42.9701 89.9998 42.9701ZM68.8107 42.9701C71.7058 42.9701 74.0548 40.6225 74.0548 37.725C74.0548 34.8299 71.7058 32.4823 68.8107 32.4823C65.9155 32.4823 63.5679 34.8299 63.5679 37.725C63.5679 40.6225 65.9155 42.9701 68.8107 42.9701ZM47.6211 42.9701C50.519 42.9701 52.8656 40.6225 52.8656 37.725C52.8656 34.8299 50.519 32.4823 47.6211 32.4823C44.7259 32.4823 42.3783 34.8299 42.3783 37.725C42.3783 40.6225 44.7259 42.9701 47.6211 42.9701ZM852.79 21.7805C855.688 21.7805 858.037 19.4333 858.037 16.5354C858.037 13.6425 855.688 11.2927 852.79 11.2927C849.895 11.2927 847.546 13.6425 847.546 16.5354C847.546 19.4333 849.895 21.7805 852.79 21.7805ZM831.601 21.7805C834.501 21.7805 836.848 19.4333 836.848 16.5354C836.848 13.6425 834.501 11.2927 831.601 11.2927C828.708 11.2927 826.359 13.6425 826.359 16.5354C826.359 19.4333 828.708 21.7805 831.601 21.7805ZM640.905 21.7805C643.802 21.7805 646.15 19.4333 646.15 16.5354C646.15 13.6425 643.802 11.2927 640.905 11.2927C638.008 11.2927 635.662 13.6425 635.662 16.5354C635.662 19.4333 638.008 21.7805 640.905 21.7805ZM619.718 21.7805C622.611 21.7805 624.96 19.4333 624.96 16.5354C624.96 13.6425 622.611 11.2927 619.718 11.2927C616.82 11.2927 614.473 13.6425 614.473 16.5354C614.473 19.4333 616.82 21.7805 619.718 21.7805ZM598.528 21.7805C601.422 21.7805 603.771 19.4333 603.771 16.5354C603.771 13.6425 601.422 11.2927 598.528 11.2927C595.629 11.2927 593.288 13.6425 593.288 16.5354C593.288 19.4333 595.629 21.7805 598.528 21.7805ZM577.339 21.7805C580.236 21.7805 582.583 19.4333 582.583 16.5354C582.583 13.6425 580.236 11.2927 577.339 11.2927C574.444 11.2927 572.097 13.6425 572.097 16.5354C572.097 19.4333 574.444 21.7805 577.339 21.7805ZM556.149 21.7805C559.047 21.7805 561.394 19.4333 561.394 16.5354C561.394 13.6425 559.047 11.2927 556.149 11.2927C553.254 11.2927 550.907 13.6425 550.907 16.5354C550.907 19.4333 553.254 21.7805 556.149 21.7805ZM365.451 21.7805C368.348 21.7805 370.696 19.4333 370.696 16.5354C370.696 13.6425 368.348 11.2927 365.451 11.2927C362.556 11.2927 360.209 13.6425 360.209 16.5354C360.209 19.4333 362.556 21.7805 365.451 21.7805ZM344.264 21.7805C347.159 21.7805 349.507 19.4333 349.507 16.5354C349.507 13.6425 347.159 11.2927 344.264 11.2927C341.369 11.2927 339.019 13.6425 339.019 16.5354C339.019 19.4333 341.369 21.7805 344.264 21.7805ZM111.187 21.7805C114.085 21.7805 116.432 19.4333 116.432 16.5354C116.432 13.6425 114.085 11.2927 111.187 11.2927C108.292 11.2927 105.944 13.6425 105.944 16.5354C105.944 19.4333 108.292 21.7805 111.187 21.7805ZM89.9998 21.7805C92.895 21.7805 95.2444 19.4333 95.2444 16.5354C95.2444 13.6425 92.895 11.2927 89.9998 11.2927C87.1028 11.2927 84.7552 13.6425 84.7552 16.5354C84.7552 19.4333 87.1028 21.7805 89.9998 21.7805ZM68.8107 21.7805C71.7058 21.7805 74.0548 19.4333 74.0548 16.5354C74.0548 13.6425 71.7058 11.2927 68.8107 11.2927C65.9155 11.2927 63.5679 13.6425 63.5679 16.5354C63.5679 19.4333 65.9155 21.7805 68.8107 21.7805ZM47.6211 21.7805C50.519 21.7805 52.8656 19.4333 52.8656 16.5354C52.8656 13.6425 50.519 11.2927 47.6211 11.2927C44.7259 11.2927 42.3783 13.6425 42.3783 16.5354C42.3783 19.4333 44.7259 21.7805 47.6211 21.7805ZM26.4337 21.7805C29.3293 21.7805 31.6765 19.4333 31.6765 16.5354C31.6765 13.6425 29.3293 11.2927 26.4337 11.2927C23.5386 11.2927 21.1891 13.6425 21.1891 16.5354C21.1891 19.4333 23.5386 21.7805 26.4337 21.7805ZM5.24412 21.7805C8.14202 21.7805 10.4891 19.4333 10.4891 16.5354C10.4891 13.6425 8.14202 11.2927 5.24412 11.2927C2.34895 11.2927 0 13.6425 0 16.5354C0 19.4333 2.34895 21.7805 5.24412 21.7805ZM662.095 0.593117C664.987 0.593117 667.337 -1.75628 667.337 -4.65191C667.337 -7.54708 664.987 -9.89602 662.095 -9.89602C659.197 -9.89602 656.848 -7.54708 656.848 -4.65191C656.848 -1.75628 659.197 0.593117 662.095 0.593117ZM640.905 0.593117C643.802 0.593117 646.15 -1.75628 646.15 -4.65191C646.15 -7.54708 643.802 -9.89602 640.905 -9.89602C638.008 -9.89602 635.662 -7.54708 635.662 -4.65191C635.662 -1.75628 638.008 0.593117 640.905 0.593117ZM89.9998 0.593117C92.895 0.593117 95.2444 -1.75628 95.2444 -4.65191C95.2444 -7.54708 92.895 -9.89602 89.9998 -9.89602C87.1028 -9.89602 84.7552 -7.54708 84.7552 -4.65191C84.7552 -1.75628 87.1028 0.593117 89.9998 0.593117ZM68.8107 0.593117C71.7058 0.593117 74.0548 -1.75628 74.0548 -4.65191C74.0548 -7.54708 71.7058 -9.89602 68.8107 -9.89602C65.9155 -9.89602 63.5679 -7.54708 63.5679 -4.65191C63.5679 -1.75628 65.9155 0.593117 68.8107 0.593117ZM47.6211 0.593117C50.519 0.593117 52.8656 -1.75628 52.8656 -4.65191C52.8656 -7.54708 50.519 -9.89602 47.6211 -9.89602C44.7259 -9.89602 42.3783 -7.54708 42.3783 -4.65191C42.3783 -1.75628 44.7259 0.593117 47.6211 0.593117ZM26.4337 0.593117C29.3293 0.593117 31.6765 -1.75628 31.6765 -4.65191C31.6765 -7.54708 29.3293 -9.89602 26.4337 -9.89602C23.5386 -9.89602 21.1891 -7.54708 21.1891 -4.65191C21.1891 -1.75628 23.5386 0.593117 26.4337 0.593117ZM5.24412 0.593117C8.14202 0.593117 10.4891 -1.75628 10.4891 -4.65191C10.4891 -7.54708 8.14202 -9.89602 5.24412 -9.89602C2.34895 -9.89602 0 -7.54708 0 -4.65191C0 -1.75628 2.34895 0.593117 5.24412 0.593117ZM704.475 -20.5965C707.368 -20.5965 709.716 -22.9436 709.716 -25.8392C709.716 -28.7362 707.368 -31.0833 704.475 -31.0833C701.574 -31.0833 699.227 -28.7362 699.227 -25.8392C699.227 -22.9436 701.574 -20.5965 704.475 -20.5965ZM683.283 -20.5965C686.177 -20.5965 688.526 -22.9436 688.526 -25.8392C688.526 -28.7362 686.177 -31.0833 683.283 -31.0833C680.386 -31.0833 678.037 -28.7362 678.037 -25.8392C678.037 -22.9436 680.386 -20.5965 683.283 -20.5965ZM704.475 -41.7838C707.368 -41.7838 709.716 -44.1328 709.716 -47.0279C709.716 -49.9258 707.368 -52.2729 704.475 -52.2729C701.574 -52.2729 699.227 -49.9258 699.227 -47.0279C699.227 -44.1328 701.574 -41.7838 704.475 -41.7838Z" fill="#324475"/>
</svg>
